<?xml version="1.0" encoding="utf-8" standalone="no"?>
<!DOCTYPE svg PUBLIC "-//W3C//DTD SVG 1.1//EN"
  "http://www.w3.org/Graphics/SVG/1.1/DTD/svg11.dtd">
<svg xmlns:xlink="http://www.w3.org/1999/xlink" width="1296pt" height="720pt" viewBox="0 0 1296 720" xmlns="http://www.w3.org/2000/svg" version="1.1">
 <metadata>
  <rdf:RDF xmlns:dc="http://purl.org/dc/elements/1.1/" xmlns:cc="http://creativecommons.org/ns#" xmlns:rdf="http://www.w3.org/1999/02/22-rdf-syntax-ns#">
   <cc:Work>
    <dc:type rdf:resource="http://purl.org/dc/dcmitype/StillImage"/>
    <dc:date>2023-07-26T14:32:00.370978</dc:date>
    <dc:format>image/svg+xml</dc:format>
    <dc:creator>
     <cc:Agent>
      <dc:title>Matplotlib v3.5.2, https://matplotlib.org/</dc:title>
     </cc:Agent>
    </dc:creator>
   </cc:Work>
  </rdf:RDF>
 </metadata>
 <defs>
  <style type="text/css">*{stroke-linejoin: round; stroke-linecap: butt}</style>
 </defs>
 <g id="figure_1">
  <g id="patch_1">
   <path d="M 0 720 
L 1296 720 
L 1296 0 
L 0 0 
z
" style="fill: #ffffff"/>
  </g>
  <g id="axes_1">
   <g id="PolyCollection_1">
    <defs>
     <path id="m28d81b54df" d="M 47.520093 -187.4 
L 47.520093 -120.124364 
L 69.334545 -120.124364 
L 91.148998 -120.124364 
L 112.96345 -120.124364 
L 134.777902 -120.124364 
L 156.592354 -120.124364 
L 178.406806 -120.124364 
L 200.221259 -120.124364 
L 222.035711 -120.124364 
L 243.850163 -120.124364 
L 265.664615 -120.124364 
L 287.479067 -120.124364 
L 309.29352 -120.124364 
L 331.107972 -120.124364 
L 352.922424 -120.124364 
L 374.736876 -120.124364 
L 396.551328 -120.124364 
L 418.365781 -120.124364 
L 440.180233 -120.124364 
L 461.994685 -120.124364 
L 461.994685 -187.4 
L 461.994685 -187.4 
L 440.180233 -187.4 
L 418.365781 -187.4 
L 396.551328 -187.4 
L 374.736876 -187.4 
L 352.922424 -187.4 
L 331.107972 -187.4 
L 309.29352 -187.4 
L 287.479067 -187.4 
L 265.664615 -187.4 
L 243.850163 -187.4 
L 222.035711 -187.4 
L 200.221259 -187.4 
L 178.406806 -187.4 
L 156.592354 -187.4 
L 134.777902 -187.4 
L 112.96345 -187.4 
L 91.148998 -187.4 
L 69.334545 -187.4 
L 47.520093 -187.4 
z
" style="stroke: #0000ff; stroke-opacity: 0.5"/>
    </defs>
    <g clip-path="url(#p2651918df5)">
     <use xlink:href="#m28d81b54df" x="0" y="720" style="fill: #0000ff; fill-opacity: 0.5; stroke: #0000ff; stroke-opacity: 0.5"/>
    </g>
   </g>
   <g id="PolyCollection_2">
    <defs>
     <path id="m28cfbd05d1" d="M 47.520093 -233.203496 
L 47.520093 -188.353072 
L 69.334545 -189.306143 
L 91.148998 -190.259215 
L 112.96345 -191.212286 
L 134.777902 -192.165358 
L 156.592354 -195.024572 
L 178.406806 -198.836858 
L 200.221259 -208.367573 
L 222.035711 -220.757503 
L 243.850163 -235.053576 
L 265.664615 -249.349648 
L 287.479067 -261.739578 
L 309.29352 -271.270293 
L 331.107972 -275.082579 
L 352.922424 -277.941794 
L 374.736876 -278.894865 
L 396.551328 -279.847937 
L 418.365781 -280.801008 
L 440.180233 -281.75408 
L 461.994685 -282.707152 
L 461.994685 -327.557576 
L 461.994685 -327.557576 
L 440.180233 -326.604504 
L 418.365781 -325.651433 
L 396.551328 -324.698361 
L 374.736876 -323.74529 
L 352.922424 -322.792218 
L 331.107972 -319.933004 
L 309.29352 -316.120718 
L 287.479067 -306.590002 
L 265.664615 -294.200073 
L 243.850163 -279.904 
L 222.035711 -265.607927 
L 200.221259 -253.217998 
L 178.406806 -243.687282 
L 156.592354 -239.874996 
L 134.777902 -237.015782 
L 112.96345 -236.06271 
L 91.148998 -235.109639 
L 69.334545 -234.156567 
L 47.520093 -233.203496 
z
" style="stroke: #0000ff; stroke-opacity: 0.5"/>
    </defs>
    <g clip-path="url(#p2651918df5)">
     <use xlink:href="#m28cfbd05d1" x="0" y="720" style="fill: #0000ff; fill-opacity: 0.5; stroke: #0000ff; stroke-opacity: 0.5"/>
    </g>
   </g>
   <g id="PolyCollection_3">
    <defs>
     <path id="m4760a7b2a2" d="M 47.520093 -346.282628 
L 47.520093 -234.156567 
L 69.334545 -236.06271 
L 91.148998 -237.968853 
L 112.96345 -239.874996 
L 134.777902 -241.781139 
L 156.592354 -247.499568 
L 178.406806 -255.124141 
L 200.221259 -274.185571 
L 222.035711 -298.96543 
L 243.850163 -327.557576 
L 265.664615 -356.149721 
L 287.479067 -380.929581 
L 309.29352 -399.991011 
L 331.107972 -407.615583 
L 352.922424 -413.334012 
L 374.736876 -415.240155 
L 396.551328 -417.146298 
L 418.365781 -419.052441 
L 440.180233 -420.958584 
L 461.994685 -422.864727 
L 461.994685 -534.990788 
L 461.994685 -534.990788 
L 440.180233 -533.084645 
L 418.365781 -531.178502 
L 396.551328 -529.272359 
L 374.736876 -527.366216 
L 352.922424 -525.460073 
L 331.107972 -519.741644 
L 309.29352 -512.117072 
L 287.479067 -493.055641 
L 265.664615 -468.275782 
L 243.850163 -439.683636 
L 222.035711 -411.091491 
L 200.221259 -386.311632 
L 178.406806 -367.250201 
L 156.592354 -359.625629 
L 134.777902 -353.9072 
L 112.96345 -352.001057 
L 91.148998 -350.094914 
L 69.334545 -348.188771 
L 47.520093 -346.282628 
z
" style="stroke: #0000ff; stroke-opacity: 0.5"/>
    </defs>
    <g clip-path="url(#p2651918df5)">
     <use xlink:href="#m4760a7b2a2" x="0" y="720" style="fill: #0000ff; fill-opacity: 0.5; stroke: #0000ff; stroke-opacity: 0.5"/>
    </g>
   </g>
   <g id="PolyCollection_4">
    <defs>
     <path id="m96478bae9a" d="M 47.520093 -465.584756 
L 47.520093 -398.30912 
L 69.334545 -396.178725 
L 91.148998 -394.04833 
L 112.96345 -391.917935 
L 134.777902 -389.787539 
L 156.592354 -383.396354 
L 178.406806 -374.874773 
L 200.221259 -353.570822 
L 222.035711 -325.875685 
L 243.850163 -293.919758 
L 265.664615 -261.96383 
L 287.479067 -234.268693 
L 309.29352 -212.964742 
L 331.107972 -204.443161 
L 352.922424 -198.051976 
L 374.736876 -195.921581 
L 396.551328 -193.791185 
L 418.365781 -191.66079 
L 440.180233 -189.530395 
L 461.994685 -187.4 
L 461.994685 -254.675636 
L 461.994685 -254.675636 
L 440.180233 -256.806032 
L 418.365781 -258.936427 
L 396.551328 -261.066822 
L 374.736876 -263.197217 
L 352.922424 -265.327612 
L 331.107972 -271.718798 
L 309.29352 -280.240378 
L 287.479067 -301.54433 
L 265.664615 -329.239467 
L 243.850163 -361.195394 
L 222.035711 -393.151321 
L 200.221259 -420.846458 
L 178.406806 -442.15041 
L 156.592354 -450.67199 
L 134.777902 -457.063176 
L 112.96345 -459.193571 
L 91.148998 -461.323966 
L 69.334545 -463.454361 
L 47.520093 -465.584756 
z
" style="stroke: #ffff00; stroke-opacity: 0.5"/>
    </defs>
    <g clip-path="url(#p2651918df5)">
     <use xlink:href="#m96478bae9a" x="0" y="720" style="fill: #ffff00; fill-opacity: 0.5; stroke: #ffff00; stroke-opacity: 0.5"/>
    </g>
   </g>
   <g id="PolyCollection_5">
    <defs>
     <path id="m71f530495f" d="M 47.520093 -533.589212 
L 47.520093 -466.313576 
L 69.334545 -464.912 
L 91.148998 -463.510424 
L 112.96345 -462.108848 
L 134.777902 -460.707273 
L 156.592354 -456.502545 
L 178.406806 -450.896242 
L 200.221259 -436.880485 
L 222.035711 -418.66 
L 243.850163 -397.636364 
L 265.664615 -376.612727 
L 287.479067 -358.392242 
L 309.29352 -344.376485 
L 331.107972 -338.770182 
L 352.922424 -334.565455 
L 374.736876 -333.163879 
L 396.551328 -331.762303 
L 418.365781 -330.360727 
L 440.180233 -328.959152 
L 461.994685 -327.557576 
L 461.994685 -394.833212 
L 461.994685 -394.833212 
L 440.180233 -396.234788 
L 418.365781 -397.636364 
L 396.551328 -399.037939 
L 374.736876 -400.439515 
L 352.922424 -401.841091 
L 331.107972 -406.045818 
L 309.29352 -411.652121 
L 287.479067 -425.667879 
L 265.664615 -443.888364 
L 243.850163 -464.912 
L 222.035711 -485.935636 
L 200.221259 -504.156121 
L 178.406806 -518.171879 
L 156.592354 -523.778182 
L 134.777902 -527.982909 
L 112.96345 -529.384485 
L 91.148998 -530.786061 
L 69.334545 -532.187636 
L 47.520093 -533.589212 
z
" style="stroke: #ffff00; stroke-opacity: 0.5"/>
    </defs>
    <g clip-path="url(#p2651918df5)">
     <use xlink:href="#m71f530495f" x="0" y="720" style="fill: #ffff00; fill-opacity: 0.5; stroke: #ffff00; stroke-opacity: 0.5"/>
    </g>
   </g>
   <g id="PolyCollection_6">
    <defs>
     <path id="mab54cb3065" d="M 47.520093 -624.691636 
L 47.520093 -534.990788 
L 69.334545 -534.990788 
L 91.148998 -534.990788 
L 112.96345 -534.990788 
L 134.777902 -534.990788 
L 156.592354 -534.990788 
L 178.406806 -534.990788 
L 200.221259 -534.990788 
L 222.035711 -534.990788 
L 243.850163 -534.990788 
L 265.664615 -534.990788 
L 287.479067 -534.990788 
L 309.29352 -534.990788 
L 331.107972 -534.990788 
L 352.922424 -534.990788 
L 374.736876 -534.990788 
L 396.551328 -534.990788 
L 418.365781 -534.990788 
L 440.180233 -534.990788 
L 461.994685 -534.990788 
L 461.994685 -624.691636 
L 461.994685 -624.691636 
L 440.180233 -624.691636 
L 418.365781 -624.691636 
L 396.551328 -624.691636 
L 374.736876 -624.691636 
L 352.922424 -624.691636 
L 331.107972 -624.691636 
L 309.29352 -624.691636 
L 287.479067 -624.691636 
L 265.664615 -624.691636 
L 243.850163 -624.691636 
L 222.035711 -624.691636 
L 200.221259 -624.691636 
L 178.406806 -624.691636 
L 156.592354 -624.691636 
L 134.777902 -624.691636 
L 112.96345 -624.691636 
L 91.148998 -624.691636 
L 69.334545 -624.691636 
L 47.520093 -624.691636 
z
" style="stroke: #ffff00; stroke-opacity: 0.5"/>
    </defs>
    <g clip-path="url(#p2651918df5)">
     <use xlink:href="#mab54cb3065" x="0" y="720" style="fill: #ffff00; fill-opacity: 0.5; stroke: #ffff00; stroke-opacity: 0.5"/>
    </g>
   </g>
   <g id="text_1">
    <!-- Summer P -->
    <g transform="translate(47.520093 168.190303)scale(0.28 -0.28)">
     <defs>
      <path id="DejaVuSans-53" d="M 3425 4513 
L 3425 3897 
Q 3066 4069 2747 4153 
Q 2428 4238 2131 4238 
Q 1616 4238 1336 4038 
Q 1056 3838 1056 3469 
Q 1056 3159 1242 3001 
Q 1428 2844 1947 2747 
L 2328 2669 
Q 3034 2534 3370 2195 
Q 3706 1856 3706 1288 
Q 3706 609 3251 259 
Q 2797 -91 1919 -91 
Q 1588 -91 1214 -16 
Q 841 59 441 206 
L 441 856 
Q 825 641 1194 531 
Q 1563 422 1919 422 
Q 2459 422 2753 634 
Q 3047 847 3047 1241 
Q 3047 1584 2836 1778 
Q 2625 1972 2144 2069 
L 1759 2144 
Q 1053 2284 737 2584 
Q 422 2884 422 3419 
Q 422 4038 858 4394 
Q 1294 4750 2059 4750 
Q 2388 4750 2728 4690 
Q 3069 4631 3425 4513 
z
" transform="scale(0.015625)"/>
      <path id="DejaVuSans-75" d="M 544 1381 
L 544 3500 
L 1119 3500 
L 1119 1403 
Q 1119 906 1312 657 
Q 1506 409 1894 409 
Q 2359 409 2629 706 
Q 2900 1003 2900 1516 
L 2900 3500 
L 3475 3500 
L 3475 0 
L 2900 0 
L 2900 538 
Q 2691 219 2414 64 
Q 2138 -91 1772 -91 
Q 1169 -91 856 284 
Q 544 659 544 1381 
z
M 1991 3584 
L 1991 3584 
z
" transform="scale(0.015625)"/>
      <path id="DejaVuSans-6d" d="M 3328 2828 
Q 3544 3216 3844 3400 
Q 4144 3584 4550 3584 
Q 5097 3584 5394 3201 
Q 5691 2819 5691 2113 
L 5691 0 
L 5113 0 
L 5113 2094 
Q 5113 2597 4934 2840 
Q 4756 3084 4391 3084 
Q 3944 3084 3684 2787 
Q 3425 2491 3425 1978 
L 3425 0 
L 2847 0 
L 2847 2094 
Q 2847 2600 2669 2842 
Q 2491 3084 2119 3084 
Q 1678 3084 1418 2786 
Q 1159 2488 1159 1978 
L 1159 0 
L 581 0 
L 581 3500 
L 1159 3500 
L 1159 2956 
Q 1356 3278 1631 3431 
Q 1906 3584 2284 3584 
Q 2666 3584 2933 3390 
Q 3200 3197 3328 2828 
z
" transform="scale(0.015625)"/>
      <path id="DejaVuSans-65" d="M 3597 1894 
L 3597 1613 
L 953 1613 
Q 991 1019 1311 708 
Q 1631 397 2203 397 
Q 2534 397 2845 478 
Q 3156 559 3463 722 
L 3463 178 
Q 3153 47 2828 -22 
Q 2503 -91 2169 -91 
Q 1331 -91 842 396 
Q 353 884 353 1716 
Q 353 2575 817 3079 
Q 1281 3584 2069 3584 
Q 2775 3584 3186 3129 
Q 3597 2675 3597 1894 
z
M 3022 2063 
Q 3016 2534 2758 2815 
Q 2500 3097 2075 3097 
Q 1594 3097 1305 2825 
Q 1016 2553 972 2059 
L 3022 2063 
z
" transform="scale(0.015625)"/>
      <path id="DejaVuSans-72" d="M 2631 2963 
Q 2534 3019 2420 3045 
Q 2306 3072 2169 3072 
Q 1681 3072 1420 2755 
Q 1159 2438 1159 1844 
L 1159 0 
L 581 0 
L 581 3500 
L 1159 3500 
L 1159 2956 
Q 1341 3275 1631 3429 
Q 1922 3584 2338 3584 
Q 2397 3584 2469 3576 
Q 2541 3569 2628 3553 
L 2631 2963 
z
" transform="scale(0.015625)"/>
      <path id="DejaVuSans-20" transform="scale(0.015625)"/>
      <path id="DejaVuSans-50" d="M 1259 4147 
L 1259 2394 
L 2053 2394 
Q 2494 2394 2734 2622 
Q 2975 2850 2975 3272 
Q 2975 3691 2734 3919 
Q 2494 4147 2053 4147 
L 1259 4147 
z
M 628 4666 
L 2053 4666 
Q 2838 4666 3239 4311 
Q 3641 3956 3641 3272 
Q 3641 2581 3239 2228 
Q 2838 1875 2053 1875 
L 1259 1875 
L 1259 0 
L 628 0 
L 628 4666 
z
" transform="scale(0.015625)"/>
     </defs>
     <use xlink:href="#DejaVuSans-53"/>
     <use xlink:href="#DejaVuSans-75" x="63.476562"/>
     <use xlink:href="#DejaVuSans-6d" x="126.855469"/>
     <use xlink:href="#DejaVuSans-6d" x="224.267578"/>
     <use xlink:href="#DejaVuSans-65" x="321.679688"/>
     <use xlink:href="#DejaVuSans-72" x="383.203125"/>
     <use xlink:href="#DejaVuSans-20" x="424.316406"/>
     <use xlink:href="#DejaVuSans-50" x="456.103516"/>
    </g>
   </g>
   <g id="text_2">
    <!-- 200 ± 12 mm -->
    <g transform="translate(47.520093 196.221818)scale(0.28 -0.28)">
     <defs>
      <path id="DejaVuSans-32" d="M 1228 531 
L 3431 531 
L 3431 0 
L 469 0 
L 469 531 
Q 828 903 1448 1529 
Q 2069 2156 2228 2338 
Q 2531 2678 2651 2914 
Q 2772 3150 2772 3378 
Q 2772 3750 2511 3984 
Q 2250 4219 1831 4219 
Q 1534 4219 1204 4116 
Q 875 4013 500 3803 
L 500 4441 
Q 881 4594 1212 4672 
Q 1544 4750 1819 4750 
Q 2544 4750 2975 4387 
Q 3406 4025 3406 3419 
Q 3406 3131 3298 2873 
Q 3191 2616 2906 2266 
Q 2828 2175 2409 1742 
Q 1991 1309 1228 531 
z
" transform="scale(0.015625)"/>
      <path id="DejaVuSans-30" d="M 2034 4250 
Q 1547 4250 1301 3770 
Q 1056 3291 1056 2328 
Q 1056 1369 1301 889 
Q 1547 409 2034 409 
Q 2525 409 2770 889 
Q 3016 1369 3016 2328 
Q 3016 3291 2770 3770 
Q 2525 4250 2034 4250 
z
M 2034 4750 
Q 2819 4750 3233 4129 
Q 3647 3509 3647 2328 
Q 3647 1150 3233 529 
Q 2819 -91 2034 -91 
Q 1250 -91 836 529 
Q 422 1150 422 2328 
Q 422 3509 836 4129 
Q 1250 4750 2034 4750 
z
" transform="scale(0.015625)"/>
      <path id="DejaVuSans-b1" d="M 2944 4013 
L 2944 2803 
L 4684 2803 
L 4684 2272 
L 2944 2272 
L 2944 1063 
L 2419 1063 
L 2419 2272 
L 678 2272 
L 678 2803 
L 2419 2803 
L 2419 4013 
L 2944 4013 
z
M 678 531 
L 4684 531 
L 4684 0 
L 678 0 
L 678 531 
z
" transform="scale(0.015625)"/>
      <path id="DejaVuSans-31" d="M 794 531 
L 1825 531 
L 1825 4091 
L 703 3866 
L 703 4441 
L 1819 4666 
L 2450 4666 
L 2450 531 
L 3481 531 
L 3481 0 
L 794 0 
L 794 531 
z
" transform="scale(0.015625)"/>
     </defs>
     <use xlink:href="#DejaVuSans-32"/>
     <use xlink:href="#DejaVuSans-30" x="63.623047"/>
     <use xlink:href="#DejaVuSans-30" x="127.246094"/>
     <use xlink:href="#DejaVuSans-20" x="190.869141"/>
     <use xlink:href="#DejaVuSans-b1" x="222.65625"/>
     <use xlink:href="#DejaVuSans-20" x="306.445312"/>
     <use xlink:href="#DejaVuSans-31" x="338.232422"/>
     <use xlink:href="#DejaVuSans-32" x="401.855469"/>
     <use xlink:href="#DejaVuSans-20" x="465.478516"/>
     <use xlink:href="#DejaVuSans-6d" x="497.265625"/>
     <use xlink:href="#DejaVuSans-6d" x="594.677734"/>
    </g>
   </g>
   <g id="text_3">
    <!-- Winter P -->
    <g transform="translate(47.520093 523.629915)scale(0.28 -0.28)">
     <defs>
      <path id="DejaVuSans-57" d="M 213 4666 
L 850 4666 
L 1831 722 
L 2809 4666 
L 3519 4666 
L 4500 722 
L 5478 4666 
L 6119 4666 
L 4947 0 
L 4153 0 
L 3169 4050 
L 2175 0 
L 1381 0 
L 213 4666 
z
" transform="scale(0.015625)"/>
      <path id="DejaVuSans-69" d="M 603 3500 
L 1178 3500 
L 1178 0 
L 603 0 
L 603 3500 
z
M 603 4863 
L 1178 4863 
L 1178 4134 
L 603 4134 
L 603 4863 
z
" transform="scale(0.015625)"/>
      <path id="DejaVuSans-6e" d="M 3513 2113 
L 3513 0 
L 2938 0 
L 2938 2094 
Q 2938 2591 2744 2837 
Q 2550 3084 2163 3084 
Q 1697 3084 1428 2787 
Q 1159 2491 1159 1978 
L 1159 0 
L 581 0 
L 581 3500 
L 1159 3500 
L 1159 2956 
Q 1366 3272 1645 3428 
Q 1925 3584 2291 3584 
Q 2894 3584 3203 3211 
Q 3513 2838 3513 2113 
z
" transform="scale(0.015625)"/>
      <path id="DejaVuSans-74" d="M 1172 4494 
L 1172 3500 
L 2356 3500 
L 2356 3053 
L 1172 3053 
L 1172 1153 
Q 1172 725 1289 603 
Q 1406 481 1766 481 
L 2356 481 
L 2356 0 
L 1766 0 
Q 1100 0 847 248 
Q 594 497 594 1153 
L 594 3053 
L 172 3053 
L 172 3500 
L 594 3500 
L 594 4494 
L 1172 4494 
z
" transform="scale(0.015625)"/>
     </defs>
     <use xlink:href="#DejaVuSans-57"/>
     <use xlink:href="#DejaVuSans-69" x="96.626953"/>
     <use xlink:href="#DejaVuSans-6e" x="124.410156"/>
     <use xlink:href="#DejaVuSans-74" x="187.789062"/>
     <use xlink:href="#DejaVuSans-65" x="226.998047"/>
     <use xlink:href="#DejaVuSans-72" x="288.521484"/>
     <use xlink:href="#DejaVuSans-20" x="329.634766"/>
     <use xlink:href="#DejaVuSans-50" x="361.421875"/>
    </g>
   </g>
   <g id="text_4">
    <!-- 200 ± 11 mm -->
    <g transform="translate(47.520093 551.66143)scale(0.28 -0.28)">
     <use xlink:href="#DejaVuSans-32"/>
     <use xlink:href="#DejaVuSans-30" x="63.623047"/>
     <use xlink:href="#DejaVuSans-30" x="127.246094"/>
     <use xlink:href="#DejaVuSans-20" x="190.869141"/>
     <use xlink:href="#DejaVuSans-b1" x="222.65625"/>
     <use xlink:href="#DejaVuSans-20" x="306.445312"/>
     <use xlink:href="#DejaVuSans-31" x="338.232422"/>
     <use xlink:href="#DejaVuSans-31" x="401.855469"/>
     <use xlink:href="#DejaVuSans-20" x="465.478516"/>
     <use xlink:href="#DejaVuSans-6d" x="497.265625"/>
     <use xlink:href="#DejaVuSans-6d" x="594.677734"/>
    </g>
   </g>
   <g id="text_5">
    <!-- 80 ± 14 mm -->
    <g transform="translate(274.390396 145.765091)scale(0.28 -0.28)">
     <defs>
      <path id="DejaVuSans-38" d="M 2034 2216 
Q 1584 2216 1326 1975 
Q 1069 1734 1069 1313 
Q 1069 891 1326 650 
Q 1584 409 2034 409 
Q 2484 409 2743 651 
Q 3003 894 3003 1313 
Q 3003 1734 2745 1975 
Q 2488 2216 2034 2216 
z
M 1403 2484 
Q 997 2584 770 2862 
Q 544 3141 544 3541 
Q 544 4100 942 4425 
Q 1341 4750 2034 4750 
Q 2731 4750 3128 4425 
Q 3525 4100 3525 3541 
Q 3525 3141 3298 2862 
Q 3072 2584 2669 2484 
Q 3125 2378 3379 2068 
Q 3634 1759 3634 1313 
Q 3634 634 3220 271 
Q 2806 -91 2034 -91 
Q 1263 -91 848 271 
Q 434 634 434 1313 
Q 434 1759 690 2068 
Q 947 2378 1403 2484 
z
M 1172 3481 
Q 1172 3119 1398 2916 
Q 1625 2713 2034 2713 
Q 2441 2713 2670 2916 
Q 2900 3119 2900 3481 
Q 2900 3844 2670 4047 
Q 2441 4250 2034 4250 
Q 1625 4250 1398 4047 
Q 1172 3844 1172 3481 
z
" transform="scale(0.015625)"/>
      <path id="DejaVuSans-34" d="M 2419 4116 
L 825 1625 
L 2419 1625 
L 2419 4116 
z
M 2253 4666 
L 3047 4666 
L 3047 1625 
L 3713 1625 
L 3713 1100 
L 3047 1100 
L 3047 0 
L 2419 0 
L 2419 1100 
L 313 1100 
L 313 1709 
L 2253 4666 
z
" transform="scale(0.015625)"/>
     </defs>
     <use xlink:href="#DejaVuSans-38"/>
     <use xlink:href="#DejaVuSans-30" x="63.623047"/>
     <use xlink:href="#DejaVuSans-20" x="127.246094"/>
     <use xlink:href="#DejaVuSans-b1" x="159.033203"/>
     <use xlink:href="#DejaVuSans-20" x="242.822266"/>
     <use xlink:href="#DejaVuSans-31" x="274.609375"/>
     <use xlink:href="#DejaVuSans-34" x="338.232422"/>
     <use xlink:href="#DejaVuSans-20" x="401.855469"/>
     <use xlink:href="#DejaVuSans-6d" x="433.642578"/>
     <use xlink:href="#DejaVuSans-6d" x="531.054688"/>
    </g>
   </g>
   <g id="text_6">
    <!-- 100 ± 14 mm -->
    <g transform="translate(256.938834 237.708461)scale(0.28 -0.28)">
     <use xlink:href="#DejaVuSans-31"/>
     <use xlink:href="#DejaVuSans-30" x="63.623047"/>
     <use xlink:href="#DejaVuSans-30" x="127.246094"/>
     <use xlink:href="#DejaVuSans-20" x="190.869141"/>
     <use xlink:href="#DejaVuSans-b1" x="222.65625"/>
     <use xlink:href="#DejaVuSans-20" x="306.445312"/>
     <use xlink:href="#DejaVuSans-31" x="338.232422"/>
     <use xlink:href="#DejaVuSans-34" x="401.855469"/>
     <use xlink:href="#DejaVuSans-20" x="465.478516"/>
     <use xlink:href="#DejaVuSans-6d" x="497.265625"/>
     <use xlink:href="#DejaVuSans-6d" x="594.677734"/>
    </g>
   </g>
   <g id="text_7">
    <!-- 60 ± 4 mm -->
    <g transform="translate(296.204848 358.804606)scale(0.28 -0.28)">
     <defs>
      <path id="DejaVuSans-36" d="M 2113 2584 
Q 1688 2584 1439 2293 
Q 1191 2003 1191 1497 
Q 1191 994 1439 701 
Q 1688 409 2113 409 
Q 2538 409 2786 701 
Q 3034 994 3034 1497 
Q 3034 2003 2786 2293 
Q 2538 2584 2113 2584 
z
M 3366 4563 
L 3366 3988 
Q 3128 4100 2886 4159 
Q 2644 4219 2406 4219 
Q 1781 4219 1451 3797 
Q 1122 3375 1075 2522 
Q 1259 2794 1537 2939 
Q 1816 3084 2150 3084 
Q 2853 3084 3261 2657 
Q 3669 2231 3669 1497 
Q 3669 778 3244 343 
Q 2819 -91 2113 -91 
Q 1303 -91 875 529 
Q 447 1150 447 2328 
Q 447 3434 972 4092 
Q 1497 4750 2381 4750 
Q 2619 4750 2861 4703 
Q 3103 4656 3366 4563 
z
" transform="scale(0.015625)"/>
     </defs>
     <use xlink:href="#DejaVuSans-36"/>
     <use xlink:href="#DejaVuSans-30" x="63.623047"/>
     <use xlink:href="#DejaVuSans-20" x="127.246094"/>
     <use xlink:href="#DejaVuSans-b1" x="159.033203"/>
     <use xlink:href="#DejaVuSans-20" x="242.822266"/>
     <use xlink:href="#DejaVuSans-34" x="274.609375"/>
     <use xlink:href="#DejaVuSans-20" x="338.232422"/>
     <use xlink:href="#DejaVuSans-6d" x="370.019531"/>
     <use xlink:href="#DejaVuSans-6d" x="467.431641"/>
    </g>
   </g>
   <g id="text_8">
    <!-- 40 ± 4 mm -->
    <g transform="translate(296.204848 430.565285)scale(0.28 -0.28)">
     <use xlink:href="#DejaVuSans-34"/>
     <use xlink:href="#DejaVuSans-30" x="63.623047"/>
     <use xlink:href="#DejaVuSans-20" x="127.246094"/>
     <use xlink:href="#DejaVuSans-b1" x="159.033203"/>
     <use xlink:href="#DejaVuSans-20" x="242.822266"/>
     <use xlink:href="#DejaVuSans-34" x="274.609375"/>
     <use xlink:href="#DejaVuSans-20" x="338.232422"/>
     <use xlink:href="#DejaVuSans-6d" x="370.019531"/>
     <use xlink:href="#DejaVuSans-6d" x="467.431641"/>
    </g>
   </g>
   <g id="text_9">
    <!-- 60 ± 8 mm -->
    <g transform="translate(291.841958 505.689745)scale(0.28 -0.28)">
     <use xlink:href="#DejaVuSans-36"/>
     <use xlink:href="#DejaVuSans-30" x="63.623047"/>
     <use xlink:href="#DejaVuSans-20" x="127.246094"/>
     <use xlink:href="#DejaVuSans-b1" x="159.033203"/>
     <use xlink:href="#DejaVuSans-20" x="242.822266"/>
     <use xlink:href="#DejaVuSans-38" x="274.609375"/>
     <use xlink:href="#DejaVuSans-20" x="338.232422"/>
     <use xlink:href="#DejaVuSans-6d" x="370.019531"/>
     <use xlink:href="#DejaVuSans-6d" x="467.431641"/>
    </g>
   </g>
   <g id="text_10">
    <!-- 60 ± 8 mm -->
    <g transform="translate(291.841958 559.510255)scale(0.28 -0.28)">
     <use xlink:href="#DejaVuSans-36"/>
     <use xlink:href="#DejaVuSans-30" x="63.623047"/>
     <use xlink:href="#DejaVuSans-20" x="127.246094"/>
     <use xlink:href="#DejaVuSans-b1" x="159.033203"/>
     <use xlink:href="#DejaVuSans-20" x="242.822266"/>
     <use xlink:href="#DejaVuSans-38" x="274.609375"/>
     <use xlink:href="#DejaVuSans-20" x="338.232422"/>
     <use xlink:href="#DejaVuSans-6d" x="370.019531"/>
     <use xlink:href="#DejaVuSans-6d" x="467.431641"/>
    </g>
   </g>
   <g id="text_11">
    <!-- 55 ± 10% -->
    <g transform="translate(492.534918 168.190303)scale(0.28 -0.28)">
     <defs>
      <path id="DejaVuSans-35" d="M 691 4666 
L 3169 4666 
L 3169 4134 
L 1269 4134 
L 1269 2991 
Q 1406 3038 1543 3061 
Q 1681 3084 1819 3084 
Q 2600 3084 3056 2656 
Q 3513 2228 3513 1497 
Q 3513 744 3044 326 
Q 2575 -91 1722 -91 
Q 1428 -91 1123 -41 
Q 819 9 494 109 
L 494 744 
Q 775 591 1075 516 
Q 1375 441 1709 441 
Q 2250 441 2565 725 
Q 2881 1009 2881 1497 
Q 2881 1984 2565 2268 
Q 2250 2553 1709 2553 
Q 1456 2553 1204 2497 
Q 953 2441 691 2322 
L 691 4666 
z
" transform="scale(0.015625)"/>
      <path id="DejaVuSans-25" d="M 4653 2053 
Q 4381 2053 4226 1822 
Q 4072 1591 4072 1178 
Q 4072 772 4226 539 
Q 4381 306 4653 306 
Q 4919 306 5073 539 
Q 5228 772 5228 1178 
Q 5228 1588 5073 1820 
Q 4919 2053 4653 2053 
z
M 4653 2450 
Q 5147 2450 5437 2106 
Q 5728 1763 5728 1178 
Q 5728 594 5436 251 
Q 5144 -91 4653 -91 
Q 4153 -91 3862 251 
Q 3572 594 3572 1178 
Q 3572 1766 3864 2108 
Q 4156 2450 4653 2450 
z
M 1428 4353 
Q 1159 4353 1004 4120 
Q 850 3888 850 3481 
Q 850 3069 1003 2837 
Q 1156 2606 1428 2606 
Q 1700 2606 1854 2837 
Q 2009 3069 2009 3481 
Q 2009 3884 1853 4118 
Q 1697 4353 1428 4353 
z
M 4250 4750 
L 4750 4750 
L 1831 -91 
L 1331 -91 
L 4250 4750 
z
M 1428 4750 
Q 1922 4750 2215 4408 
Q 2509 4066 2509 3481 
Q 2509 2891 2217 2550 
Q 1925 2209 1428 2209 
Q 931 2209 642 2551 
Q 353 2894 353 3481 
Q 353 4063 643 4406 
Q 934 4750 1428 4750 
z
" transform="scale(0.015625)"/>
     </defs>
     <use xlink:href="#DejaVuSans-35"/>
     <use xlink:href="#DejaVuSans-35" x="63.623047"/>
     <use xlink:href="#DejaVuSans-20" x="127.246094"/>
     <use xlink:href="#DejaVuSans-b1" x="159.033203"/>
     <use xlink:href="#DejaVuSans-20" x="242.822266"/>
     <use xlink:href="#DejaVuSans-31" x="274.609375"/>
     <use xlink:href="#DejaVuSans-30" x="338.232422"/>
     <use xlink:href="#DejaVuSans-25" x="401.855469"/>
    </g>
   </g>
   <g id="text_12">
    <!-- 45 ± 10% -->
    <g transform="translate(492.534918 196.221818)scale(0.28 -0.28)">
     <use xlink:href="#DejaVuSans-34"/>
     <use xlink:href="#DejaVuSans-35" x="63.623047"/>
     <use xlink:href="#DejaVuSans-20" x="127.246094"/>
     <use xlink:href="#DejaVuSans-b1" x="159.033203"/>
     <use xlink:href="#DejaVuSans-20" x="242.822266"/>
     <use xlink:href="#DejaVuSans-31" x="274.609375"/>
     <use xlink:href="#DejaVuSans-30" x="338.232422"/>
     <use xlink:href="#DejaVuSans-25" x="401.855469"/>
    </g>
   </g>
   <g id="text_13">
    <!-- 33 ± 5% -->
    <g transform="translate(492.534918 398.048727)scale(0.28 -0.28)">
     <defs>
      <path id="DejaVuSans-33" d="M 2597 2516 
Q 3050 2419 3304 2112 
Q 3559 1806 3559 1356 
Q 3559 666 3084 287 
Q 2609 -91 1734 -91 
Q 1441 -91 1130 -33 
Q 819 25 488 141 
L 488 750 
Q 750 597 1062 519 
Q 1375 441 1716 441 
Q 2309 441 2620 675 
Q 2931 909 2931 1356 
Q 2931 1769 2642 2001 
Q 2353 2234 1838 2234 
L 1294 2234 
L 1294 2753 
L 1863 2753 
Q 2328 2753 2575 2939 
Q 2822 3125 2822 3475 
Q 2822 3834 2567 4026 
Q 2313 4219 1838 4219 
Q 1578 4219 1281 4162 
Q 984 4106 628 3988 
L 628 4550 
Q 988 4650 1302 4700 
Q 1616 4750 1894 4750 
Q 2613 4750 3031 4423 
Q 3450 4097 3450 3541 
Q 3450 3153 3228 2886 
Q 3006 2619 2597 2516 
z
" transform="scale(0.015625)"/>
     </defs>
     <use xlink:href="#DejaVuSans-33"/>
     <use xlink:href="#DejaVuSans-33" x="63.623047"/>
     <use xlink:href="#DejaVuSans-20" x="127.246094"/>
     <use xlink:href="#DejaVuSans-b1" x="159.033203"/>
     <use xlink:href="#DejaVuSans-20" x="242.822266"/>
     <use xlink:href="#DejaVuSans-35" x="274.609375"/>
     <use xlink:href="#DejaVuSans-25" x="338.232422"/>
    </g>
   </g>
   <g id="text_14">
    <!-- 67 ± 5% -->
    <g transform="translate(492.534918 426.080242)scale(0.28 -0.28)">
     <defs>
      <path id="DejaVuSans-37" d="M 525 4666 
L 3525 4666 
L 3525 4397 
L 1831 0 
L 1172 0 
L 2766 4134 
L 525 4134 
L 525 4666 
z
" transform="scale(0.015625)"/>
     </defs>
     <use xlink:href="#DejaVuSans-36"/>
     <use xlink:href="#DejaVuSans-37" x="63.623047"/>
     <use xlink:href="#DejaVuSans-20" x="127.246094"/>
     <use xlink:href="#DejaVuSans-b1" x="159.033203"/>
     <use xlink:href="#DejaVuSans-20" x="242.822266"/>
     <use xlink:href="#DejaVuSans-35" x="274.609375"/>
     <use xlink:href="#DejaVuSans-25" x="338.232422"/>
    </g>
   </g>
   <g id="text_15">
    <!-- 36 ± 5% -->
    <g transform="translate(492.534918 560.631515)scale(0.28 -0.28)">
     <use xlink:href="#DejaVuSans-33"/>
     <use xlink:href="#DejaVuSans-36" x="63.623047"/>
     <use xlink:href="#DejaVuSans-20" x="127.246094"/>
     <use xlink:href="#DejaVuSans-b1" x="159.033203"/>
     <use xlink:href="#DejaVuSans-20" x="242.822266"/>
     <use xlink:href="#DejaVuSans-35" x="274.609375"/>
     <use xlink:href="#DejaVuSans-25" x="338.232422"/>
    </g>
   </g>
   <g id="text_16">
    <!-- 64 ± 5% -->
    <g transform="translate(492.534918 588.66303)scale(0.28 -0.28)">
     <use xlink:href="#DejaVuSans-36"/>
     <use xlink:href="#DejaVuSans-34" x="63.623047"/>
     <use xlink:href="#DejaVuSans-20" x="127.246094"/>
     <use xlink:href="#DejaVuSans-b1" x="159.033203"/>
     <use xlink:href="#DejaVuSans-20" x="242.822266"/>
     <use xlink:href="#DejaVuSans-35" x="274.609375"/>
     <use xlink:href="#DejaVuSans-25" x="338.232422"/>
    </g>
   </g>
   <g id="text_17">
    <!-- ET -->
    <g transform="translate(492.534918 140.158788)scale(0.28 -0.28)">
     <defs>
      <path id="DejaVuSans-45" d="M 628 4666 
L 3578 4666 
L 3578 4134 
L 1259 4134 
L 1259 2753 
L 3481 2753 
L 3481 2222 
L 1259 2222 
L 1259 531 
L 3634 531 
L 3634 0 
L 628 0 
L 628 4666 
z
" transform="scale(0.015625)"/>
      <path id="DejaVuSans-54" d="M -19 4666 
L 3928 4666 
L 3928 4134 
L 2272 4134 
L 2272 0 
L 1638 0 
L 1638 4134 
L -19 4134 
L -19 4666 
z
" transform="scale(0.015625)"/>
     </defs>
     <use xlink:href="#DejaVuSans-45"/>
     <use xlink:href="#DejaVuSans-54" x="63.183594"/>
    </g>
   </g>
   <g id="text_18">
    <!-- Summer -->
    <g transform="translate(492.534918 338.663337)scale(0.28 -0.28)">
     <use xlink:href="#DejaVuSans-53"/>
     <use xlink:href="#DejaVuSans-75" x="63.476562"/>
     <use xlink:href="#DejaVuSans-6d" x="126.855469"/>
     <use xlink:href="#DejaVuSans-6d" x="224.267578"/>
     <use xlink:href="#DejaVuSans-65" x="321.679688"/>
     <use xlink:href="#DejaVuSans-72" x="383.203125"/>
    </g>
    <!-- Runoff -->
    <g transform="translate(492.534918 370.017212)scale(0.28 -0.28)">
     <defs>
      <path id="DejaVuSans-52" d="M 2841 2188 
Q 3044 2119 3236 1894 
Q 3428 1669 3622 1275 
L 4263 0 
L 3584 0 
L 2988 1197 
Q 2756 1666 2539 1819 
Q 2322 1972 1947 1972 
L 1259 1972 
L 1259 0 
L 628 0 
L 628 4666 
L 2053 4666 
Q 2853 4666 3247 4331 
Q 3641 3997 3641 3322 
Q 3641 2881 3436 2590 
Q 3231 2300 2841 2188 
z
M 1259 4147 
L 1259 2491 
L 2053 2491 
Q 2509 2491 2742 2702 
Q 2975 2913 2975 3322 
Q 2975 3731 2742 3939 
Q 2509 4147 2053 4147 
L 1259 4147 
z
" transform="scale(0.015625)"/>
      <path id="DejaVuSans-6f" d="M 1959 3097 
Q 1497 3097 1228 2736 
Q 959 2375 959 1747 
Q 959 1119 1226 758 
Q 1494 397 1959 397 
Q 2419 397 2687 759 
Q 2956 1122 2956 1747 
Q 2956 2369 2687 2733 
Q 2419 3097 1959 3097 
z
M 1959 3584 
Q 2709 3584 3137 3096 
Q 3566 2609 3566 1747 
Q 3566 888 3137 398 
Q 2709 -91 1959 -91 
Q 1206 -91 779 398 
Q 353 888 353 1747 
Q 353 2609 779 3096 
Q 1206 3584 1959 3584 
z
" transform="scale(0.015625)"/>
      <path id="DejaVuSans-66" d="M 2375 4863 
L 2375 4384 
L 1825 4384 
Q 1516 4384 1395 4259 
Q 1275 4134 1275 3809 
L 1275 3500 
L 2222 3500 
L 2222 3053 
L 1275 3053 
L 1275 0 
L 697 0 
L 697 3053 
L 147 3053 
L 147 3500 
L 697 3500 
L 697 3744 
Q 697 4328 969 4595 
Q 1241 4863 1831 4863 
L 2375 4863 
z
" transform="scale(0.015625)"/>
     </defs>
     <use xlink:href="#DejaVuSans-52"/>
     <use xlink:href="#DejaVuSans-75" x="64.982422"/>
     <use xlink:href="#DejaVuSans-6e" x="128.361328"/>
     <use xlink:href="#DejaVuSans-6f" x="191.740234"/>
     <use xlink:href="#DejaVuSans-66" x="252.921875"/>
     <use xlink:href="#DejaVuSans-66" x="288.126953"/>
    </g>
   </g>
   <g id="text_19">
    <!-- Winter -->
    <g transform="translate(492.534918 501.246125)scale(0.28 -0.28)">
     <use xlink:href="#DejaVuSans-57"/>
     <use xlink:href="#DejaVuSans-69" x="96.626953"/>
     <use xlink:href="#DejaVuSans-6e" x="124.410156"/>
     <use xlink:href="#DejaVuSans-74" x="187.789062"/>
     <use xlink:href="#DejaVuSans-65" x="226.998047"/>
     <use xlink:href="#DejaVuSans-72" x="288.521484"/>
    </g>
    <!-- Runoff -->
    <g transform="translate(492.534918 532.6)scale(0.28 -0.28)">
     <use xlink:href="#DejaVuSans-52"/>
     <use xlink:href="#DejaVuSans-75" x="64.982422"/>
     <use xlink:href="#DejaVuSans-6e" x="128.361328"/>
     <use xlink:href="#DejaVuSans-6f" x="191.740234"/>
     <use xlink:href="#DejaVuSans-66" x="252.921875"/>
     <use xlink:href="#DejaVuSans-66" x="288.126953"/>
    </g>
   </g>
   <g id="text_20">
    <!-- Years with Less than Median -->
    <g transform="translate(56.830202 32.903)scale(0.28 -0.28)">
     <defs>
      <path id="DejaVuSans-59" d="M -13 4666 
L 666 4666 
L 1959 2747 
L 3244 4666 
L 3922 4666 
L 2272 2222 
L 2272 0 
L 1638 0 
L 1638 2222 
L -13 4666 
z
" transform="scale(0.015625)"/>
      <path id="DejaVuSans-61" d="M 2194 1759 
Q 1497 1759 1228 1600 
Q 959 1441 959 1056 
Q 959 750 1161 570 
Q 1363 391 1709 391 
Q 2188 391 2477 730 
Q 2766 1069 2766 1631 
L 2766 1759 
L 2194 1759 
z
M 3341 1997 
L 3341 0 
L 2766 0 
L 2766 531 
Q 2569 213 2275 61 
Q 1981 -91 1556 -91 
Q 1019 -91 701 211 
Q 384 513 384 1019 
Q 384 1609 779 1909 
Q 1175 2209 1959 2209 
L 2766 2209 
L 2766 2266 
Q 2766 2663 2505 2880 
Q 2244 3097 1772 3097 
Q 1472 3097 1187 3025 
Q 903 2953 641 2809 
L 641 3341 
Q 956 3463 1253 3523 
Q 1550 3584 1831 3584 
Q 2591 3584 2966 3190 
Q 3341 2797 3341 1997 
z
" transform="scale(0.015625)"/>
      <path id="DejaVuSans-73" d="M 2834 3397 
L 2834 2853 
Q 2591 2978 2328 3040 
Q 2066 3103 1784 3103 
Q 1356 3103 1142 2972 
Q 928 2841 928 2578 
Q 928 2378 1081 2264 
Q 1234 2150 1697 2047 
L 1894 2003 
Q 2506 1872 2764 1633 
Q 3022 1394 3022 966 
Q 3022 478 2636 193 
Q 2250 -91 1575 -91 
Q 1294 -91 989 -36 
Q 684 19 347 128 
L 347 722 
Q 666 556 975 473 
Q 1284 391 1588 391 
Q 1994 391 2212 530 
Q 2431 669 2431 922 
Q 2431 1156 2273 1281 
Q 2116 1406 1581 1522 
L 1381 1569 
Q 847 1681 609 1914 
Q 372 2147 372 2553 
Q 372 3047 722 3315 
Q 1072 3584 1716 3584 
Q 2034 3584 2315 3537 
Q 2597 3491 2834 3397 
z
" transform="scale(0.015625)"/>
      <path id="DejaVuSans-77" d="M 269 3500 
L 844 3500 
L 1563 769 
L 2278 3500 
L 2956 3500 
L 3675 769 
L 4391 3500 
L 4966 3500 
L 4050 0 
L 3372 0 
L 2619 2869 
L 1863 0 
L 1184 0 
L 269 3500 
z
" transform="scale(0.015625)"/>
      <path id="DejaVuSans-68" d="M 3513 2113 
L 3513 0 
L 2938 0 
L 2938 2094 
Q 2938 2591 2744 2837 
Q 2550 3084 2163 3084 
Q 1697 3084 1428 2787 
Q 1159 2491 1159 1978 
L 1159 0 
L 581 0 
L 581 4863 
L 1159 4863 
L 1159 2956 
Q 1366 3272 1645 3428 
Q 1925 3584 2291 3584 
Q 2894 3584 3203 3211 
Q 3513 2838 3513 2113 
z
" transform="scale(0.015625)"/>
      <path id="DejaVuSans-4c" d="M 628 4666 
L 1259 4666 
L 1259 531 
L 3531 531 
L 3531 0 
L 628 0 
L 628 4666 
z
" transform="scale(0.015625)"/>
      <path id="DejaVuSans-4d" d="M 628 4666 
L 1569 4666 
L 2759 1491 
L 3956 4666 
L 4897 4666 
L 4897 0 
L 4281 0 
L 4281 4097 
L 3078 897 
L 2444 897 
L 1241 4097 
L 1241 0 
L 628 0 
L 628 4666 
z
" transform="scale(0.015625)"/>
      <path id="DejaVuSans-64" d="M 2906 2969 
L 2906 4863 
L 3481 4863 
L 3481 0 
L 2906 0 
L 2906 525 
Q 2725 213 2448 61 
Q 2172 -91 1784 -91 
Q 1150 -91 751 415 
Q 353 922 353 1747 
Q 353 2572 751 3078 
Q 1150 3584 1784 3584 
Q 2172 3584 2448 3432 
Q 2725 3281 2906 2969 
z
M 947 1747 
Q 947 1113 1208 752 
Q 1469 391 1925 391 
Q 2381 391 2643 752 
Q 2906 1113 2906 1747 
Q 2906 2381 2643 2742 
Q 2381 3103 1925 3103 
Q 1469 3103 1208 2742 
Q 947 2381 947 1747 
z
" transform="scale(0.015625)"/>
     </defs>
     <use xlink:href="#DejaVuSans-59"/>
     <use xlink:href="#DejaVuSans-65" x="47.833984"/>
     <use xlink:href="#DejaVuSans-61" x="109.357422"/>
     <use xlink:href="#DejaVuSans-72" x="170.636719"/>
     <use xlink:href="#DejaVuSans-73" x="211.75"/>
     <use xlink:href="#DejaVuSans-20" x="263.849609"/>
     <use xlink:href="#DejaVuSans-77" x="295.636719"/>
     <use xlink:href="#DejaVuSans-69" x="377.423828"/>
     <use xlink:href="#DejaVuSans-74" x="405.207031"/>
     <use xlink:href="#DejaVuSans-68" x="444.416016"/>
     <use xlink:href="#DejaVuSans-20" x="507.794922"/>
     <use xlink:href="#DejaVuSans-4c" x="539.582031"/>
     <use xlink:href="#DejaVuSans-65" x="593.544922"/>
     <use xlink:href="#DejaVuSans-73" x="655.068359"/>
     <use xlink:href="#DejaVuSans-73" x="707.167969"/>
     <use xlink:href="#DejaVuSans-20" x="759.267578"/>
     <use xlink:href="#DejaVuSans-74" x="791.054688"/>
     <use xlink:href="#DejaVuSans-68" x="830.263672"/>
     <use xlink:href="#DejaVuSans-61" x="893.642578"/>
     <use xlink:href="#DejaVuSans-6e" x="954.921875"/>
     <use xlink:href="#DejaVuSans-20" x="1018.300781"/>
     <use xlink:href="#DejaVuSans-4d" x="1050.087891"/>
     <use xlink:href="#DejaVuSans-65" x="1136.367188"/>
     <use xlink:href="#DejaVuSans-64" x="1197.890625"/>
     <use xlink:href="#DejaVuSans-69" x="1261.367188"/>
     <use xlink:href="#DejaVuSans-61" x="1289.150391"/>
     <use xlink:href="#DejaVuSans-6e" x="1350.429688"/>
    </g>
    <!-- Summer Precipitation -->
    <g transform="translate(103.404264 64.256875)scale(0.28 -0.28)">
     <defs>
      <path id="DejaVuSans-63" d="M 3122 3366 
L 3122 2828 
Q 2878 2963 2633 3030 
Q 2388 3097 2138 3097 
Q 1578 3097 1268 2742 
Q 959 2388 959 1747 
Q 959 1106 1268 751 
Q 1578 397 2138 397 
Q 2388 397 2633 464 
Q 2878 531 3122 666 
L 3122 134 
Q 2881 22 2623 -34 
Q 2366 -91 2075 -91 
Q 1284 -91 818 406 
Q 353 903 353 1747 
Q 353 2603 823 3093 
Q 1294 3584 2113 3584 
Q 2378 3584 2631 3529 
Q 2884 3475 3122 3366 
z
" transform="scale(0.015625)"/>
      <path id="DejaVuSans-70" d="M 1159 525 
L 1159 -1331 
L 581 -1331 
L 581 3500 
L 1159 3500 
L 1159 2969 
Q 1341 3281 1617 3432 
Q 1894 3584 2278 3584 
Q 2916 3584 3314 3078 
Q 3713 2572 3713 1747 
Q 3713 922 3314 415 
Q 2916 -91 2278 -91 
Q 1894 -91 1617 61 
Q 1341 213 1159 525 
z
M 3116 1747 
Q 3116 2381 2855 2742 
Q 2594 3103 2138 3103 
Q 1681 3103 1420 2742 
Q 1159 2381 1159 1747 
Q 1159 1113 1420 752 
Q 1681 391 2138 391 
Q 2594 391 2855 752 
Q 3116 1113 3116 1747 
z
" transform="scale(0.015625)"/>
     </defs>
     <use xlink:href="#DejaVuSans-53"/>
     <use xlink:href="#DejaVuSans-75" x="63.476562"/>
     <use xlink:href="#DejaVuSans-6d" x="126.855469"/>
     <use xlink:href="#DejaVuSans-6d" x="224.267578"/>
     <use xlink:href="#DejaVuSans-65" x="321.679688"/>
     <use xlink:href="#DejaVuSans-72" x="383.203125"/>
     <use xlink:href="#DejaVuSans-20" x="424.316406"/>
     <use xlink:href="#DejaVuSans-50" x="456.103516"/>
     <use xlink:href="#DejaVuSans-72" x="514.65625"/>
     <use xlink:href="#DejaVuSans-65" x="553.519531"/>
     <use xlink:href="#DejaVuSans-63" x="615.042969"/>
     <use xlink:href="#DejaVuSans-69" x="670.023438"/>
     <use xlink:href="#DejaVuSans-70" x="697.806641"/>
     <use xlink:href="#DejaVuSans-69" x="761.283203"/>
     <use xlink:href="#DejaVuSans-74" x="789.066406"/>
     <use xlink:href="#DejaVuSans-61" x="828.275391"/>
     <use xlink:href="#DejaVuSans-74" x="889.554688"/>
     <use xlink:href="#DejaVuSans-69" x="928.763672"/>
     <use xlink:href="#DejaVuSans-6f" x="956.546875"/>
     <use xlink:href="#DejaVuSans-6e" x="1017.728516"/>
    </g>
   </g>
   <g id="legend_1">
    <g id="patch_2">
     <path d="M 203.22352 707.50054 
L 736.671645 707.50054 
Q 742.271645 707.50054 742.271645 701.90054 
L 742.271645 622.50304 
Q 742.271645 616.90304 736.671645 616.90304 
L 203.22352 616.90304 
Q 197.62352 616.90304 197.62352 622.50304 
L 197.62352 701.90054 
Q 197.62352 707.50054 203.22352 707.50054 
z
" style="fill: #ffffff; opacity: 0.8; stroke: #cccccc; stroke-linejoin: miter"/>
    </g>
    <g id="patch_3">
     <path d="M 208.82352 649.378665 
L 264.82352 649.378665 
L 264.82352 629.778665 
L 208.82352 629.778665 
z
" style="fill: #0000ff; fill-opacity: 0.5; stroke: #0000ff; stroke-opacity: 0.5; stroke-linejoin: miter"/>
    </g>
    <g id="text_21">
     <!-- Flux from Winter Precipitation -->
     <g transform="translate(287.22352 649.378665)scale(0.28 -0.28)">
      <defs>
       <path id="DejaVuSans-46" d="M 628 4666 
L 3309 4666 
L 3309 4134 
L 1259 4134 
L 1259 2759 
L 3109 2759 
L 3109 2228 
L 1259 2228 
L 1259 0 
L 628 0 
L 628 4666 
z
" transform="scale(0.015625)"/>
       <path id="DejaVuSans-6c" d="M 603 4863 
L 1178 4863 
L 1178 0 
L 603 0 
L 603 4863 
z
" transform="scale(0.015625)"/>
       <path id="DejaVuSans-78" d="M 3513 3500 
L 2247 1797 
L 3578 0 
L 2900 0 
L 1881 1375 
L 863 0 
L 184 0 
L 1544 1831 
L 300 3500 
L 978 3500 
L 1906 2253 
L 2834 3500 
L 3513 3500 
z
" transform="scale(0.015625)"/>
      </defs>
      <use xlink:href="#DejaVuSans-46"/>
      <use xlink:href="#DejaVuSans-6c" x="57.519531"/>
      <use xlink:href="#DejaVuSans-75" x="85.302734"/>
      <use xlink:href="#DejaVuSans-78" x="148.681641"/>
      <use xlink:href="#DejaVuSans-20" x="207.861328"/>
      <use xlink:href="#DejaVuSans-66" x="239.648438"/>
      <use xlink:href="#DejaVuSans-72" x="274.853516"/>
      <use xlink:href="#DejaVuSans-6f" x="313.716797"/>
      <use xlink:href="#DejaVuSans-6d" x="374.898438"/>
      <use xlink:href="#DejaVuSans-20" x="472.310547"/>
      <use xlink:href="#DejaVuSans-57" x="504.097656"/>
      <use xlink:href="#DejaVuSans-69" x="600.724609"/>
      <use xlink:href="#DejaVuSans-6e" x="628.507812"/>
      <use xlink:href="#DejaVuSans-74" x="691.886719"/>
      <use xlink:href="#DejaVuSans-65" x="731.095703"/>
      <use xlink:href="#DejaVuSans-72" x="792.619141"/>
      <use xlink:href="#DejaVuSans-20" x="833.732422"/>
      <use xlink:href="#DejaVuSans-50" x="865.519531"/>
      <use xlink:href="#DejaVuSans-72" x="924.072266"/>
      <use xlink:href="#DejaVuSans-65" x="962.935547"/>
      <use xlink:href="#DejaVuSans-63" x="1024.458984"/>
      <use xlink:href="#DejaVuSans-69" x="1079.439453"/>
      <use xlink:href="#DejaVuSans-70" x="1107.222656"/>
      <use xlink:href="#DejaVuSans-69" x="1170.699219"/>
      <use xlink:href="#DejaVuSans-74" x="1198.482422"/>
      <use xlink:href="#DejaVuSans-61" x="1237.691406"/>
      <use xlink:href="#DejaVuSans-74" x="1298.970703"/>
      <use xlink:href="#DejaVuSans-69" x="1338.179688"/>
      <use xlink:href="#DejaVuSans-6f" x="1365.962891"/>
      <use xlink:href="#DejaVuSans-6e" x="1427.144531"/>
     </g>
    </g>
    <g id="patch_4">
     <path d="M 208.82352 690.477415 
L 264.82352 690.477415 
L 264.82352 670.877415 
L 208.82352 670.877415 
z
" style="fill: #ffff00; fill-opacity: 0.5; stroke: #ffff00; stroke-opacity: 0.5; stroke-linejoin: miter"/>
    </g>
    <g id="text_22">
     <!-- Flux from Summer Precipitation -->
     <g transform="translate(287.22352 690.477415)scale(0.28 -0.28)">
      <use xlink:href="#DejaVuSans-46"/>
      <use xlink:href="#DejaVuSans-6c" x="57.519531"/>
      <use xlink:href="#DejaVuSans-75" x="85.302734"/>
      <use xlink:href="#DejaVuSans-78" x="148.681641"/>
      <use xlink:href="#DejaVuSans-20" x="207.861328"/>
      <use xlink:href="#DejaVuSans-66" x="239.648438"/>
      <use xlink:href="#DejaVuSans-72" x="274.853516"/>
      <use xlink:href="#DejaVuSans-6f" x="313.716797"/>
      <use xlink:href="#DejaVuSans-6d" x="374.898438"/>
      <use xlink:href="#DejaVuSans-20" x="472.310547"/>
      <use xlink:href="#DejaVuSans-53" x="504.097656"/>
      <use xlink:href="#DejaVuSans-75" x="567.574219"/>
      <use xlink:href="#DejaVuSans-6d" x="630.953125"/>
      <use xlink:href="#DejaVuSans-6d" x="728.365234"/>
      <use xlink:href="#DejaVuSans-65" x="825.777344"/>
      <use xlink:href="#DejaVuSans-72" x="887.300781"/>
      <use xlink:href="#DejaVuSans-20" x="928.414062"/>
      <use xlink:href="#DejaVuSans-50" x="960.201172"/>
      <use xlink:href="#DejaVuSans-72" x="1018.753906"/>
      <use xlink:href="#DejaVuSans-65" x="1057.617188"/>
      <use xlink:href="#DejaVuSans-63" x="1119.140625"/>
      <use xlink:href="#DejaVuSans-69" x="1174.121094"/>
      <use xlink:href="#DejaVuSans-70" x="1201.904297"/>
      <use xlink:href="#DejaVuSans-69" x="1265.380859"/>
      <use xlink:href="#DejaVuSans-74" x="1293.164062"/>
      <use xlink:href="#DejaVuSans-61" x="1332.373047"/>
      <use xlink:href="#DejaVuSans-74" x="1393.652344"/>
      <use xlink:href="#DejaVuSans-69" x="1432.861328"/>
      <use xlink:href="#DejaVuSans-6f" x="1460.644531"/>
      <use xlink:href="#DejaVuSans-6e" x="1521.826172"/>
     </g>
    </g>
   </g>
  </g>
  <g id="axes_2">
   <g id="PolyCollection_7">
    <defs>
     <path id="me8cd2935ee" d="M 703.478508 -220.295807 
L 703.478508 -120.124364 
L 725.29296 -120.124364 
L 747.107412 -120.124364 
L 768.921864 -120.124364 
L 790.736317 -120.124364 
L 812.550769 -120.124364 
L 834.365221 -120.124364 
L 856.179673 -120.124364 
L 877.994125 -120.124364 
L 899.808578 -120.124364 
L 921.62303 -120.124364 
L 943.437482 -120.124364 
L 965.251934 -120.124364 
L 987.066386 -120.124364 
L 1008.880838 -120.124364 
L 1030.695291 -120.124364 
L 1052.509743 -120.124364 
L 1074.324195 -120.124364 
L 1096.138647 -120.124364 
L 1117.953099 -120.124364 
L 1117.953099 -220.295807 
L 1117.953099 -220.295807 
L 1096.138647 -220.295807 
L 1074.324195 -220.295807 
L 1052.509743 -220.295807 
L 1030.695291 -220.295807 
L 1008.880838 -220.295807 
L 987.066386 -220.295807 
L 965.251934 -220.295807 
L 943.437482 -220.295807 
L 921.62303 -220.295807 
L 899.808578 -220.295807 
L 877.994125 -220.295807 
L 856.179673 -220.295807 
L 834.365221 -220.295807 
L 812.550769 -220.295807 
L 790.736317 -220.295807 
L 768.921864 -220.295807 
L 747.107412 -220.295807 
L 725.29296 -220.295807 
L 703.478508 -220.295807 
z
" style="stroke: #0000ff; stroke-opacity: 0.5"/>
    </defs>
    <g clip-path="url(#pe2737bb8fa)">
     <use xlink:href="#me8cd2935ee" x="0" y="720" style="fill: #0000ff; fill-opacity: 0.5; stroke: #0000ff; stroke-opacity: 0.5"/>
    </g>
   </g>
   <g id="PolyCollection_8">
    <defs>
     <path id="me16c3d8c8d" d="M 703.478508 -271.605847 
L 703.478508 -221.14912 
L 725.29296 -222.002432 
L 747.107412 -222.855744 
L 768.921864 -223.709057 
L 790.736317 -224.562369 
L 812.550769 -227.122306 
L 834.365221 -230.535555 
L 856.179673 -239.068678 
L 877.994125 -250.161738 
L 899.808578 -262.961422 
L 921.62303 -275.761107 
L 943.437482 -286.854167 
L 965.251934 -295.38729 
L 987.066386 -298.800539 
L 1008.880838 -301.360476 
L 1030.695291 -302.213788 
L 1052.509743 -303.067101 
L 1074.324195 -303.920413 
L 1096.138647 -304.773725 
L 1117.953099 -305.627037 
L 1117.953099 -356.083765 
L 1117.953099 -356.083765 
L 1096.138647 -355.230452 
L 1074.324195 -354.37714 
L 1052.509743 -353.523828 
L 1030.695291 -352.670516 
L 1008.880838 -351.817203 
L 987.066386 -349.257266 
L 965.251934 -345.844017 
L 943.437482 -337.310894 
L 921.62303 -326.217834 
L 899.808578 -313.41815 
L 877.994125 -300.618465 
L 856.179673 -289.525405 
L 834.365221 -280.992282 
L 812.550769 -277.579033 
L 790.736317 -275.019096 
L 768.921864 -274.165784 
L 747.107412 -273.312472 
L 725.29296 -272.459159 
L 703.478508 -271.605847 
z
" style="stroke: #0000ff; stroke-opacity: 0.5"/>
    </defs>
    <g clip-path="url(#pe2737bb8fa)">
     <use xlink:href="#me16c3d8c8d" x="0" y="720" style="fill: #0000ff; fill-opacity: 0.5; stroke: #0000ff; stroke-opacity: 0.5"/>
    </g>
   </g>
   <g id="PolyCollection_9">
    <defs>
     <path id="m1188e82630" d="M 703.478508 -288.508851 
L 703.478508 -272.177195 
L 725.29296 -273.601856 
L 747.107412 -275.026516 
L 768.921864 -276.451177 
L 790.736317 -277.875837 
L 812.550769 -282.149819 
L 834.365221 -287.848461 
L 856.179673 -302.095067 
L 877.994125 -320.615653 
L 899.808578 -341.985561 
L 921.62303 -363.35547 
L 943.437482 -381.876056 
L 965.251934 -396.122662 
L 987.066386 -401.821304 
L 1008.880838 -406.095286 
L 1030.695291 -407.519946 
L 1052.509743 -408.944607 
L 1074.324195 -410.369267 
L 1096.138647 -411.793928 
L 1117.953099 -413.218588 
L 1117.953099 -430.284834 
L 1117.953099 -430.284834 
L 1096.138647 -428.852754 
L 1074.324195 -427.420673 
L 1052.509743 -425.988592 
L 1030.695291 -424.556512 
L 1008.880838 -423.124431 
L 987.066386 -418.828189 
L 965.251934 -413.099867 
L 943.437482 -398.77906 
L 921.62303 -380.162012 
L 899.808578 -358.680802 
L 877.994125 -337.199593 
L 856.179673 -318.582544 
L 834.365221 -304.261738 
L 812.550769 -298.533415 
L 790.736317 -294.237173 
L 768.921864 -292.805093 
L 747.107412 -291.373012 
L 725.29296 -289.940931 
L 703.478508 -288.508851 
z
" style="stroke: #0000ff; stroke-opacity: 0.5"/>
    </defs>
    <g clip-path="url(#pe2737bb8fa)">
     <use xlink:href="#m1188e82630" x="0" y="720" style="fill: #0000ff; fill-opacity: 0.5; stroke: #0000ff; stroke-opacity: 0.5"/>
    </g>
   </g>
   <g id="PolyCollection_10">
    <defs>
     <path id="m89c96b0867" d="M 703.478508 -400.82701 
L 703.478508 -345.176207 
L 725.29296 -343.914789 
L 747.107412 -342.653371 
L 768.921864 -341.391953 
L 790.736317 -340.130535 
L 812.550769 -336.34628 
L 834.365221 -331.300607 
L 856.179673 -318.686426 
L 877.994125 -302.287989 
L 899.808578 -283.366717 
L 921.62303 -264.445444 
L 943.437482 -248.047007 
L 965.251934 -235.432826 
L 987.066386 -230.387153 
L 1008.880838 -226.602898 
L 1030.695291 -225.34148 
L 1052.509743 -224.080062 
L 1074.324195 -222.818644 
L 1096.138647 -221.557226 
L 1117.953099 -220.295807 
L 1117.953099 -275.94661 
L 1117.953099 -275.94661 
L 1096.138647 -277.208028 
L 1074.324195 -278.469446 
L 1052.509743 -279.730864 
L 1030.695291 -280.992282 
L 1008.880838 -282.253701 
L 987.066386 -286.037955 
L 965.251934 -291.083628 
L 943.437482 -303.69781 
L 921.62303 -320.096246 
L 899.808578 -339.017519 
L 877.994125 -357.938791 
L 856.179673 -374.337228 
L 834.365221 -386.95141 
L 812.550769 -391.997082 
L 790.736317 -395.781337 
L 768.921864 -397.042755 
L 747.107412 -398.304173 
L 725.29296 -399.565591 
L 703.478508 -400.82701 
z
" style="stroke: #ffff00; stroke-opacity: 0.5"/>
    </defs>
    <g clip-path="url(#pe2737bb8fa)">
     <use xlink:href="#m89c96b0867" x="0" y="720" style="fill: #ffff00; fill-opacity: 0.5; stroke: #ffff00; stroke-opacity: 0.5"/>
    </g>
   </g>
   <g id="PolyCollection_11">
    <defs>
     <path id="mc5029c5438" d="M 703.478508 -429.817367 
L 703.478508 -401.628381 
L 725.29296 -401.168335 
L 747.107412 -400.708288 
L 768.921864 -400.248241 
L 790.736317 -399.788195 
L 812.550769 -398.408055 
L 834.365221 -396.567868 
L 856.179673 -391.967402 
L 877.994125 -385.986796 
L 899.808578 -379.086096 
L 921.62303 -372.185397 
L 943.437482 -366.204791 
L 965.251934 -361.604324 
L 987.066386 -359.764138 
L 1008.880838 -358.383998 
L 1030.695291 -357.923951 
L 1052.509743 -357.463905 
L 1074.324195 -357.003858 
L 1096.138647 -356.543811 
L 1117.953099 -356.083765 
L 1117.953099 -383.53816 
L 1117.953099 -383.53816 
L 1096.138647 -384.005627 
L 1074.324195 -384.473094 
L 1052.509743 -384.940561 
L 1030.695291 -385.408027 
L 1008.880838 -385.875494 
L 987.066386 -387.277894 
L 965.251934 -389.147761 
L 943.437482 -393.822429 
L 921.62303 -399.899496 
L 899.808578 -406.911497 
L 877.994125 -413.923498 
L 856.179673 -420.000566 
L 834.365221 -424.675233 
L 812.550769 -426.5451 
L 790.736317 -427.947501 
L 768.921864 -428.414967 
L 747.107412 -428.882434 
L 725.29296 -429.349901 
L 703.478508 -429.817367 
z
" style="stroke: #ffff00; stroke-opacity: 0.5"/>
    </defs>
    <g clip-path="url(#pe2737bb8fa)">
     <use xlink:href="#mc5029c5438" x="0" y="720" style="fill: #ffff00; fill-opacity: 0.5; stroke: #ffff00; stroke-opacity: 0.5"/>
    </g>
   </g>
   <g id="PolyCollection_12">
    <defs>
     <path id="m99890c7a90" d="M 703.478508 -624.691636 
L 703.478508 -430.284834 
L 725.29296 -430.284834 
L 747.107412 -430.284834 
L 768.921864 -430.284834 
L 790.736317 -430.284834 
L 812.550769 -430.284834 
L 834.365221 -430.284834 
L 856.179673 -430.284834 
L 877.994125 -430.284834 
L 899.808578 -430.284834 
L 921.62303 -430.284834 
L 943.437482 -430.284834 
L 965.251934 -430.284834 
L 987.066386 -430.284834 
L 1008.880838 -430.284834 
L 1030.695291 -430.284834 
L 1052.509743 -430.284834 
L 1074.324195 -430.284834 
L 1096.138647 -430.284834 
L 1117.953099 -430.284834 
L 1117.953099 -624.691636 
L 1117.953099 -624.691636 
L 1096.138647 -624.691636 
L 1074.324195 -624.691636 
L 1052.509743 -624.691636 
L 1030.695291 -624.691636 
L 1008.880838 -624.691636 
L 987.066386 -624.691636 
L 965.251934 -624.691636 
L 943.437482 -624.691636 
L 921.62303 -624.691636 
L 899.808578 -624.691636 
L 877.994125 -624.691636 
L 856.179673 -624.691636 
L 834.365221 -624.691636 
L 812.550769 -624.691636 
L 790.736317 -624.691636 
L 768.921864 -624.691636 
L 747.107412 -624.691636 
L 725.29296 -624.691636 
L 703.478508 -624.691636 
z
" style="stroke: #ffff00; stroke-opacity: 0.5"/>
    </defs>
    <g clip-path="url(#pe2737bb8fa)">
     <use xlink:href="#m99890c7a90" x="0" y="720" style="fill: #ffff00; fill-opacity: 0.5; stroke: #ffff00; stroke-opacity: 0.5"/>
    </g>
   </g>
   <g id="text_23">
    <!-- Summer P -->
    <g transform="translate(703.478508 180.639594)scale(0.28 -0.28)">
     <use xlink:href="#DejaVuSans-53"/>
     <use xlink:href="#DejaVuSans-75" x="63.476562"/>
     <use xlink:href="#DejaVuSans-6d" x="126.855469"/>
     <use xlink:href="#DejaVuSans-6d" x="224.267578"/>
     <use xlink:href="#DejaVuSans-65" x="321.679688"/>
     <use xlink:href="#DejaVuSans-72" x="383.203125"/>
     <use xlink:href="#DejaVuSans-20" x="424.316406"/>
     <use xlink:href="#DejaVuSans-50" x="456.103516"/>
    </g>
   </g>
   <g id="text_24">
    <!-- 375 ± 12 mm -->
    <g transform="translate(703.478508 210.320021)scale(0.28 -0.28)">
     <use xlink:href="#DejaVuSans-33"/>
     <use xlink:href="#DejaVuSans-37" x="63.623047"/>
     <use xlink:href="#DejaVuSans-35" x="127.246094"/>
     <use xlink:href="#DejaVuSans-20" x="190.869141"/>
     <use xlink:href="#DejaVuSans-b1" x="222.65625"/>
     <use xlink:href="#DejaVuSans-20" x="306.445312"/>
     <use xlink:href="#DejaVuSans-31" x="338.232422"/>
     <use xlink:href="#DejaVuSans-32" x="401.855469"/>
     <use xlink:href="#DejaVuSans-20" x="465.478516"/>
     <use xlink:href="#DejaVuSans-6d" x="497.265625"/>
     <use xlink:href="#DejaVuSans-6d" x="594.677734"/>
    </g>
   </g>
   <g id="text_25">
    <!-- Winter P -->
    <g transform="translate(703.478508 543.111818)scale(0.28 -0.28)">
     <use xlink:href="#DejaVuSans-57"/>
     <use xlink:href="#DejaVuSans-69" x="96.626953"/>
     <use xlink:href="#DejaVuSans-6e" x="124.410156"/>
     <use xlink:href="#DejaVuSans-74" x="187.789062"/>
     <use xlink:href="#DejaVuSans-65" x="226.998047"/>
     <use xlink:href="#DejaVuSans-72" x="288.521484"/>
     <use xlink:href="#DejaVuSans-20" x="329.634766"/>
     <use xlink:href="#DejaVuSans-50" x="361.421875"/>
    </g>
   </g>
   <g id="text_26">
    <!-- 225 ± 11 mm -->
    <g transform="translate(703.478508 572.792246)scale(0.28 -0.28)">
     <use xlink:href="#DejaVuSans-32"/>
     <use xlink:href="#DejaVuSans-32" x="63.623047"/>
     <use xlink:href="#DejaVuSans-35" x="127.246094"/>
     <use xlink:href="#DejaVuSans-20" x="190.869141"/>
     <use xlink:href="#DejaVuSans-b1" x="222.65625"/>
     <use xlink:href="#DejaVuSans-20" x="306.445312"/>
     <use xlink:href="#DejaVuSans-31" x="338.232422"/>
     <use xlink:href="#DejaVuSans-31" x="401.855469"/>
     <use xlink:href="#DejaVuSans-20" x="465.478516"/>
     <use xlink:href="#DejaVuSans-6d" x="497.265625"/>
     <use xlink:href="#DejaVuSans-6d" x="594.677734"/>
    </g>
   </g>
   <g id="text_27">
    <!-- 262 ± 26 mm -->
    <g transform="translate(912.897249 152.814193)scale(0.28 -0.28)">
     <use xlink:href="#DejaVuSans-32"/>
     <use xlink:href="#DejaVuSans-36" x="63.623047"/>
     <use xlink:href="#DejaVuSans-32" x="127.246094"/>
     <use xlink:href="#DejaVuSans-20" x="190.869141"/>
     <use xlink:href="#DejaVuSans-b1" x="222.65625"/>
     <use xlink:href="#DejaVuSans-20" x="306.445312"/>
     <use xlink:href="#DejaVuSans-32" x="338.232422"/>
     <use xlink:href="#DejaVuSans-36" x="401.855469"/>
     <use xlink:href="#DejaVuSans-20" x="465.478516"/>
     <use xlink:href="#DejaVuSans-6d" x="497.265625"/>
     <use xlink:href="#DejaVuSans-6d" x="594.677734"/>
    </g>
   </g>
   <g id="text_28">
    <!-- 22 ± 16 mm -->
    <g transform="translate(930.348811 292.534806)scale(0.28 -0.28)">
     <use xlink:href="#DejaVuSans-32"/>
     <use xlink:href="#DejaVuSans-32" x="63.623047"/>
     <use xlink:href="#DejaVuSans-20" x="127.246094"/>
     <use xlink:href="#DejaVuSans-b1" x="159.033203"/>
     <use xlink:href="#DejaVuSans-20" x="242.822266"/>
     <use xlink:href="#DejaVuSans-31" x="274.609375"/>
     <use xlink:href="#DejaVuSans-36" x="338.232422"/>
     <use xlink:href="#DejaVuSans-20" x="401.855469"/>
     <use xlink:href="#DejaVuSans-6d" x="433.642578"/>
     <use xlink:href="#DejaVuSans-6d" x="531.054688"/>
    </g>
   </g>
   <g id="text_29">
    <!-- 38 ± 8 mm -->
    <g transform="translate(952.163263 359.835176)scale(0.28 -0.28)">
     <use xlink:href="#DejaVuSans-33"/>
     <use xlink:href="#DejaVuSans-38" x="63.623047"/>
     <use xlink:href="#DejaVuSans-20" x="127.246094"/>
     <use xlink:href="#DejaVuSans-b1" x="159.033203"/>
     <use xlink:href="#DejaVuSans-20" x="242.822266"/>
     <use xlink:href="#DejaVuSans-38" x="274.609375"/>
     <use xlink:href="#DejaVuSans-20" x="338.232422"/>
     <use xlink:href="#DejaVuSans-6d" x="370.019531"/>
     <use xlink:href="#DejaVuSans-6d" x="467.431641"/>
    </g>
   </g>
   <g id="text_30">
    <!-- 68 ± 4 mm -->
    <g transform="translate(952.163263 401.610379)scale(0.28 -0.28)">
     <use xlink:href="#DejaVuSans-36"/>
     <use xlink:href="#DejaVuSans-38" x="63.623047"/>
     <use xlink:href="#DejaVuSans-20" x="127.246094"/>
     <use xlink:href="#DejaVuSans-b1" x="159.033203"/>
     <use xlink:href="#DejaVuSans-20" x="242.822266"/>
     <use xlink:href="#DejaVuSans-34" x="274.609375"/>
     <use xlink:href="#DejaVuSans-20" x="338.232422"/>
     <use xlink:href="#DejaVuSans-6d" x="370.019531"/>
     <use xlink:href="#DejaVuSans-6d" x="467.431641"/>
    </g>
   </g>
   <g id="text_31">
    <!-- 75 ± 15 mm -->
    <g transform="translate(930.348811 477.443872)scale(0.28 -0.28)">
     <use xlink:href="#DejaVuSans-37"/>
     <use xlink:href="#DejaVuSans-35" x="63.623047"/>
     <use xlink:href="#DejaVuSans-20" x="127.246094"/>
     <use xlink:href="#DejaVuSans-b1" x="159.033203"/>
     <use xlink:href="#DejaVuSans-20" x="242.822266"/>
     <use xlink:href="#DejaVuSans-31" x="274.609375"/>
     <use xlink:href="#DejaVuSans-35" x="338.232422"/>
     <use xlink:href="#DejaVuSans-20" x="401.855469"/>
     <use xlink:href="#DejaVuSans-6d" x="433.642578"/>
     <use xlink:href="#DejaVuSans-6d" x="531.054688"/>
    </g>
   </g>
   <g id="text_32">
    <!-- 135 ± 9 mm -->
    <g transform="translate(930.348811 539.77277)scale(0.28 -0.28)">
     <defs>
      <path id="DejaVuSans-39" d="M 703 97 
L 703 672 
Q 941 559 1184 500 
Q 1428 441 1663 441 
Q 2288 441 2617 861 
Q 2947 1281 2994 2138 
Q 2813 1869 2534 1725 
Q 2256 1581 1919 1581 
Q 1219 1581 811 2004 
Q 403 2428 403 3163 
Q 403 3881 828 4315 
Q 1253 4750 1959 4750 
Q 2769 4750 3195 4129 
Q 3622 3509 3622 2328 
Q 3622 1225 3098 567 
Q 2575 -91 1691 -91 
Q 1453 -91 1209 -44 
Q 966 3 703 97 
z
M 1959 2075 
Q 2384 2075 2632 2365 
Q 2881 2656 2881 3163 
Q 2881 3666 2632 3958 
Q 2384 4250 1959 4250 
Q 1534 4250 1286 3958 
Q 1038 3666 1038 3163 
Q 1038 2656 1286 2365 
Q 1534 2075 1959 2075 
z
" transform="scale(0.015625)"/>
     </defs>
     <use xlink:href="#DejaVuSans-31"/>
     <use xlink:href="#DejaVuSans-33" x="63.623047"/>
     <use xlink:href="#DejaVuSans-35" x="127.246094"/>
     <use xlink:href="#DejaVuSans-20" x="190.869141"/>
     <use xlink:href="#DejaVuSans-b1" x="222.65625"/>
     <use xlink:href="#DejaVuSans-20" x="306.445312"/>
     <use xlink:href="#DejaVuSans-39" x="338.232422"/>
     <use xlink:href="#DejaVuSans-20" x="401.855469"/>
     <use xlink:href="#DejaVuSans-6d" x="433.642578"/>
     <use xlink:href="#DejaVuSans-6d" x="531.054688"/>
    </g>
   </g>
   <g id="text_33">
    <!-- 95 ± 10% -->
    <g transform="translate(1148.493333 180.639594)scale(0.28 -0.28)">
     <use xlink:href="#DejaVuSans-39"/>
     <use xlink:href="#DejaVuSans-35" x="63.623047"/>
     <use xlink:href="#DejaVuSans-20" x="127.246094"/>
     <use xlink:href="#DejaVuSans-b1" x="159.033203"/>
     <use xlink:href="#DejaVuSans-20" x="242.822266"/>
     <use xlink:href="#DejaVuSans-31" x="274.609375"/>
     <use xlink:href="#DejaVuSans-30" x="338.232422"/>
     <use xlink:href="#DejaVuSans-25" x="401.855469"/>
    </g>
   </g>
   <g id="text_34">
    <!-- 5 ± 10% -->
    <g transform="translate(1148.493333 210.320021)scale(0.28 -0.28)">
     <use xlink:href="#DejaVuSans-35"/>
     <use xlink:href="#DejaVuSans-20" x="63.623047"/>
     <use xlink:href="#DejaVuSans-b1" x="95.410156"/>
     <use xlink:href="#DejaVuSans-20" x="179.199219"/>
     <use xlink:href="#DejaVuSans-31" x="210.986328"/>
     <use xlink:href="#DejaVuSans-30" x="274.609375"/>
     <use xlink:href="#DejaVuSans-25" x="338.232422"/>
    </g>
   </g>
   <g id="text_35">
    <!-- 40 ± 5% -->
    <g transform="translate(1148.493333 397.306717)scale(0.28 -0.28)">
     <use xlink:href="#DejaVuSans-34"/>
     <use xlink:href="#DejaVuSans-30" x="63.623047"/>
     <use xlink:href="#DejaVuSans-20" x="127.246094"/>
     <use xlink:href="#DejaVuSans-b1" x="159.033203"/>
     <use xlink:href="#DejaVuSans-20" x="242.822266"/>
     <use xlink:href="#DejaVuSans-35" x="274.609375"/>
     <use xlink:href="#DejaVuSans-25" x="338.232422"/>
    </g>
   </g>
   <g id="text_36">
    <!-- 60 ± 5% -->
    <g transform="translate(1148.493333 426.987144)scale(0.28 -0.28)">
     <use xlink:href="#DejaVuSans-36"/>
     <use xlink:href="#DejaVuSans-30" x="63.623047"/>
     <use xlink:href="#DejaVuSans-20" x="127.246094"/>
     <use xlink:href="#DejaVuSans-b1" x="159.033203"/>
     <use xlink:href="#DejaVuSans-20" x="242.822266"/>
     <use xlink:href="#DejaVuSans-35" x="274.609375"/>
     <use xlink:href="#DejaVuSans-25" x="338.232422"/>
    </g>
   </g>
   <g id="text_37">
    <!-- 30 ± 5% -->
    <g transform="translate(1148.493333 551.644941)scale(0.28 -0.28)">
     <use xlink:href="#DejaVuSans-33"/>
     <use xlink:href="#DejaVuSans-30" x="63.623047"/>
     <use xlink:href="#DejaVuSans-20" x="127.246094"/>
     <use xlink:href="#DejaVuSans-b1" x="159.033203"/>
     <use xlink:href="#DejaVuSans-20" x="242.822266"/>
     <use xlink:href="#DejaVuSans-35" x="274.609375"/>
     <use xlink:href="#DejaVuSans-25" x="338.232422"/>
    </g>
   </g>
   <g id="text_38">
    <!-- 70 ± 5% -->
    <g transform="translate(1148.493333 581.325369)scale(0.28 -0.28)">
     <use xlink:href="#DejaVuSans-37"/>
     <use xlink:href="#DejaVuSans-30" x="63.623047"/>
     <use xlink:href="#DejaVuSans-20" x="127.246094"/>
     <use xlink:href="#DejaVuSans-b1" x="159.033203"/>
     <use xlink:href="#DejaVuSans-20" x="242.822266"/>
     <use xlink:href="#DejaVuSans-35" x="274.609375"/>
     <use xlink:href="#DejaVuSans-25" x="338.232422"/>
    </g>
   </g>
   <g id="text_39">
    <!-- ET -->
    <g transform="translate(1148.493333 150.959166)scale(0.28 -0.28)">
     <use xlink:href="#DejaVuSans-45"/>
     <use xlink:href="#DejaVuSans-54" x="63.183594"/>
    </g>
   </g>
   <g id="text_40">
    <!-- Summer -->
    <g transform="translate(1148.493333 336.272414)scale(0.28 -0.28)">
     <use xlink:href="#DejaVuSans-53"/>
     <use xlink:href="#DejaVuSans-75" x="63.476562"/>
     <use xlink:href="#DejaVuSans-6d" x="126.855469"/>
     <use xlink:href="#DejaVuSans-6d" x="224.267578"/>
     <use xlink:href="#DejaVuSans-65" x="321.679688"/>
     <use xlink:href="#DejaVuSans-72" x="383.203125"/>
    </g>
    <!-- Runoff -->
    <g transform="translate(1148.493333 367.626289)scale(0.28 -0.28)">
     <use xlink:href="#DejaVuSans-52"/>
     <use xlink:href="#DejaVuSans-75" x="64.982422"/>
     <use xlink:href="#DejaVuSans-6e" x="128.361328"/>
     <use xlink:href="#DejaVuSans-6f" x="191.740234"/>
     <use xlink:href="#DejaVuSans-66" x="252.921875"/>
     <use xlink:href="#DejaVuSans-66" x="288.126953"/>
    </g>
   </g>
   <g id="text_41">
    <!-- Winter -->
    <g transform="translate(1148.493333 490.610638)scale(0.28 -0.28)">
     <use xlink:href="#DejaVuSans-57"/>
     <use xlink:href="#DejaVuSans-69" x="96.626953"/>
     <use xlink:href="#DejaVuSans-6e" x="124.410156"/>
     <use xlink:href="#DejaVuSans-74" x="187.789062"/>
     <use xlink:href="#DejaVuSans-65" x="226.998047"/>
     <use xlink:href="#DejaVuSans-72" x="288.521484"/>
    </g>
    <!-- Runoff -->
    <g transform="translate(1148.493333 521.964513)scale(0.28 -0.28)">
     <use xlink:href="#DejaVuSans-52"/>
     <use xlink:href="#DejaVuSans-75" x="64.982422"/>
     <use xlink:href="#DejaVuSans-6e" x="128.361328"/>
     <use xlink:href="#DejaVuSans-6f" x="191.740234"/>
     <use xlink:href="#DejaVuSans-66" x="252.921875"/>
     <use xlink:href="#DejaVuSans-66" x="288.126953"/>
    </g>
   </g>
   <g id="text_42">
    <!-- Years with Higher than Median -->
    <g transform="translate(696.997054 32.903)scale(0.28 -0.28)">
     <defs>
      <path id="DejaVuSans-48" d="M 628 4666 
L 1259 4666 
L 1259 2753 
L 3553 2753 
L 3553 4666 
L 4184 4666 
L 4184 0 
L 3553 0 
L 3553 2222 
L 1259 2222 
L 1259 0 
L 628 0 
L 628 4666 
z
" transform="scale(0.015625)"/>
      <path id="DejaVuSans-67" d="M 2906 1791 
Q 2906 2416 2648 2759 
Q 2391 3103 1925 3103 
Q 1463 3103 1205 2759 
Q 947 2416 947 1791 
Q 947 1169 1205 825 
Q 1463 481 1925 481 
Q 2391 481 2648 825 
Q 2906 1169 2906 1791 
z
M 3481 434 
Q 3481 -459 3084 -895 
Q 2688 -1331 1869 -1331 
Q 1566 -1331 1297 -1286 
Q 1028 -1241 775 -1147 
L 775 -588 
Q 1028 -725 1275 -790 
Q 1522 -856 1778 -856 
Q 2344 -856 2625 -561 
Q 2906 -266 2906 331 
L 2906 616 
Q 2728 306 2450 153 
Q 2172 0 1784 0 
Q 1141 0 747 490 
Q 353 981 353 1791 
Q 353 2603 747 3093 
Q 1141 3584 1784 3584 
Q 2172 3584 2450 3431 
Q 2728 3278 2906 2969 
L 2906 3500 
L 3481 3500 
L 3481 434 
z
" transform="scale(0.015625)"/>
     </defs>
     <use xlink:href="#DejaVuSans-59"/>
     <use xlink:href="#DejaVuSans-65" x="47.833984"/>
     <use xlink:href="#DejaVuSans-61" x="109.357422"/>
     <use xlink:href="#DejaVuSans-72" x="170.636719"/>
     <use xlink:href="#DejaVuSans-73" x="211.75"/>
     <use xlink:href="#DejaVuSans-20" x="263.849609"/>
     <use xlink:href="#DejaVuSans-77" x="295.636719"/>
     <use xlink:href="#DejaVuSans-69" x="377.423828"/>
     <use xlink:href="#DejaVuSans-74" x="405.207031"/>
     <use xlink:href="#DejaVuSans-68" x="444.416016"/>
     <use xlink:href="#DejaVuSans-20" x="507.794922"/>
     <use xlink:href="#DejaVuSans-48" x="539.582031"/>
     <use xlink:href="#DejaVuSans-69" x="614.777344"/>
     <use xlink:href="#DejaVuSans-67" x="642.560547"/>
     <use xlink:href="#DejaVuSans-68" x="706.037109"/>
     <use xlink:href="#DejaVuSans-65" x="769.416016"/>
     <use xlink:href="#DejaVuSans-72" x="830.939453"/>
     <use xlink:href="#DejaVuSans-20" x="872.052734"/>
     <use xlink:href="#DejaVuSans-74" x="903.839844"/>
     <use xlink:href="#DejaVuSans-68" x="943.048828"/>
     <use xlink:href="#DejaVuSans-61" x="1006.427734"/>
     <use xlink:href="#DejaVuSans-6e" x="1067.707031"/>
     <use xlink:href="#DejaVuSans-20" x="1131.085938"/>
     <use xlink:href="#DejaVuSans-4d" x="1162.873047"/>
     <use xlink:href="#DejaVuSans-65" x="1249.152344"/>
     <use xlink:href="#DejaVuSans-64" x="1310.675781"/>
     <use xlink:href="#DejaVuSans-69" x="1374.152344"/>
     <use xlink:href="#DejaVuSans-61" x="1401.935547"/>
     <use xlink:href="#DejaVuSans-6e" x="1463.214844"/>
    </g>
    <!-- Summer Precipitation -->
    <g transform="translate(759.362679 64.256875)scale(0.28 -0.28)">
     <use xlink:href="#DejaVuSans-53"/>
     <use xlink:href="#DejaVuSans-75" x="63.476562"/>
     <use xlink:href="#DejaVuSans-6d" x="126.855469"/>
     <use xlink:href="#DejaVuSans-6d" x="224.267578"/>
     <use xlink:href="#DejaVuSans-65" x="321.679688"/>
     <use xlink:href="#DejaVuSans-72" x="383.203125"/>
     <use xlink:href="#DejaVuSans-20" x="424.316406"/>
     <use xlink:href="#DejaVuSans-50" x="456.103516"/>
     <use xlink:href="#DejaVuSans-72" x="514.65625"/>
     <use xlink:href="#DejaVuSans-65" x="553.519531"/>
     <use xlink:href="#DejaVuSans-63" x="615.042969"/>
     <use xlink:href="#DejaVuSans-69" x="670.023438"/>
     <use xlink:href="#DejaVuSans-70" x="697.806641"/>
     <use xlink:href="#DejaVuSans-69" x="761.283203"/>
     <use xlink:href="#DejaVuSans-74" x="789.066406"/>
     <use xlink:href="#DejaVuSans-61" x="828.275391"/>
     <use xlink:href="#DejaVuSans-74" x="889.554688"/>
     <use xlink:href="#DejaVuSans-69" x="928.763672"/>
     <use xlink:href="#DejaVuSans-6f" x="956.546875"/>
     <use xlink:href="#DejaVuSans-6e" x="1017.728516"/>
    </g>
   </g>
  </g>
 </g>
 <defs>
  <clipPath id="p2651918df5">
   <rect x="26.796364" y="70.08" width="455.922051" height="555.024"/>
  </clipPath>
  <clipPath id="pe2737bb8fa">
   <rect x="682.754778" y="70.08" width="455.922051" height="555.024"/>
  </clipPath>
 </defs>
</svg>
