<?xml version="1.0" encoding="utf-8" standalone="no"?>
<!DOCTYPE svg PUBLIC "-//W3C//DTD SVG 1.1//EN"
  "http://www.w3.org/Graphics/SVG/1.1/DTD/svg11.dtd">
<svg xmlns:xlink="http://www.w3.org/1999/xlink" width="360pt" height="432pt" viewBox="0 0 360 432" xmlns="http://www.w3.org/2000/svg" version="1.1">
 <metadata>
  <rdf:RDF xmlns:dc="http://purl.org/dc/elements/1.1/" xmlns:cc="http://creativecommons.org/ns#" xmlns:rdf="http://www.w3.org/1999/02/22-rdf-syntax-ns#">
   <cc:Work>
    <dc:type rdf:resource="http://purl.org/dc/dcmitype/StillImage"/>
    <dc:date>2023-07-30T14:58:54.009344</dc:date>
    <dc:format>image/svg+xml</dc:format>
    <dc:creator>
     <cc:Agent>
      <dc:title>Matplotlib v3.5.2, https://matplotlib.org/</dc:title>
     </cc:Agent>
    </dc:creator>
   </cc:Work>
  </rdf:RDF>
 </metadata>
 <defs>
  <style type="text/css">*{stroke-linejoin: round; stroke-linecap: butt}</style>
 </defs>
 <g id="figure_1">
  <g id="patch_1">
   <path d="M 0 432 
L 360 432 
L 360 0 
L 0 0 
z
" style="fill: #ffffff"/>
  </g>
  <g id="axes_1">
   <g id="patch_2">
    <path d="M 82.8 280.8 
L 324 280.8 
L 324 51.84 
L 82.8 51.84 
z
" style="fill: #ffffff"/>
   </g>
   <g id="PolyCollection_1">
    <defs>
     <path id="m708835bf20" d="M 93.763636 -218.405891 
L 93.763636 -169.43959 
L 97.418182 -172.323174 
L 101.072727 -175.142466 
L 104.727273 -178.145656 
L 108.381818 -181.088414 
L 112.036364 -184.039989 
L 115.690909 -186.866304 
L 119.345455 -189.735558 
L 123 -192.573721 
L 126.654545 -195.182102 
L 130.309091 -197.694195 
L 133.963636 -200.222134 
L 137.618182 -202.779817 
L 141.272727 -205.314769 
L 144.927273 -207.829962 
L 148.581818 -210.383117 
L 152.236364 -212.901757 
L 155.890909 -215.407125 
L 159.545455 -218.038102 
L 163.2 -220.406698 
L 166.854545 -222.869128 
L 170.509091 -225.434894 
L 174.163636 -227.980844 
L 177.818182 -230.535068 
L 181.472727 -233.054863 
L 185.127273 -235.556408 
L 188.781818 -238.287241 
L 192.436364 -240.715341 
L 196.090909 -243.205117 
L 199.745455 -245.652607 
L 203.4 -248.194934 
L 207.054545 -250.689177 
L 210.709091 -253.139262 
L 214.363636 -255.273064 
L 218.018182 -257.411585 
L 221.672727 -259.443449 
L 225.327273 -261.412122 
L 228.981818 -263.170875 
L 232.636364 -264.914305 
L 236.290909 -266.559259 
L 239.945455 -268.002584 
L 243.6 -269.175368 
L 247.254545 -270.31725 
L 250.909091 -271.440869 
L 254.563636 -272.530146 
L 258.218182 -273.45276 
L 261.872727 -274.409006 
L 265.527273 -275.212945 
L 269.181818 -276.073175 
L 272.836364 -276.872231 
L 276.490909 -277.478454 
L 280.145455 -278.080373 
L 283.8 -278.165279 
L 287.454545 -278.25931 
L 291.109091 -278.442057 
L 294.763636 -278.520991 
L 298.418182 -278.301429 
L 302.072727 -278.017605 
L 305.727273 -277.550457 
L 309.381818 -277.042065 
L 313.036364 -275.846046 
L 313.036364 -378.853377 
L 313.036364 -378.853377 
L 309.381818 -372.691577 
L 305.727273 -366.551346 
L 302.072727 -360.626676 
L 298.418182 -354.666836 
L 294.763636 -348.001955 
L 291.109091 -342.755138 
L 287.454545 -337.464992 
L 283.8 -332.40137 
L 280.145455 -327.652466 
L 276.490909 -322.90143 
L 272.836364 -318.66419 
L 269.181818 -314.840923 
L 265.527273 -311.222793 
L 261.872727 -307.475702 
L 258.218182 -303.340079 
L 254.563636 -299.957089 
L 250.909091 -296.595005 
L 247.254545 -293.042015 
L 243.6 -290.022667 
L 239.945455 -287.369143 
L 236.290909 -284.388171 
L 232.636364 -281.894371 
L 228.981818 -279.551357 
L 225.327273 -277.647765 
L 221.672727 -275.558076 
L 218.018182 -273.565449 
L 214.363636 -271.759845 
L 210.709091 -270.102945 
L 207.054545 -268.424005 
L 203.4 -266.732236 
L 199.745455 -265.10144 
L 196.090909 -263.60919 
L 192.436364 -262.049563 
L 188.781818 -260.609484 
L 185.127273 -259.069526 
L 181.472727 -257.46395 
L 177.818182 -255.912685 
L 174.163636 -254.333359 
L 170.509091 -252.786715 
L 166.854545 -251.229966 
L 163.2 -249.627247 
L 159.545455 -247.981888 
L 155.890909 -246.456618 
L 152.236364 -244.814921 
L 148.581818 -243.300446 
L 144.927273 -241.77796 
L 141.272727 -240.239095 
L 137.618182 -238.625448 
L 133.963636 -237.083878 
L 130.309091 -235.48928 
L 126.654545 -233.833647 
L 123 -232.16842 
L 119.345455 -230.533771 
L 115.690909 -228.878401 
L 112.036364 -227.132302 
L 108.381818 -225.382242 
L 104.727273 -223.564933 
L 101.072727 -222.020119 
L 97.418182 -220.11792 
L 93.763636 -218.405891 
z
" style="stroke: #ffff00"/>
    </defs>
    <g clip-path="url(#p65c1d231ca)">
     <use xlink:href="#m708835bf20" x="0" y="432" style="fill: #ffff00; stroke: #ffff00"/>
    </g>
   </g>
   <g id="PolyCollection_2">
    <defs>
     <path id="m0d0fbcd1d4" d="M 93.763636 -215.706058 
L 93.763636 -174.730311 
L 97.418182 -177.623177 
L 101.072727 -180.159031 
L 104.727273 -182.647176 
L 108.381818 -185.377927 
L 112.036364 -187.953008 
L 115.690909 -190.508741 
L 119.345455 -193.14391 
L 123 -195.801172 
L 126.654545 -198.416876 
L 130.309091 -200.885964 
L 133.963636 -203.425546 
L 137.618182 -205.939481 
L 141.272727 -208.369533 
L 144.927273 -210.827076 
L 148.581818 -213.299717 
L 152.236364 -215.782021 
L 155.890909 -218.241817 
L 159.545455 -220.705191 
L 163.2 -223.095953 
L 166.854545 -225.493732 
L 170.509091 -227.905182 
L 174.163636 -230.280051 
L 177.818182 -232.689573 
L 181.472727 -235.113429 
L 185.127273 -237.52007 
L 188.781818 -240.028797 
L 192.436364 -242.44649 
L 196.090909 -245.015837 
L 199.745455 -247.471579 
L 203.4 -249.90041 
L 207.054545 -252.240481 
L 210.709091 -254.492366 
L 214.363636 -256.667638 
L 218.018182 -258.830398 
L 221.672727 -260.775572 
L 225.327273 -262.737705 
L 228.981818 -264.45535 
L 232.636364 -266.146404 
L 236.290909 -267.74549 
L 239.945455 -269.393871 
L 243.6 -270.878827 
L 247.254545 -272.189804 
L 250.909091 -273.416136 
L 254.563636 -274.59063 
L 258.218182 -275.701957 
L 261.872727 -276.703575 
L 265.527273 -277.670726 
L 269.181818 -278.539991 
L 272.836364 -279.287284 
L 276.490909 -280.250407 
L 280.145455 -281.05805 
L 283.8 -281.711825 
L 287.454545 -282.339187 
L 291.109091 -282.953896 
L 294.763636 -283.578653 
L 298.418182 -284.025141 
L 302.072727 -284.468809 
L 305.727273 -284.907793 
L 309.381818 -285.079071 
L 313.036364 -284.587995 
L 313.036364 -354.900573 
L 313.036364 -354.900573 
L 309.381818 -350.563148 
L 305.727273 -346.096661 
L 302.072727 -341.758361 
L 298.418182 -337.793379 
L 294.763636 -333.842376 
L 291.109091 -329.893369 
L 287.454545 -325.583715 
L 283.8 -321.540867 
L 280.145455 -317.58532 
L 276.490909 -313.951543 
L 272.836364 -310.298299 
L 269.181818 -307.239721 
L 265.527273 -304.189926 
L 261.872727 -301.239418 
L 258.218182 -297.928597 
L 254.563636 -295.053159 
L 250.909091 -291.953263 
L 247.254545 -289.188437 
L 243.6 -286.721709 
L 239.945455 -284.489749 
L 236.290909 -282.416251 
L 232.636364 -280.022701 
L 228.981818 -277.777688 
L 225.327273 -275.872639 
L 221.672727 -274.002845 
L 218.018182 -272.195387 
L 214.363636 -270.526774 
L 210.709091 -268.853555 
L 207.054545 -267.238833 
L 203.4 -265.630917 
L 199.745455 -264.013338 
L 196.090909 -262.416707 
L 192.436364 -260.830987 
L 188.781818 -259.263726 
L 185.127273 -257.686366 
L 181.472727 -256.051915 
L 177.818182 -254.457947 
L 174.163636 -252.922161 
L 170.509091 -251.377875 
L 166.854545 -249.828109 
L 163.2 -248.200113 
L 159.545455 -246.674857 
L 155.890909 -245.036524 
L 152.236364 -243.337384 
L 148.581818 -241.645836 
L 144.927273 -239.96754 
L 141.272727 -238.32242 
L 137.618182 -236.736839 
L 133.963636 -235.039304 
L 130.309091 -233.335764 
L 126.654545 -231.635932 
L 123 -230.0336 
L 119.345455 -228.227321 
L 115.690909 -226.595904 
L 112.036364 -224.812463 
L 108.381818 -223.009011 
L 104.727273 -221.287162 
L 101.072727 -219.443791 
L 97.418182 -217.520339 
L 93.763636 -215.706058 
z
" style="stroke: #008000"/>
    </defs>
    <g clip-path="url(#p65c1d231ca)">
     <use xlink:href="#m0d0fbcd1d4" x="0" y="432" style="fill: #008000; stroke: #008000"/>
    </g>
   </g>
   <g id="PolyCollection_3">
    <defs>
     <path id="mb471b84bf8" d="M 93.763636 -212.210586 
L 93.763636 -179.79656 
L 97.418182 -182.556919 
L 101.072727 -185.035612 
L 104.727273 -187.574255 
L 108.381818 -190.173826 
L 112.036364 -192.788409 
L 115.690909 -195.237763 
L 119.345455 -197.687159 
L 123 -199.961616 
L 126.654545 -202.338941 
L 130.309091 -204.769523 
L 133.963636 -207.248152 
L 137.618182 -209.725368 
L 141.272727 -212.046811 
L 144.927273 -214.36675 
L 148.581818 -216.762246 
L 152.236364 -219.093313 
L 155.890909 -221.547191 
L 159.545455 -223.912431 
L 163.2 -226.213341 
L 166.854545 -228.624887 
L 170.509091 -230.892042 
L 174.163636 -233.270162 
L 177.818182 -235.650459 
L 181.472727 -237.893267 
L 185.127273 -240.250534 
L 188.781818 -242.519898 
L 192.436364 -244.89003 
L 196.090909 -247.178619 
L 199.745455 -249.422505 
L 203.4 -251.726539 
L 207.054545 -253.949603 
L 210.709091 -256.136283 
L 214.363636 -258.263917 
L 218.018182 -260.296591 
L 221.672727 -262.198604 
L 225.327273 -264.040258 
L 228.981818 -265.832994 
L 232.636364 -267.543923 
L 236.290909 -269.180698 
L 239.945455 -270.698512 
L 243.6 -272.313452 
L 247.254545 -273.730143 
L 250.909091 -275.167902 
L 254.563636 -276.489699 
L 258.218182 -277.719877 
L 261.872727 -278.866682 
L 265.527273 -280.056069 
L 269.181818 -281.185596 
L 272.836364 -282.284109 
L 276.490909 -283.26924 
L 280.145455 -284.197579 
L 283.8 -285.048735 
L 287.454545 -285.911601 
L 291.109091 -286.788541 
L 294.763636 -287.735837 
L 298.418182 -288.503862 
L 302.072727 -289.23444 
L 305.727273 -289.780977 
L 309.381818 -290.397983 
L 313.036364 -291.047466 
L 313.036364 -333.841617 
L 313.036364 -333.841617 
L 309.381818 -331.259699 
L 305.727273 -328.123929 
L 302.072727 -325.219493 
L 298.418182 -322.368546 
L 294.763636 -319.765524 
L 291.109091 -317.005862 
L 287.454545 -313.971035 
L 283.8 -311.331956 
L 280.145455 -308.620284 
L 276.490909 -305.996507 
L 272.836364 -303.272601 
L 269.181818 -300.636987 
L 265.527273 -298.033357 
L 261.872727 -295.511541 
L 258.218182 -293.140788 
L 254.563636 -290.85605 
L 250.909091 -288.561801 
L 247.254545 -286.319271 
L 243.6 -284.11087 
L 239.945455 -281.980182 
L 236.290909 -279.8458 
L 232.636364 -278.030633 
L 228.981818 -275.977926 
L 225.327273 -274.18137 
L 221.672727 -272.310557 
L 218.018182 -270.76343 
L 214.363636 -269.001375 
L 210.709091 -267.266252 
L 207.054545 -265.583529 
L 203.4 -263.980942 
L 199.745455 -262.429715 
L 196.090909 -260.823571 
L 192.436364 -259.228001 
L 188.781818 -257.617686 
L 185.127273 -256.04217 
L 181.472727 -254.400706 
L 177.818182 -252.84949 
L 174.163636 -251.223451 
L 170.509091 -249.544709 
L 166.854545 -247.87938 
L 163.2 -246.263294 
L 159.545455 -244.548114 
L 155.890909 -242.854235 
L 152.236364 -241.156867 
L 148.581818 -239.466853 
L 144.927273 -237.774671 
L 141.272727 -236.061658 
L 137.618182 -234.335169 
L 133.963636 -232.583389 
L 130.309091 -230.801093 
L 126.654545 -229.015946 
L 123 -227.244011 
L 119.345455 -225.382047 
L 115.690909 -223.522206 
L 112.036364 -221.713212 
L 108.381818 -219.825326 
L 104.727273 -217.917688 
L 101.072727 -216.040299 
L 97.418182 -214.116398 
L 93.763636 -212.210586 
z
" style="stroke: #0000ff"/>
    </defs>
    <g clip-path="url(#p65c1d231ca)">
     <use xlink:href="#mb471b84bf8" x="0" y="432" style="fill: #0000ff; stroke: #0000ff"/>
    </g>
   </g>
   <g id="matplotlib.axis_1">
    <g id="xtick_1">
     <g id="line2d_1">
      <path d="M 112.036364 280.8 
L 112.036364 51.84 
" clip-path="url(#p65c1d231ca)" style="fill: none; stroke: #b0b0b0; stroke-width: 0.8; stroke-linecap: square"/>
     </g>
     <g id="line2d_2">
      <defs>
       <path id="mc7e536e96d" d="M 0 0 
L 0 3.5 
" style="stroke: #000000; stroke-width: 0.8"/>
      </defs>
      <g>
       <use xlink:href="#mc7e536e96d" x="112.036364" y="280.8" style="stroke: #000000; stroke-width: 0.8"/>
      </g>
     </g>
     <g id="text_1">
      <!-- 500 -->
      <g transform="translate(102.492614 295.398438)scale(0.1 -0.1)">
       <defs>
        <path id="DejaVuSans-35" d="M 691 4666 
L 3169 4666 
L 3169 4134 
L 1269 4134 
L 1269 2991 
Q 1406 3038 1543 3061 
Q 1681 3084 1819 3084 
Q 2600 3084 3056 2656 
Q 3513 2228 3513 1497 
Q 3513 744 3044 326 
Q 2575 -91 1722 -91 
Q 1428 -91 1123 -41 
Q 819 9 494 109 
L 494 744 
Q 775 591 1075 516 
Q 1375 441 1709 441 
Q 2250 441 2565 725 
Q 2881 1009 2881 1497 
Q 2881 1984 2565 2268 
Q 2250 2553 1709 2553 
Q 1456 2553 1204 2497 
Q 953 2441 691 2322 
L 691 4666 
z
" transform="scale(0.015625)"/>
        <path id="DejaVuSans-30" d="M 2034 4250 
Q 1547 4250 1301 3770 
Q 1056 3291 1056 2328 
Q 1056 1369 1301 889 
Q 1547 409 2034 409 
Q 2525 409 2770 889 
Q 3016 1369 3016 2328 
Q 3016 3291 2770 3770 
Q 2525 4250 2034 4250 
z
M 2034 4750 
Q 2819 4750 3233 4129 
Q 3647 3509 3647 2328 
Q 3647 1150 3233 529 
Q 2819 -91 2034 -91 
Q 1250 -91 836 529 
Q 422 1150 422 2328 
Q 422 3509 836 4129 
Q 1250 4750 2034 4750 
z
" transform="scale(0.015625)"/>
       </defs>
       <use xlink:href="#DejaVuSans-35"/>
       <use xlink:href="#DejaVuSans-30" x="63.623047"/>
       <use xlink:href="#DejaVuSans-30" x="127.246094"/>
      </g>
     </g>
    </g>
    <g id="xtick_2">
     <g id="line2d_3">
      <path d="M 148.581818 280.8 
L 148.581818 51.84 
" clip-path="url(#p65c1d231ca)" style="fill: none; stroke: #b0b0b0; stroke-width: 0.8; stroke-linecap: square"/>
     </g>
     <g id="line2d_4">
      <g>
       <use xlink:href="#mc7e536e96d" x="148.581818" y="280.8" style="stroke: #000000; stroke-width: 0.8"/>
      </g>
     </g>
     <g id="text_2">
      <!-- 600 -->
      <g transform="translate(139.038068 295.398438)scale(0.1 -0.1)">
       <defs>
        <path id="DejaVuSans-36" d="M 2113 2584 
Q 1688 2584 1439 2293 
Q 1191 2003 1191 1497 
Q 1191 994 1439 701 
Q 1688 409 2113 409 
Q 2538 409 2786 701 
Q 3034 994 3034 1497 
Q 3034 2003 2786 2293 
Q 2538 2584 2113 2584 
z
M 3366 4563 
L 3366 3988 
Q 3128 4100 2886 4159 
Q 2644 4219 2406 4219 
Q 1781 4219 1451 3797 
Q 1122 3375 1075 2522 
Q 1259 2794 1537 2939 
Q 1816 3084 2150 3084 
Q 2853 3084 3261 2657 
Q 3669 2231 3669 1497 
Q 3669 778 3244 343 
Q 2819 -91 2113 -91 
Q 1303 -91 875 529 
Q 447 1150 447 2328 
Q 447 3434 972 4092 
Q 1497 4750 2381 4750 
Q 2619 4750 2861 4703 
Q 3103 4656 3366 4563 
z
" transform="scale(0.015625)"/>
       </defs>
       <use xlink:href="#DejaVuSans-36"/>
       <use xlink:href="#DejaVuSans-30" x="63.623047"/>
       <use xlink:href="#DejaVuSans-30" x="127.246094"/>
      </g>
     </g>
    </g>
    <g id="xtick_3">
     <g id="line2d_5">
      <path d="M 185.127273 280.8 
L 185.127273 51.84 
" clip-path="url(#p65c1d231ca)" style="fill: none; stroke: #b0b0b0; stroke-width: 0.8; stroke-linecap: square"/>
     </g>
     <g id="line2d_6">
      <g>
       <use xlink:href="#mc7e536e96d" x="185.127273" y="280.8" style="stroke: #000000; stroke-width: 0.8"/>
      </g>
     </g>
     <g id="text_3">
      <!-- 700 -->
      <g transform="translate(175.583523 295.398438)scale(0.1 -0.1)">
       <defs>
        <path id="DejaVuSans-37" d="M 525 4666 
L 3525 4666 
L 3525 4397 
L 1831 0 
L 1172 0 
L 2766 4134 
L 525 4134 
L 525 4666 
z
" transform="scale(0.015625)"/>
       </defs>
       <use xlink:href="#DejaVuSans-37"/>
       <use xlink:href="#DejaVuSans-30" x="63.623047"/>
       <use xlink:href="#DejaVuSans-30" x="127.246094"/>
      </g>
     </g>
    </g>
    <g id="xtick_4">
     <g id="line2d_7">
      <path d="M 221.672727 280.8 
L 221.672727 51.84 
" clip-path="url(#p65c1d231ca)" style="fill: none; stroke: #b0b0b0; stroke-width: 0.8; stroke-linecap: square"/>
     </g>
     <g id="line2d_8">
      <g>
       <use xlink:href="#mc7e536e96d" x="221.672727" y="280.8" style="stroke: #000000; stroke-width: 0.8"/>
      </g>
     </g>
     <g id="text_4">
      <!-- 800 -->
      <g transform="translate(212.128977 295.398438)scale(0.1 -0.1)">
       <defs>
        <path id="DejaVuSans-38" d="M 2034 2216 
Q 1584 2216 1326 1975 
Q 1069 1734 1069 1313 
Q 1069 891 1326 650 
Q 1584 409 2034 409 
Q 2484 409 2743 651 
Q 3003 894 3003 1313 
Q 3003 1734 2745 1975 
Q 2488 2216 2034 2216 
z
M 1403 2484 
Q 997 2584 770 2862 
Q 544 3141 544 3541 
Q 544 4100 942 4425 
Q 1341 4750 2034 4750 
Q 2731 4750 3128 4425 
Q 3525 4100 3525 3541 
Q 3525 3141 3298 2862 
Q 3072 2584 2669 2484 
Q 3125 2378 3379 2068 
Q 3634 1759 3634 1313 
Q 3634 634 3220 271 
Q 2806 -91 2034 -91 
Q 1263 -91 848 271 
Q 434 634 434 1313 
Q 434 1759 690 2068 
Q 947 2378 1403 2484 
z
M 1172 3481 
Q 1172 3119 1398 2916 
Q 1625 2713 2034 2713 
Q 2441 2713 2670 2916 
Q 2900 3119 2900 3481 
Q 2900 3844 2670 4047 
Q 2441 4250 2034 4250 
Q 1625 4250 1398 4047 
Q 1172 3844 1172 3481 
z
" transform="scale(0.015625)"/>
       </defs>
       <use xlink:href="#DejaVuSans-38"/>
       <use xlink:href="#DejaVuSans-30" x="63.623047"/>
       <use xlink:href="#DejaVuSans-30" x="127.246094"/>
      </g>
     </g>
    </g>
    <g id="xtick_5">
     <g id="line2d_9">
      <path d="M 258.218182 280.8 
L 258.218182 51.84 
" clip-path="url(#p65c1d231ca)" style="fill: none; stroke: #b0b0b0; stroke-width: 0.8; stroke-linecap: square"/>
     </g>
     <g id="line2d_10">
      <g>
       <use xlink:href="#mc7e536e96d" x="258.218182" y="280.8" style="stroke: #000000; stroke-width: 0.8"/>
      </g>
     </g>
     <g id="text_5">
      <!-- 900 -->
      <g transform="translate(248.674432 295.398438)scale(0.1 -0.1)">
       <defs>
        <path id="DejaVuSans-39" d="M 703 97 
L 703 672 
Q 941 559 1184 500 
Q 1428 441 1663 441 
Q 2288 441 2617 861 
Q 2947 1281 2994 2138 
Q 2813 1869 2534 1725 
Q 2256 1581 1919 1581 
Q 1219 1581 811 2004 
Q 403 2428 403 3163 
Q 403 3881 828 4315 
Q 1253 4750 1959 4750 
Q 2769 4750 3195 4129 
Q 3622 3509 3622 2328 
Q 3622 1225 3098 567 
Q 2575 -91 1691 -91 
Q 1453 -91 1209 -44 
Q 966 3 703 97 
z
M 1959 2075 
Q 2384 2075 2632 2365 
Q 2881 2656 2881 3163 
Q 2881 3666 2632 3958 
Q 2384 4250 1959 4250 
Q 1534 4250 1286 3958 
Q 1038 3666 1038 3163 
Q 1038 2656 1286 2365 
Q 1534 2075 1959 2075 
z
" transform="scale(0.015625)"/>
       </defs>
       <use xlink:href="#DejaVuSans-39"/>
       <use xlink:href="#DejaVuSans-30" x="63.623047"/>
       <use xlink:href="#DejaVuSans-30" x="127.246094"/>
      </g>
     </g>
    </g>
    <g id="xtick_6">
     <g id="line2d_11">
      <path d="M 294.763636 280.8 
L 294.763636 51.84 
" clip-path="url(#p65c1d231ca)" style="fill: none; stroke: #b0b0b0; stroke-width: 0.8; stroke-linecap: square"/>
     </g>
     <g id="line2d_12">
      <g>
       <use xlink:href="#mc7e536e96d" x="294.763636" y="280.8" style="stroke: #000000; stroke-width: 0.8"/>
      </g>
     </g>
     <g id="text_6">
      <!-- 1000 -->
      <g transform="translate(282.038636 295.398438)scale(0.1 -0.1)">
       <defs>
        <path id="DejaVuSans-31" d="M 794 531 
L 1825 531 
L 1825 4091 
L 703 3866 
L 703 4441 
L 1819 4666 
L 2450 4666 
L 2450 531 
L 3481 531 
L 3481 0 
L 794 0 
L 794 531 
z
" transform="scale(0.015625)"/>
       </defs>
       <use xlink:href="#DejaVuSans-31"/>
       <use xlink:href="#DejaVuSans-30" x="63.623047"/>
       <use xlink:href="#DejaVuSans-30" x="127.246094"/>
       <use xlink:href="#DejaVuSans-30" x="190.869141"/>
      </g>
     </g>
    </g>
    <g id="text_7">
     <!-- Summer Precipitation (mm) -->
     <g transform="translate(92.5425 313.635625)scale(0.16 -0.16)">
      <defs>
       <path id="DejaVuSans-53" d="M 3425 4513 
L 3425 3897 
Q 3066 4069 2747 4153 
Q 2428 4238 2131 4238 
Q 1616 4238 1336 4038 
Q 1056 3838 1056 3469 
Q 1056 3159 1242 3001 
Q 1428 2844 1947 2747 
L 2328 2669 
Q 3034 2534 3370 2195 
Q 3706 1856 3706 1288 
Q 3706 609 3251 259 
Q 2797 -91 1919 -91 
Q 1588 -91 1214 -16 
Q 841 59 441 206 
L 441 856 
Q 825 641 1194 531 
Q 1563 422 1919 422 
Q 2459 422 2753 634 
Q 3047 847 3047 1241 
Q 3047 1584 2836 1778 
Q 2625 1972 2144 2069 
L 1759 2144 
Q 1053 2284 737 2584 
Q 422 2884 422 3419 
Q 422 4038 858 4394 
Q 1294 4750 2059 4750 
Q 2388 4750 2728 4690 
Q 3069 4631 3425 4513 
z
" transform="scale(0.015625)"/>
       <path id="DejaVuSans-75" d="M 544 1381 
L 544 3500 
L 1119 3500 
L 1119 1403 
Q 1119 906 1312 657 
Q 1506 409 1894 409 
Q 2359 409 2629 706 
Q 2900 1003 2900 1516 
L 2900 3500 
L 3475 3500 
L 3475 0 
L 2900 0 
L 2900 538 
Q 2691 219 2414 64 
Q 2138 -91 1772 -91 
Q 1169 -91 856 284 
Q 544 659 544 1381 
z
M 1991 3584 
L 1991 3584 
z
" transform="scale(0.015625)"/>
       <path id="DejaVuSans-6d" d="M 3328 2828 
Q 3544 3216 3844 3400 
Q 4144 3584 4550 3584 
Q 5097 3584 5394 3201 
Q 5691 2819 5691 2113 
L 5691 0 
L 5113 0 
L 5113 2094 
Q 5113 2597 4934 2840 
Q 4756 3084 4391 3084 
Q 3944 3084 3684 2787 
Q 3425 2491 3425 1978 
L 3425 0 
L 2847 0 
L 2847 2094 
Q 2847 2600 2669 2842 
Q 2491 3084 2119 3084 
Q 1678 3084 1418 2786 
Q 1159 2488 1159 1978 
L 1159 0 
L 581 0 
L 581 3500 
L 1159 3500 
L 1159 2956 
Q 1356 3278 1631 3431 
Q 1906 3584 2284 3584 
Q 2666 3584 2933 3390 
Q 3200 3197 3328 2828 
z
" transform="scale(0.015625)"/>
       <path id="DejaVuSans-65" d="M 3597 1894 
L 3597 1613 
L 953 1613 
Q 991 1019 1311 708 
Q 1631 397 2203 397 
Q 2534 397 2845 478 
Q 3156 559 3463 722 
L 3463 178 
Q 3153 47 2828 -22 
Q 2503 -91 2169 -91 
Q 1331 -91 842 396 
Q 353 884 353 1716 
Q 353 2575 817 3079 
Q 1281 3584 2069 3584 
Q 2775 3584 3186 3129 
Q 3597 2675 3597 1894 
z
M 3022 2063 
Q 3016 2534 2758 2815 
Q 2500 3097 2075 3097 
Q 1594 3097 1305 2825 
Q 1016 2553 972 2059 
L 3022 2063 
z
" transform="scale(0.015625)"/>
       <path id="DejaVuSans-72" d="M 2631 2963 
Q 2534 3019 2420 3045 
Q 2306 3072 2169 3072 
Q 1681 3072 1420 2755 
Q 1159 2438 1159 1844 
L 1159 0 
L 581 0 
L 581 3500 
L 1159 3500 
L 1159 2956 
Q 1341 3275 1631 3429 
Q 1922 3584 2338 3584 
Q 2397 3584 2469 3576 
Q 2541 3569 2628 3553 
L 2631 2963 
z
" transform="scale(0.015625)"/>
       <path id="DejaVuSans-20" transform="scale(0.015625)"/>
       <path id="DejaVuSans-50" d="M 1259 4147 
L 1259 2394 
L 2053 2394 
Q 2494 2394 2734 2622 
Q 2975 2850 2975 3272 
Q 2975 3691 2734 3919 
Q 2494 4147 2053 4147 
L 1259 4147 
z
M 628 4666 
L 2053 4666 
Q 2838 4666 3239 4311 
Q 3641 3956 3641 3272 
Q 3641 2581 3239 2228 
Q 2838 1875 2053 1875 
L 1259 1875 
L 1259 0 
L 628 0 
L 628 4666 
z
" transform="scale(0.015625)"/>
       <path id="DejaVuSans-63" d="M 3122 3366 
L 3122 2828 
Q 2878 2963 2633 3030 
Q 2388 3097 2138 3097 
Q 1578 3097 1268 2742 
Q 959 2388 959 1747 
Q 959 1106 1268 751 
Q 1578 397 2138 397 
Q 2388 397 2633 464 
Q 2878 531 3122 666 
L 3122 134 
Q 2881 22 2623 -34 
Q 2366 -91 2075 -91 
Q 1284 -91 818 406 
Q 353 903 353 1747 
Q 353 2603 823 3093 
Q 1294 3584 2113 3584 
Q 2378 3584 2631 3529 
Q 2884 3475 3122 3366 
z
" transform="scale(0.015625)"/>
       <path id="DejaVuSans-69" d="M 603 3500 
L 1178 3500 
L 1178 0 
L 603 0 
L 603 3500 
z
M 603 4863 
L 1178 4863 
L 1178 4134 
L 603 4134 
L 603 4863 
z
" transform="scale(0.015625)"/>
       <path id="DejaVuSans-70" d="M 1159 525 
L 1159 -1331 
L 581 -1331 
L 581 3500 
L 1159 3500 
L 1159 2969 
Q 1341 3281 1617 3432 
Q 1894 3584 2278 3584 
Q 2916 3584 3314 3078 
Q 3713 2572 3713 1747 
Q 3713 922 3314 415 
Q 2916 -91 2278 -91 
Q 1894 -91 1617 61 
Q 1341 213 1159 525 
z
M 3116 1747 
Q 3116 2381 2855 2742 
Q 2594 3103 2138 3103 
Q 1681 3103 1420 2742 
Q 1159 2381 1159 1747 
Q 1159 1113 1420 752 
Q 1681 391 2138 391 
Q 2594 391 2855 752 
Q 3116 1113 3116 1747 
z
" transform="scale(0.015625)"/>
       <path id="DejaVuSans-74" d="M 1172 4494 
L 1172 3500 
L 2356 3500 
L 2356 3053 
L 1172 3053 
L 1172 1153 
Q 1172 725 1289 603 
Q 1406 481 1766 481 
L 2356 481 
L 2356 0 
L 1766 0 
Q 1100 0 847 248 
Q 594 497 594 1153 
L 594 3053 
L 172 3053 
L 172 3500 
L 594 3500 
L 594 4494 
L 1172 4494 
z
" transform="scale(0.015625)"/>
       <path id="DejaVuSans-61" d="M 2194 1759 
Q 1497 1759 1228 1600 
Q 959 1441 959 1056 
Q 959 750 1161 570 
Q 1363 391 1709 391 
Q 2188 391 2477 730 
Q 2766 1069 2766 1631 
L 2766 1759 
L 2194 1759 
z
M 3341 1997 
L 3341 0 
L 2766 0 
L 2766 531 
Q 2569 213 2275 61 
Q 1981 -91 1556 -91 
Q 1019 -91 701 211 
Q 384 513 384 1019 
Q 384 1609 779 1909 
Q 1175 2209 1959 2209 
L 2766 2209 
L 2766 2266 
Q 2766 2663 2505 2880 
Q 2244 3097 1772 3097 
Q 1472 3097 1187 3025 
Q 903 2953 641 2809 
L 641 3341 
Q 956 3463 1253 3523 
Q 1550 3584 1831 3584 
Q 2591 3584 2966 3190 
Q 3341 2797 3341 1997 
z
" transform="scale(0.015625)"/>
       <path id="DejaVuSans-6f" d="M 1959 3097 
Q 1497 3097 1228 2736 
Q 959 2375 959 1747 
Q 959 1119 1226 758 
Q 1494 397 1959 397 
Q 2419 397 2687 759 
Q 2956 1122 2956 1747 
Q 2956 2369 2687 2733 
Q 2419 3097 1959 3097 
z
M 1959 3584 
Q 2709 3584 3137 3096 
Q 3566 2609 3566 1747 
Q 3566 888 3137 398 
Q 2709 -91 1959 -91 
Q 1206 -91 779 398 
Q 353 888 353 1747 
Q 353 2609 779 3096 
Q 1206 3584 1959 3584 
z
" transform="scale(0.015625)"/>
       <path id="DejaVuSans-6e" d="M 3513 2113 
L 3513 0 
L 2938 0 
L 2938 2094 
Q 2938 2591 2744 2837 
Q 2550 3084 2163 3084 
Q 1697 3084 1428 2787 
Q 1159 2491 1159 1978 
L 1159 0 
L 581 0 
L 581 3500 
L 1159 3500 
L 1159 2956 
Q 1366 3272 1645 3428 
Q 1925 3584 2291 3584 
Q 2894 3584 3203 3211 
Q 3513 2838 3513 2113 
z
" transform="scale(0.015625)"/>
       <path id="DejaVuSans-28" d="M 1984 4856 
Q 1566 4138 1362 3434 
Q 1159 2731 1159 2009 
Q 1159 1288 1364 580 
Q 1569 -128 1984 -844 
L 1484 -844 
Q 1016 -109 783 600 
Q 550 1309 550 2009 
Q 550 2706 781 3412 
Q 1013 4119 1484 4856 
L 1984 4856 
z
" transform="scale(0.015625)"/>
       <path id="DejaVuSans-29" d="M 513 4856 
L 1013 4856 
Q 1481 4119 1714 3412 
Q 1947 2706 1947 2009 
Q 1947 1309 1714 600 
Q 1481 -109 1013 -844 
L 513 -844 
Q 928 -128 1133 580 
Q 1338 1288 1338 2009 
Q 1338 2731 1133 3434 
Q 928 4138 513 4856 
z
" transform="scale(0.015625)"/>
      </defs>
      <use xlink:href="#DejaVuSans-53"/>
      <use xlink:href="#DejaVuSans-75" x="63.476562"/>
      <use xlink:href="#DejaVuSans-6d" x="126.855469"/>
      <use xlink:href="#DejaVuSans-6d" x="224.267578"/>
      <use xlink:href="#DejaVuSans-65" x="321.679688"/>
      <use xlink:href="#DejaVuSans-72" x="383.203125"/>
      <use xlink:href="#DejaVuSans-20" x="424.316406"/>
      <use xlink:href="#DejaVuSans-50" x="456.103516"/>
      <use xlink:href="#DejaVuSans-72" x="514.65625"/>
      <use xlink:href="#DejaVuSans-65" x="553.519531"/>
      <use xlink:href="#DejaVuSans-63" x="615.042969"/>
      <use xlink:href="#DejaVuSans-69" x="670.023438"/>
      <use xlink:href="#DejaVuSans-70" x="697.806641"/>
      <use xlink:href="#DejaVuSans-69" x="761.283203"/>
      <use xlink:href="#DejaVuSans-74" x="789.066406"/>
      <use xlink:href="#DejaVuSans-61" x="828.275391"/>
      <use xlink:href="#DejaVuSans-74" x="889.554688"/>
      <use xlink:href="#DejaVuSans-69" x="928.763672"/>
      <use xlink:href="#DejaVuSans-6f" x="956.546875"/>
      <use xlink:href="#DejaVuSans-6e" x="1017.728516"/>
      <use xlink:href="#DejaVuSans-20" x="1081.107422"/>
      <use xlink:href="#DejaVuSans-28" x="1112.894531"/>
      <use xlink:href="#DejaVuSans-6d" x="1151.908203"/>
      <use xlink:href="#DejaVuSans-6d" x="1249.320312"/>
      <use xlink:href="#DejaVuSans-29" x="1346.732422"/>
     </g>
    </g>
   </g>
   <g id="matplotlib.axis_2">
    <g id="ytick_1">
     <g id="line2d_13">
      <path d="M 82.8 280.8 
L 324 280.8 
" clip-path="url(#p65c1d231ca)" style="fill: none; stroke: #b0b0b0; stroke-width: 0.8; stroke-linecap: square"/>
     </g>
     <g id="line2d_14">
      <defs>
       <path id="m7c018cbd3b" d="M 0 0 
L -3.5 0 
" style="stroke: #000000; stroke-width: 0.8"/>
      </defs>
      <g>
       <use xlink:href="#m7c018cbd3b" x="82.8" y="280.8" style="stroke: #000000; stroke-width: 0.8"/>
      </g>
     </g>
     <g id="text_8">
      <!-- 0.0 -->
      <g transform="translate(59.896875 284.599219)scale(0.1 -0.1)">
       <defs>
        <path id="DejaVuSans-2e" d="M 684 794 
L 1344 794 
L 1344 0 
L 684 0 
L 684 794 
z
" transform="scale(0.015625)"/>
       </defs>
       <use xlink:href="#DejaVuSans-30"/>
       <use xlink:href="#DejaVuSans-2e" x="63.623047"/>
       <use xlink:href="#DejaVuSans-30" x="95.410156"/>
      </g>
     </g>
    </g>
    <g id="ytick_2">
     <g id="line2d_15">
      <path d="M 82.8 250.272 
L 324 250.272 
" clip-path="url(#p65c1d231ca)" style="fill: none; stroke: #b0b0b0; stroke-width: 0.8; stroke-linecap: square"/>
     </g>
     <g id="line2d_16">
      <g>
       <use xlink:href="#m7c018cbd3b" x="82.8" y="250.272" style="stroke: #000000; stroke-width: 0.8"/>
      </g>
     </g>
     <g id="text_9">
      <!-- 0.2 -->
      <g transform="translate(59.896875 254.071219)scale(0.1 -0.1)">
       <defs>
        <path id="DejaVuSans-32" d="M 1228 531 
L 3431 531 
L 3431 0 
L 469 0 
L 469 531 
Q 828 903 1448 1529 
Q 2069 2156 2228 2338 
Q 2531 2678 2651 2914 
Q 2772 3150 2772 3378 
Q 2772 3750 2511 3984 
Q 2250 4219 1831 4219 
Q 1534 4219 1204 4116 
Q 875 4013 500 3803 
L 500 4441 
Q 881 4594 1212 4672 
Q 1544 4750 1819 4750 
Q 2544 4750 2975 4387 
Q 3406 4025 3406 3419 
Q 3406 3131 3298 2873 
Q 3191 2616 2906 2266 
Q 2828 2175 2409 1742 
Q 1991 1309 1228 531 
z
" transform="scale(0.015625)"/>
       </defs>
       <use xlink:href="#DejaVuSans-30"/>
       <use xlink:href="#DejaVuSans-2e" x="63.623047"/>
       <use xlink:href="#DejaVuSans-32" x="95.410156"/>
      </g>
     </g>
    </g>
    <g id="ytick_3">
     <g id="line2d_17">
      <path d="M 82.8 219.744 
L 324 219.744 
" clip-path="url(#p65c1d231ca)" style="fill: none; stroke: #b0b0b0; stroke-width: 0.8; stroke-linecap: square"/>
     </g>
     <g id="line2d_18">
      <g>
       <use xlink:href="#m7c018cbd3b" x="82.8" y="219.744" style="stroke: #000000; stroke-width: 0.8"/>
      </g>
     </g>
     <g id="text_10">
      <!-- 0.4 -->
      <g transform="translate(59.896875 223.543219)scale(0.1 -0.1)">
       <defs>
        <path id="DejaVuSans-34" d="M 2419 4116 
L 825 1625 
L 2419 1625 
L 2419 4116 
z
M 2253 4666 
L 3047 4666 
L 3047 1625 
L 3713 1625 
L 3713 1100 
L 3047 1100 
L 3047 0 
L 2419 0 
L 2419 1100 
L 313 1100 
L 313 1709 
L 2253 4666 
z
" transform="scale(0.015625)"/>
       </defs>
       <use xlink:href="#DejaVuSans-30"/>
       <use xlink:href="#DejaVuSans-2e" x="63.623047"/>
       <use xlink:href="#DejaVuSans-34" x="95.410156"/>
      </g>
     </g>
    </g>
    <g id="ytick_4">
     <g id="line2d_19">
      <path d="M 82.8 189.216 
L 324 189.216 
" clip-path="url(#p65c1d231ca)" style="fill: none; stroke: #b0b0b0; stroke-width: 0.8; stroke-linecap: square"/>
     </g>
     <g id="line2d_20">
      <g>
       <use xlink:href="#m7c018cbd3b" x="82.8" y="189.216" style="stroke: #000000; stroke-width: 0.8"/>
      </g>
     </g>
     <g id="text_11">
      <!-- 0.6 -->
      <g transform="translate(59.896875 193.015219)scale(0.1 -0.1)">
       <use xlink:href="#DejaVuSans-30"/>
       <use xlink:href="#DejaVuSans-2e" x="63.623047"/>
       <use xlink:href="#DejaVuSans-36" x="95.410156"/>
      </g>
     </g>
    </g>
    <g id="ytick_5">
     <g id="line2d_21">
      <path d="M 82.8 158.688 
L 324 158.688 
" clip-path="url(#p65c1d231ca)" style="fill: none; stroke: #b0b0b0; stroke-width: 0.8; stroke-linecap: square"/>
     </g>
     <g id="line2d_22">
      <g>
       <use xlink:href="#m7c018cbd3b" x="82.8" y="158.688" style="stroke: #000000; stroke-width: 0.8"/>
      </g>
     </g>
     <g id="text_12">
      <!-- 0.8 -->
      <g transform="translate(59.896875 162.487219)scale(0.1 -0.1)">
       <use xlink:href="#DejaVuSans-30"/>
       <use xlink:href="#DejaVuSans-2e" x="63.623047"/>
       <use xlink:href="#DejaVuSans-38" x="95.410156"/>
      </g>
     </g>
    </g>
    <g id="ytick_6">
     <g id="line2d_23">
      <path d="M 82.8 128.16 
L 324 128.16 
" clip-path="url(#p65c1d231ca)" style="fill: none; stroke: #b0b0b0; stroke-width: 0.8; stroke-linecap: square"/>
     </g>
     <g id="line2d_24">
      <g>
       <use xlink:href="#m7c018cbd3b" x="82.8" y="128.16" style="stroke: #000000; stroke-width: 0.8"/>
      </g>
     </g>
     <g id="text_13">
      <!-- 1.0 -->
      <g transform="translate(59.896875 131.959219)scale(0.1 -0.1)">
       <use xlink:href="#DejaVuSans-31"/>
       <use xlink:href="#DejaVuSans-2e" x="63.623047"/>
       <use xlink:href="#DejaVuSans-30" x="95.410156"/>
      </g>
     </g>
    </g>
    <g id="ytick_7">
     <g id="line2d_25">
      <path d="M 82.8 97.632 
L 324 97.632 
" clip-path="url(#p65c1d231ca)" style="fill: none; stroke: #b0b0b0; stroke-width: 0.8; stroke-linecap: square"/>
     </g>
     <g id="line2d_26">
      <g>
       <use xlink:href="#m7c018cbd3b" x="82.8" y="97.632" style="stroke: #000000; stroke-width: 0.8"/>
      </g>
     </g>
     <g id="text_14">
      <!-- 1.2 -->
      <g transform="translate(59.896875 101.431219)scale(0.1 -0.1)">
       <use xlink:href="#DejaVuSans-31"/>
       <use xlink:href="#DejaVuSans-2e" x="63.623047"/>
       <use xlink:href="#DejaVuSans-32" x="95.410156"/>
      </g>
     </g>
    </g>
    <g id="ytick_8">
     <g id="line2d_27">
      <path d="M 82.8 67.104 
L 324 67.104 
" clip-path="url(#p65c1d231ca)" style="fill: none; stroke: #b0b0b0; stroke-width: 0.8; stroke-linecap: square"/>
     </g>
     <g id="line2d_28">
      <g>
       <use xlink:href="#m7c018cbd3b" x="82.8" y="67.104" style="stroke: #000000; stroke-width: 0.8"/>
      </g>
     </g>
     <g id="text_15">
      <!-- 1.4 -->
      <g transform="translate(59.896875 70.903219)scale(0.1 -0.1)">
       <use xlink:href="#DejaVuSans-31"/>
       <use xlink:href="#DejaVuSans-2e" x="63.623047"/>
       <use xlink:href="#DejaVuSans-34" x="95.410156"/>
      </g>
     </g>
    </g>
    <g id="text_16">
     <!-- Fraction of ET from Summer -->
     <g transform="translate(34.652875 278.635)rotate(-90)scale(0.16 -0.16)">
      <defs>
       <path id="DejaVuSans-46" d="M 628 4666 
L 3309 4666 
L 3309 4134 
L 1259 4134 
L 1259 2759 
L 3109 2759 
L 3109 2228 
L 1259 2228 
L 1259 0 
L 628 0 
L 628 4666 
z
" transform="scale(0.015625)"/>
       <path id="DejaVuSans-66" d="M 2375 4863 
L 2375 4384 
L 1825 4384 
Q 1516 4384 1395 4259 
Q 1275 4134 1275 3809 
L 1275 3500 
L 2222 3500 
L 2222 3053 
L 1275 3053 
L 1275 0 
L 697 0 
L 697 3053 
L 147 3053 
L 147 3500 
L 697 3500 
L 697 3744 
Q 697 4328 969 4595 
Q 1241 4863 1831 4863 
L 2375 4863 
z
" transform="scale(0.015625)"/>
       <path id="DejaVuSans-45" d="M 628 4666 
L 3578 4666 
L 3578 4134 
L 1259 4134 
L 1259 2753 
L 3481 2753 
L 3481 2222 
L 1259 2222 
L 1259 531 
L 3634 531 
L 3634 0 
L 628 0 
L 628 4666 
z
" transform="scale(0.015625)"/>
       <path id="DejaVuSans-54" d="M -19 4666 
L 3928 4666 
L 3928 4134 
L 2272 4134 
L 2272 0 
L 1638 0 
L 1638 4134 
L -19 4134 
L -19 4666 
z
" transform="scale(0.015625)"/>
      </defs>
      <use xlink:href="#DejaVuSans-46"/>
      <use xlink:href="#DejaVuSans-72" x="50.269531"/>
      <use xlink:href="#DejaVuSans-61" x="91.382812"/>
      <use xlink:href="#DejaVuSans-63" x="152.662109"/>
      <use xlink:href="#DejaVuSans-74" x="207.642578"/>
      <use xlink:href="#DejaVuSans-69" x="246.851562"/>
      <use xlink:href="#DejaVuSans-6f" x="274.634766"/>
      <use xlink:href="#DejaVuSans-6e" x="335.816406"/>
      <use xlink:href="#DejaVuSans-20" x="399.195312"/>
      <use xlink:href="#DejaVuSans-6f" x="430.982422"/>
      <use xlink:href="#DejaVuSans-66" x="492.164062"/>
      <use xlink:href="#DejaVuSans-20" x="527.369141"/>
      <use xlink:href="#DejaVuSans-45" x="559.15625"/>
      <use xlink:href="#DejaVuSans-54" x="622.339844"/>
      <use xlink:href="#DejaVuSans-20" x="683.423828"/>
      <use xlink:href="#DejaVuSans-66" x="715.210938"/>
      <use xlink:href="#DejaVuSans-72" x="750.416016"/>
      <use xlink:href="#DejaVuSans-6f" x="789.279297"/>
      <use xlink:href="#DejaVuSans-6d" x="850.460938"/>
      <use xlink:href="#DejaVuSans-20" x="947.873047"/>
      <use xlink:href="#DejaVuSans-53" x="979.660156"/>
      <use xlink:href="#DejaVuSans-75" x="1043.136719"/>
      <use xlink:href="#DejaVuSans-6d" x="1106.515625"/>
      <use xlink:href="#DejaVuSans-6d" x="1203.927734"/>
      <use xlink:href="#DejaVuSans-65" x="1301.339844"/>
      <use xlink:href="#DejaVuSans-72" x="1362.863281"/>
     </g>
     <!-- Precipitation (unitless) -->
     <g transform="translate(52.569375 256.08375)rotate(-90)scale(0.16 -0.16)">
      <defs>
       <path id="DejaVuSans-6c" d="M 603 4863 
L 1178 4863 
L 1178 0 
L 603 0 
L 603 4863 
z
" transform="scale(0.015625)"/>
       <path id="DejaVuSans-73" d="M 2834 3397 
L 2834 2853 
Q 2591 2978 2328 3040 
Q 2066 3103 1784 3103 
Q 1356 3103 1142 2972 
Q 928 2841 928 2578 
Q 928 2378 1081 2264 
Q 1234 2150 1697 2047 
L 1894 2003 
Q 2506 1872 2764 1633 
Q 3022 1394 3022 966 
Q 3022 478 2636 193 
Q 2250 -91 1575 -91 
Q 1294 -91 989 -36 
Q 684 19 347 128 
L 347 722 
Q 666 556 975 473 
Q 1284 391 1588 391 
Q 1994 391 2212 530 
Q 2431 669 2431 922 
Q 2431 1156 2273 1281 
Q 2116 1406 1581 1522 
L 1381 1569 
Q 847 1681 609 1914 
Q 372 2147 372 2553 
Q 372 3047 722 3315 
Q 1072 3584 1716 3584 
Q 2034 3584 2315 3537 
Q 2597 3491 2834 3397 
z
" transform="scale(0.015625)"/>
      </defs>
      <use xlink:href="#DejaVuSans-50"/>
      <use xlink:href="#DejaVuSans-72" x="58.552734"/>
      <use xlink:href="#DejaVuSans-65" x="97.416016"/>
      <use xlink:href="#DejaVuSans-63" x="158.939453"/>
      <use xlink:href="#DejaVuSans-69" x="213.919922"/>
      <use xlink:href="#DejaVuSans-70" x="241.703125"/>
      <use xlink:href="#DejaVuSans-69" x="305.179688"/>
      <use xlink:href="#DejaVuSans-74" x="332.962891"/>
      <use xlink:href="#DejaVuSans-61" x="372.171875"/>
      <use xlink:href="#DejaVuSans-74" x="433.451172"/>
      <use xlink:href="#DejaVuSans-69" x="472.660156"/>
      <use xlink:href="#DejaVuSans-6f" x="500.443359"/>
      <use xlink:href="#DejaVuSans-6e" x="561.625"/>
      <use xlink:href="#DejaVuSans-20" x="625.003906"/>
      <use xlink:href="#DejaVuSans-28" x="656.791016"/>
      <use xlink:href="#DejaVuSans-75" x="695.804688"/>
      <use xlink:href="#DejaVuSans-6e" x="759.183594"/>
      <use xlink:href="#DejaVuSans-69" x="822.5625"/>
      <use xlink:href="#DejaVuSans-74" x="850.345703"/>
      <use xlink:href="#DejaVuSans-6c" x="889.554688"/>
      <use xlink:href="#DejaVuSans-65" x="917.337891"/>
      <use xlink:href="#DejaVuSans-73" x="978.861328"/>
      <use xlink:href="#DejaVuSans-73" x="1030.960938"/>
      <use xlink:href="#DejaVuSans-29" x="1083.060547"/>
     </g>
    </g>
   </g>
   <g id="line2d_29">
    <path d="M 93.763636 233.704961 
L 97.418182 231.557849 
L 101.072727 229.458251 
L 104.727273 227.357613 
L 108.381818 225.21829 
L 112.036364 223.084349 
L 115.690909 220.973402 
L 119.345455 218.930108 
L 123 216.896855 
L 126.654545 214.828663 
L 130.309091 212.779225 
L 133.963636 210.69404 
L 137.618182 208.717746 
L 141.272727 206.718684 
L 144.927273 204.746925 
L 148.581818 202.73983 
L 152.236364 200.708039 
L 155.890909 198.705653 
L 159.545455 196.747234 
L 163.2 194.749511 
L 166.854545 192.780263 
L 170.509091 190.847536 
L 174.163636 188.902335 
L 177.818182 187.081596 
L 181.472727 185.156229 
L 185.127273 183.265893 
L 188.781818 181.383789 
L 192.436364 179.5338 
L 196.090909 177.67811 
L 199.745455 175.838498 
L 203.4 174.015463 
L 207.054545 172.21705 
L 210.709091 170.406547 
L 214.363636 168.584036 
L 218.018182 166.753164 
L 221.672727 164.961327 
L 225.327273 163.14569 
L 228.981818 161.333322 
L 232.636364 159.620238 
L 236.290909 157.942022 
L 239.945455 156.219158 
L 243.6 154.505323 
L 247.254545 152.85289 
L 250.909091 151.182707 
L 254.563636 149.592482 
L 258.218182 148.051749 
L 261.872727 146.509772 
L 265.527273 144.942314 
L 269.181818 143.390579 
L 272.836364 141.881863 
L 276.490909 140.3495 
L 280.145455 138.919391 
L 283.8 137.451867 
L 287.454545 136.013419 
L 291.109091 134.593687 
L 294.763636 133.154576 
L 298.418182 131.861357 
L 302.072727 130.43929 
L 305.727273 129.121163 
L 309.381818 127.701715 
L 313.036364 126.37307 
" clip-path="url(#p65c1d231ca)" style="fill: none; stroke: #000000; stroke-width: 1.5; stroke-linecap: square"/>
   </g>
   <g id="patch_3">
    <path d="M 82.8 280.8 
L 82.8 51.84 
" style="fill: none; stroke: #000000; stroke-width: 0.8; stroke-linejoin: miter; stroke-linecap: square"/>
   </g>
   <g id="patch_4">
    <path d="M 324 280.8 
L 324 51.84 
" style="fill: none; stroke: #000000; stroke-width: 0.8; stroke-linejoin: miter; stroke-linecap: square"/>
   </g>
   <g id="patch_5">
    <path d="M 82.8 280.8 
L 324 280.8 
" style="fill: none; stroke: #000000; stroke-width: 0.8; stroke-linejoin: miter; stroke-linecap: square"/>
   </g>
   <g id="patch_6">
    <path d="M 82.8 51.84 
L 324 51.84 
" style="fill: none; stroke: #000000; stroke-width: 0.8; stroke-linejoin: miter; stroke-linecap: square"/>
   </g>
   <g id="legend_1">
    <g id="patch_7">
     <path d="M 34.0025 421.884 
L 312.8 421.884 
Q 316 421.884 316 418.684 
L 316 326.344 
Q 316 323.144 312.8 323.144 
L 34.0025 323.144 
Q 30.8025 323.144 30.8025 326.344 
L 30.8025 418.684 
Q 30.8025 421.884 34.0025 421.884 
z
" style="fill: #ffffff; opacity: 0.8; stroke: #cccccc; stroke-linejoin: miter"/>
    </g>
    <g id="patch_8">
     <path d="M 37.2025 341.7015 
L 69.2025 341.7015 
L 69.2025 330.5015 
L 37.2025 330.5015 
z
" style="fill: #ffff00; stroke: #ffff00; stroke-linejoin: miter"/>
    </g>
    <g id="text_17">
     <!-- 2.5th and 97.5th percentiles -->
     <g transform="translate(82.0025 341.7015)scale(0.16 -0.16)">
      <defs>
       <path id="DejaVuSans-68" d="M 3513 2113 
L 3513 0 
L 2938 0 
L 2938 2094 
Q 2938 2591 2744 2837 
Q 2550 3084 2163 3084 
Q 1697 3084 1428 2787 
Q 1159 2491 1159 1978 
L 1159 0 
L 581 0 
L 581 4863 
L 1159 4863 
L 1159 2956 
Q 1366 3272 1645 3428 
Q 1925 3584 2291 3584 
Q 2894 3584 3203 3211 
Q 3513 2838 3513 2113 
z
" transform="scale(0.015625)"/>
       <path id="DejaVuSans-64" d="M 2906 2969 
L 2906 4863 
L 3481 4863 
L 3481 0 
L 2906 0 
L 2906 525 
Q 2725 213 2448 61 
Q 2172 -91 1784 -91 
Q 1150 -91 751 415 
Q 353 922 353 1747 
Q 353 2572 751 3078 
Q 1150 3584 1784 3584 
Q 2172 3584 2448 3432 
Q 2725 3281 2906 2969 
z
M 947 1747 
Q 947 1113 1208 752 
Q 1469 391 1925 391 
Q 2381 391 2643 752 
Q 2906 1113 2906 1747 
Q 2906 2381 2643 2742 
Q 2381 3103 1925 3103 
Q 1469 3103 1208 2742 
Q 947 2381 947 1747 
z
" transform="scale(0.015625)"/>
      </defs>
      <use xlink:href="#DejaVuSans-32"/>
      <use xlink:href="#DejaVuSans-2e" x="63.623047"/>
      <use xlink:href="#DejaVuSans-35" x="95.410156"/>
      <use xlink:href="#DejaVuSans-74" x="159.033203"/>
      <use xlink:href="#DejaVuSans-68" x="198.242188"/>
      <use xlink:href="#DejaVuSans-20" x="261.621094"/>
      <use xlink:href="#DejaVuSans-61" x="293.408203"/>
      <use xlink:href="#DejaVuSans-6e" x="354.6875"/>
      <use xlink:href="#DejaVuSans-64" x="418.066406"/>
      <use xlink:href="#DejaVuSans-20" x="481.542969"/>
      <use xlink:href="#DejaVuSans-39" x="513.330078"/>
      <use xlink:href="#DejaVuSans-37" x="576.953125"/>
      <use xlink:href="#DejaVuSans-2e" x="640.576172"/>
      <use xlink:href="#DejaVuSans-35" x="672.363281"/>
      <use xlink:href="#DejaVuSans-74" x="735.986328"/>
      <use xlink:href="#DejaVuSans-68" x="775.195312"/>
      <use xlink:href="#DejaVuSans-20" x="838.574219"/>
      <use xlink:href="#DejaVuSans-70" x="870.361328"/>
      <use xlink:href="#DejaVuSans-65" x="933.837891"/>
      <use xlink:href="#DejaVuSans-72" x="995.361328"/>
      <use xlink:href="#DejaVuSans-63" x="1034.224609"/>
      <use xlink:href="#DejaVuSans-65" x="1089.205078"/>
      <use xlink:href="#DejaVuSans-6e" x="1150.728516"/>
      <use xlink:href="#DejaVuSans-74" x="1214.107422"/>
      <use xlink:href="#DejaVuSans-69" x="1253.316406"/>
      <use xlink:href="#DejaVuSans-6c" x="1281.099609"/>
      <use xlink:href="#DejaVuSans-65" x="1308.882812"/>
      <use xlink:href="#DejaVuSans-73" x="1370.40625"/>
     </g>
    </g>
    <g id="patch_9">
     <path d="M 37.2025 365.1865 
L 69.2025 365.1865 
L 69.2025 353.9865 
L 37.2025 353.9865 
z
" style="fill: #008000; stroke: #008000; stroke-linejoin: miter"/>
    </g>
    <g id="text_18">
     <!-- 5th and 95th percentiles -->
     <g transform="translate(82.0025 365.1865)scale(0.16 -0.16)">
      <use xlink:href="#DejaVuSans-35"/>
      <use xlink:href="#DejaVuSans-74" x="63.623047"/>
      <use xlink:href="#DejaVuSans-68" x="102.832031"/>
      <use xlink:href="#DejaVuSans-20" x="166.210938"/>
      <use xlink:href="#DejaVuSans-61" x="197.998047"/>
      <use xlink:href="#DejaVuSans-6e" x="259.277344"/>
      <use xlink:href="#DejaVuSans-64" x="322.65625"/>
      <use xlink:href="#DejaVuSans-20" x="386.132812"/>
      <use xlink:href="#DejaVuSans-39" x="417.919922"/>
      <use xlink:href="#DejaVuSans-35" x="481.542969"/>
      <use xlink:href="#DejaVuSans-74" x="545.166016"/>
      <use xlink:href="#DejaVuSans-68" x="584.375"/>
      <use xlink:href="#DejaVuSans-20" x="647.753906"/>
      <use xlink:href="#DejaVuSans-70" x="679.541016"/>
      <use xlink:href="#DejaVuSans-65" x="743.017578"/>
      <use xlink:href="#DejaVuSans-72" x="804.541016"/>
      <use xlink:href="#DejaVuSans-63" x="843.404297"/>
      <use xlink:href="#DejaVuSans-65" x="898.384766"/>
      <use xlink:href="#DejaVuSans-6e" x="959.908203"/>
      <use xlink:href="#DejaVuSans-74" x="1023.287109"/>
      <use xlink:href="#DejaVuSans-69" x="1062.496094"/>
      <use xlink:href="#DejaVuSans-6c" x="1090.279297"/>
      <use xlink:href="#DejaVuSans-65" x="1118.0625"/>
      <use xlink:href="#DejaVuSans-73" x="1179.585938"/>
     </g>
    </g>
    <g id="patch_10">
     <path d="M 37.2025 388.6715 
L 69.2025 388.6715 
L 69.2025 377.4715 
L 37.2025 377.4715 
z
" style="fill: #0000ff; stroke: #0000ff; stroke-linejoin: miter"/>
    </g>
    <g id="text_19">
     <!-- 10th and 90th percentiles -->
     <g transform="translate(82.0025 388.6715)scale(0.16 -0.16)">
      <use xlink:href="#DejaVuSans-31"/>
      <use xlink:href="#DejaVuSans-30" x="63.623047"/>
      <use xlink:href="#DejaVuSans-74" x="127.246094"/>
      <use xlink:href="#DejaVuSans-68" x="166.455078"/>
      <use xlink:href="#DejaVuSans-20" x="229.833984"/>
      <use xlink:href="#DejaVuSans-61" x="261.621094"/>
      <use xlink:href="#DejaVuSans-6e" x="322.900391"/>
      <use xlink:href="#DejaVuSans-64" x="386.279297"/>
      <use xlink:href="#DejaVuSans-20" x="449.755859"/>
      <use xlink:href="#DejaVuSans-39" x="481.542969"/>
      <use xlink:href="#DejaVuSans-30" x="545.166016"/>
      <use xlink:href="#DejaVuSans-74" x="608.789062"/>
      <use xlink:href="#DejaVuSans-68" x="647.998047"/>
      <use xlink:href="#DejaVuSans-20" x="711.376953"/>
      <use xlink:href="#DejaVuSans-70" x="743.164062"/>
      <use xlink:href="#DejaVuSans-65" x="806.640625"/>
      <use xlink:href="#DejaVuSans-72" x="868.164062"/>
      <use xlink:href="#DejaVuSans-63" x="907.027344"/>
      <use xlink:href="#DejaVuSans-65" x="962.007812"/>
      <use xlink:href="#DejaVuSans-6e" x="1023.53125"/>
      <use xlink:href="#DejaVuSans-74" x="1086.910156"/>
      <use xlink:href="#DejaVuSans-69" x="1126.119141"/>
      <use xlink:href="#DejaVuSans-6c" x="1153.902344"/>
      <use xlink:href="#DejaVuSans-65" x="1181.685547"/>
      <use xlink:href="#DejaVuSans-73" x="1243.208984"/>
     </g>
    </g>
    <g id="line2d_30">
     <path d="M 37.2025 406.5565 
L 53.2025 406.5565 
L 69.2025 406.5565 
" style="fill: none; stroke: #000000; stroke-width: 1.5; stroke-linecap: square"/>
    </g>
    <g id="text_20">
     <!-- Median -->
     <g transform="translate(82.0025 412.1565)scale(0.16 -0.16)">
      <defs>
       <path id="DejaVuSans-4d" d="M 628 4666 
L 1569 4666 
L 2759 1491 
L 3956 4666 
L 4897 4666 
L 4897 0 
L 4281 0 
L 4281 4097 
L 3078 897 
L 2444 897 
L 1241 4097 
L 1241 0 
L 628 0 
L 628 4666 
z
" transform="scale(0.015625)"/>
      </defs>
      <use xlink:href="#DejaVuSans-4d"/>
      <use xlink:href="#DejaVuSans-65" x="86.279297"/>
      <use xlink:href="#DejaVuSans-64" x="147.802734"/>
      <use xlink:href="#DejaVuSans-69" x="211.279297"/>
      <use xlink:href="#DejaVuSans-61" x="239.0625"/>
      <use xlink:href="#DejaVuSans-6e" x="300.341797"/>
     </g>
    </g>
   </g>
  </g>
 </g>
 <defs>
  <clipPath id="p65c1d231ca">
   <rect x="82.8" y="51.84" width="241.2" height="228.96"/>
  </clipPath>
 </defs>
</svg>
