<?xml version="1.0" encoding="utf-8" standalone="no"?>
<!DOCTYPE svg PUBLIC "-//W3C//DTD SVG 1.1//EN"
  "http://www.w3.org/Graphics/SVG/1.1/DTD/svg11.dtd">
<svg xmlns:xlink="http://www.w3.org/1999/xlink" width="576pt" height="216pt" viewBox="0 0 576 216" xmlns="http://www.w3.org/2000/svg" version="1.1">
 <metadata>
  <rdf:RDF xmlns:dc="http://purl.org/dc/elements/1.1/" xmlns:cc="http://creativecommons.org/ns#" xmlns:rdf="http://www.w3.org/1999/02/22-rdf-syntax-ns#">
   <cc:Work>
    <dc:type rdf:resource="http://purl.org/dc/dcmitype/StillImage"/>
    <dc:date>2023-07-26T16:55:48.663841</dc:date>
    <dc:format>image/svg+xml</dc:format>
    <dc:creator>
     <cc:Agent>
      <dc:title>Matplotlib v3.5.2, https://matplotlib.org/</dc:title>
     </cc:Agent>
    </dc:creator>
   </cc:Work>
  </rdf:RDF>
 </metadata>
 <defs>
  <style type="text/css">*{stroke-linejoin: round; stroke-linecap: butt}</style>
 </defs>
 <g id="figure_1">
  <g id="patch_1">
   <path d="M 0 216 
L 576 216 
L 576 0 
L 0 0 
z
" style="fill: #ffffff"/>
  </g>
  <g id="axes_1">
   <g id="patch_2">
    <path d="M 59.384 174.04 
L 195.061131 174.04 
L 195.061131 26.88 
L 59.384 26.88 
z
" style="fill: #ffffff"/>
   </g>
   <g id="LineCollection_1">
    <path d="M 116.819362 129.150656 
L 116.819362 115.002414 
" clip-path="url(#p1d4f440236)" style="fill: none; stroke: #4169e1; stroke-width: 1.5"/>
    <path d="M 133.094987 163.106436 
L 133.094987 134.809953 
" clip-path="url(#p1d4f440236)" style="fill: none; stroke: #4169e1; stroke-width: 1.5"/>
    <path d="M 188.893989 118.458543 
L 188.893989 33.569091 
" clip-path="url(#p1d4f440236)" style="fill: none; stroke: #4169e1; stroke-width: 1.5"/>
    <path d="M 148.072961 139.054425 
L 148.072961 107.928293 
" clip-path="url(#p1d4f440236)" style="fill: none; stroke: #4169e1; stroke-width: 1.5"/>
    <path d="M 129.421975 129.150656 
L 129.421975 120.661711 
" clip-path="url(#p1d4f440236)" style="fill: none; stroke: #4169e1; stroke-width: 1.5"/>
    <path d="M 103.754874 143.298898 
L 103.754874 126.321007 
" clip-path="url(#p1d4f440236)" style="fill: none; stroke: #4169e1; stroke-width: 1.5"/>
    <path d="M 124.363334 167.350909 
L 124.363334 141.884074 
" clip-path="url(#p1d4f440236)" style="fill: none; stroke: #4169e1; stroke-width: 1.5"/>
    <path d="M 132.589123 159.993823 
L 132.589123 132.263269 
" clip-path="url(#p1d4f440236)" style="fill: none; stroke: #4169e1; stroke-width: 1.5"/>
    <path d="M 97.530547 153.202667 
L 97.530547 130.56548 
" clip-path="url(#p1d4f440236)" style="fill: none; stroke: #4169e1; stroke-width: 1.5"/>
    <path d="M 132.765076 139.054425 
L 132.765076 102.268996 
" clip-path="url(#p1d4f440236)" style="fill: none; stroke: #4169e1; stroke-width: 1.5"/>
    <path d="M 115.30177 124.906183 
L 115.30177 116.417238 
" clip-path="url(#p1d4f440236)" style="fill: none; stroke: #4169e1; stroke-width: 1.5"/>
    <path d="M 65.551142 161.691612 
L 65.551142 130.56548 
" clip-path="url(#p1d4f440236)" style="fill: none; stroke: #4169e1; stroke-width: 1.5"/>
    <path d="M 131.203496 157.44714 
L 131.203496 146.128546 
" clip-path="url(#p1d4f440236)" style="fill: none; stroke: #4169e1; stroke-width: 1.5"/>
    <path d="M 92.537889 161.691612 
L 92.537889 136.224777 
" clip-path="url(#p1d4f440236)" style="fill: none; stroke: #4169e1; stroke-width: 1.5"/>
    <path d="M 160.807538 164.521261 
L 160.807538 133.395128 
" clip-path="url(#p1d4f440236)" style="fill: none; stroke: #4169e1; stroke-width: 1.5"/>
    <path d="M 166.042131 107.928293 
L 166.042131 79.631809 
" clip-path="url(#p1d4f440236)" style="fill: none; stroke: #4169e1; stroke-width: 1.5"/>
    <path d="M 118.292966 131.980304 
L 118.292966 109.343117 
" clip-path="url(#p1d4f440236)" style="fill: none; stroke: #4169e1; stroke-width: 1.5"/>
    <path d="M 151.877939 127.028419 
L 151.877939 108.635705 
" clip-path="url(#p1d4f440236)" style="fill: none; stroke: #4169e1; stroke-width: 1.5"/>
    <path d="M 136.65803 103.68382 
L 136.65803 83.876281 
" clip-path="url(#p1d4f440236)" style="fill: none; stroke: #4169e1; stroke-width: 1.5"/>
    <path d="M 72.831186 139.054425 
L 72.831186 88.120754 
" clip-path="url(#p1d4f440236)" style="fill: none; stroke: #4169e1; stroke-width: 1.5"/>
   </g>
   <g id="line2d_1">
    <defs>
     <path id="m83249deb77" d="M 0 3 
C 0.795609 3 1.55874 2.683901 2.12132 2.12132 
C 2.683901 1.55874 3 0.795609 3 0 
C 3 -0.795609 2.683901 -1.55874 2.12132 -2.12132 
C 1.55874 -2.683901 0.795609 -3 0 -3 
C -0.795609 -3 -1.55874 -2.683901 -2.12132 -2.12132 
C -2.683901 -1.55874 -3 -0.795609 -3 0 
C -3 0.795609 -2.683901 1.55874 -2.12132 2.12132 
C -1.55874 2.683901 -0.795609 3 0 3 
z
" style="stroke: #4169e1"/>
    </defs>
    <g clip-path="url(#p1d4f440236)">
     <use xlink:href="#m83249deb77" x="116.819362" y="122.076535" style="fill: #4169e1; stroke: #4169e1"/>
     <use xlink:href="#m83249deb77" x="133.094987" y="148.958194" style="fill: #4169e1; stroke: #4169e1"/>
     <use xlink:href="#m83249deb77" x="188.893989" y="76.013817" style="fill: #4169e1; stroke: #4169e1"/>
     <use xlink:href="#m83249deb77" x="148.072961" y="123.491359" style="fill: #4169e1; stroke: #4169e1"/>
     <use xlink:href="#m83249deb77" x="129.421975" y="124.906183" style="fill: #4169e1; stroke: #4169e1"/>
     <use xlink:href="#m83249deb77" x="103.754874" y="134.809953" style="fill: #4169e1; stroke: #4169e1"/>
     <use xlink:href="#m83249deb77" x="124.363334" y="154.617491" style="fill: #4169e1; stroke: #4169e1"/>
     <use xlink:href="#m83249deb77" x="132.589123" y="146.128546" style="fill: #4169e1; stroke: #4169e1"/>
     <use xlink:href="#m83249deb77" x="97.530547" y="141.884074" style="fill: #4169e1; stroke: #4169e1"/>
     <use xlink:href="#m83249deb77" x="132.765076" y="120.661711" style="fill: #4169e1; stroke: #4169e1"/>
     <use xlink:href="#m83249deb77" x="115.30177" y="120.661711" style="fill: #4169e1; stroke: #4169e1"/>
     <use xlink:href="#m83249deb77" x="65.551142" y="146.128546" style="fill: #4169e1; stroke: #4169e1"/>
     <use xlink:href="#m83249deb77" x="131.203496" y="151.787843" style="fill: #4169e1; stroke: #4169e1"/>
     <use xlink:href="#m83249deb77" x="92.537889" y="148.958194" style="fill: #4169e1; stroke: #4169e1"/>
     <use xlink:href="#m83249deb77" x="160.807538" y="148.958194" style="fill: #4169e1; stroke: #4169e1"/>
     <use xlink:href="#m83249deb77" x="166.042131" y="93.780051" style="fill: #4169e1; stroke: #4169e1"/>
     <use xlink:href="#m83249deb77" x="118.292966" y="120.661711" style="fill: #4169e1; stroke: #4169e1"/>
     <use xlink:href="#m83249deb77" x="151.877939" y="117.832062" style="fill: #4169e1; stroke: #4169e1"/>
     <use xlink:href="#m83249deb77" x="136.65803" y="93.780051" style="fill: #4169e1; stroke: #4169e1"/>
     <use xlink:href="#m83249deb77" x="72.831186" y="113.58759" style="fill: #4169e1; stroke: #4169e1"/>
    </g>
   </g>
   <g id="matplotlib.axis_1">
    <g id="xtick_1">
     <g id="line2d_2">
      <defs>
       <path id="m8bf5a31b43" d="M 0 0 
L 0 3.5 
" style="stroke: #000000; stroke-width: 0.8"/>
      </defs>
      <g>
       <use xlink:href="#m8bf5a31b43" x="94.825274" y="174.04" style="stroke: #000000; stroke-width: 0.8"/>
      </g>
     </g>
     <g id="text_1">
      <!-- 600 -->
      <g transform="translate(85.281524 188.638438)scale(0.1 -0.1)">
       <defs>
        <path id="DejaVuSans-36" d="M 2113 2584 
Q 1688 2584 1439 2293 
Q 1191 2003 1191 1497 
Q 1191 994 1439 701 
Q 1688 409 2113 409 
Q 2538 409 2786 701 
Q 3034 994 3034 1497 
Q 3034 2003 2786 2293 
Q 2538 2584 2113 2584 
z
M 3366 4563 
L 3366 3988 
Q 3128 4100 2886 4159 
Q 2644 4219 2406 4219 
Q 1781 4219 1451 3797 
Q 1122 3375 1075 2522 
Q 1259 2794 1537 2939 
Q 1816 3084 2150 3084 
Q 2853 3084 3261 2657 
Q 3669 2231 3669 1497 
Q 3669 778 3244 343 
Q 2819 -91 2113 -91 
Q 1303 -91 875 529 
Q 447 1150 447 2328 
Q 447 3434 972 4092 
Q 1497 4750 2381 4750 
Q 2619 4750 2861 4703 
Q 3103 4656 3366 4563 
z
" transform="scale(0.015625)"/>
        <path id="DejaVuSans-30" d="M 2034 4250 
Q 1547 4250 1301 3770 
Q 1056 3291 1056 2328 
Q 1056 1369 1301 889 
Q 1547 409 2034 409 
Q 2525 409 2770 889 
Q 3016 1369 3016 2328 
Q 3016 3291 2770 3770 
Q 2525 4250 2034 4250 
z
M 2034 4750 
Q 2819 4750 3233 4129 
Q 3647 3509 3647 2328 
Q 3647 1150 3233 529 
Q 2819 -91 2034 -91 
Q 1250 -91 836 529 
Q 422 1150 422 2328 
Q 422 3509 836 4129 
Q 1250 4750 2034 4750 
z
" transform="scale(0.015625)"/>
       </defs>
       <use xlink:href="#DejaVuSans-36"/>
       <use xlink:href="#DejaVuSans-30" x="63.623047"/>
       <use xlink:href="#DejaVuSans-30" x="127.246094"/>
      </g>
     </g>
    </g>
    <g id="xtick_2">
     <g id="line2d_3">
      <g>
       <use xlink:href="#m8bf5a31b43" x="138.81345" y="174.04" style="stroke: #000000; stroke-width: 0.8"/>
      </g>
     </g>
     <g id="text_2">
      <!-- 800 -->
      <g transform="translate(129.2697 188.638438)scale(0.1 -0.1)">
       <defs>
        <path id="DejaVuSans-38" d="M 2034 2216 
Q 1584 2216 1326 1975 
Q 1069 1734 1069 1313 
Q 1069 891 1326 650 
Q 1584 409 2034 409 
Q 2484 409 2743 651 
Q 3003 894 3003 1313 
Q 3003 1734 2745 1975 
Q 2488 2216 2034 2216 
z
M 1403 2484 
Q 997 2584 770 2862 
Q 544 3141 544 3541 
Q 544 4100 942 4425 
Q 1341 4750 2034 4750 
Q 2731 4750 3128 4425 
Q 3525 4100 3525 3541 
Q 3525 3141 3298 2862 
Q 3072 2584 2669 2484 
Q 3125 2378 3379 2068 
Q 3634 1759 3634 1313 
Q 3634 634 3220 271 
Q 2806 -91 2034 -91 
Q 1263 -91 848 271 
Q 434 634 434 1313 
Q 434 1759 690 2068 
Q 947 2378 1403 2484 
z
M 1172 3481 
Q 1172 3119 1398 2916 
Q 1625 2713 2034 2713 
Q 2441 2713 2670 2916 
Q 2900 3119 2900 3481 
Q 2900 3844 2670 4047 
Q 2441 4250 2034 4250 
Q 1625 4250 1398 4047 
Q 1172 3844 1172 3481 
z
" transform="scale(0.015625)"/>
       </defs>
       <use xlink:href="#DejaVuSans-38"/>
       <use xlink:href="#DejaVuSans-30" x="63.623047"/>
       <use xlink:href="#DejaVuSans-30" x="127.246094"/>
      </g>
     </g>
    </g>
    <g id="xtick_3">
     <g id="line2d_4">
      <g>
       <use xlink:href="#m8bf5a31b43" x="182.801627" y="174.04" style="stroke: #000000; stroke-width: 0.8"/>
      </g>
     </g>
     <g id="text_3">
      <!-- 1000 -->
      <g transform="translate(170.076627 188.638438)scale(0.1 -0.1)">
       <defs>
        <path id="DejaVuSans-31" d="M 794 531 
L 1825 531 
L 1825 4091 
L 703 3866 
L 703 4441 
L 1819 4666 
L 2450 4666 
L 2450 531 
L 3481 531 
L 3481 0 
L 794 0 
L 794 531 
z
" transform="scale(0.015625)"/>
       </defs>
       <use xlink:href="#DejaVuSans-31"/>
       <use xlink:href="#DejaVuSans-30" x="63.623047"/>
       <use xlink:href="#DejaVuSans-30" x="127.246094"/>
       <use xlink:href="#DejaVuSans-30" x="190.869141"/>
      </g>
     </g>
    </g>
   </g>
   <g id="matplotlib.axis_2">
    <g id="ytick_1">
     <g id="line2d_5">
      <defs>
       <path id="mf1f1451e65" d="M 0 0 
L -3.5 0 
" style="stroke: #000000; stroke-width: 0.8"/>
      </defs>
      <g>
       <use xlink:href="#mf1f1451e65" x="59.384" y="148.958194" style="stroke: #000000; stroke-width: 0.8"/>
      </g>
     </g>
     <g id="text_4">
      <!-- 0.6 -->
      <g transform="translate(36.480875 152.757413)scale(0.1 -0.1)">
       <defs>
        <path id="DejaVuSans-2e" d="M 684 794 
L 1344 794 
L 1344 0 
L 684 0 
L 684 794 
z
" transform="scale(0.015625)"/>
       </defs>
       <use xlink:href="#DejaVuSans-30"/>
       <use xlink:href="#DejaVuSans-2e" x="63.623047"/>
       <use xlink:href="#DejaVuSans-36" x="95.410156"/>
      </g>
     </g>
    </g>
    <g id="ytick_2">
     <g id="line2d_6">
      <g>
       <use xlink:href="#mf1f1451e65" x="59.384" y="120.661711" style="stroke: #000000; stroke-width: 0.8"/>
      </g>
     </g>
     <g id="text_5">
      <!-- 0.8 -->
      <g transform="translate(36.480875 124.460929)scale(0.1 -0.1)">
       <use xlink:href="#DejaVuSans-30"/>
       <use xlink:href="#DejaVuSans-2e" x="63.623047"/>
       <use xlink:href="#DejaVuSans-38" x="95.410156"/>
      </g>
     </g>
    </g>
    <g id="ytick_3">
     <g id="line2d_7">
      <g>
       <use xlink:href="#mf1f1451e65" x="59.384" y="92.365227" style="stroke: #000000; stroke-width: 0.8"/>
      </g>
     </g>
     <g id="text_6">
      <!-- 1.0 -->
      <g transform="translate(36.480875 96.164445)scale(0.1 -0.1)">
       <use xlink:href="#DejaVuSans-31"/>
       <use xlink:href="#DejaVuSans-2e" x="63.623047"/>
       <use xlink:href="#DejaVuSans-30" x="95.410156"/>
      </g>
     </g>
    </g>
    <g id="ytick_4">
     <g id="line2d_8">
      <g>
       <use xlink:href="#mf1f1451e65" x="59.384" y="64.068743" style="stroke: #000000; stroke-width: 0.8"/>
      </g>
     </g>
     <g id="text_7">
      <!-- 1.2 -->
      <g transform="translate(36.480875 67.867961)scale(0.1 -0.1)">
       <defs>
        <path id="DejaVuSans-32" d="M 1228 531 
L 3431 531 
L 3431 0 
L 469 0 
L 469 531 
Q 828 903 1448 1529 
Q 2069 2156 2228 2338 
Q 2531 2678 2651 2914 
Q 2772 3150 2772 3378 
Q 2772 3750 2511 3984 
Q 2250 4219 1831 4219 
Q 1534 4219 1204 4116 
Q 875 4013 500 3803 
L 500 4441 
Q 881 4594 1212 4672 
Q 1544 4750 1819 4750 
Q 2544 4750 2975 4387 
Q 3406 4025 3406 3419 
Q 3406 3131 3298 2873 
Q 3191 2616 2906 2266 
Q 2828 2175 2409 1742 
Q 1991 1309 1228 531 
z
" transform="scale(0.015625)"/>
       </defs>
       <use xlink:href="#DejaVuSans-31"/>
       <use xlink:href="#DejaVuSans-2e" x="63.623047"/>
       <use xlink:href="#DejaVuSans-32" x="95.410156"/>
      </g>
     </g>
    </g>
    <g id="ytick_5">
     <g id="line2d_9">
      <g>
       <use xlink:href="#mf1f1451e65" x="59.384" y="35.772259" style="stroke: #000000; stroke-width: 0.8"/>
      </g>
     </g>
     <g id="text_8">
      <!-- 1.4 -->
      <g transform="translate(36.480875 39.571477)scale(0.1 -0.1)">
       <defs>
        <path id="DejaVuSans-34" d="M 2419 4116 
L 825 1625 
L 2419 1625 
L 2419 4116 
z
M 2253 4666 
L 3047 4666 
L 3047 1625 
L 3713 1625 
L 3713 1100 
L 3047 1100 
L 3047 0 
L 2419 0 
L 2419 1100 
L 313 1100 
L 313 1709 
L 2253 4666 
z
" transform="scale(0.015625)"/>
       </defs>
       <use xlink:href="#DejaVuSans-31"/>
       <use xlink:href="#DejaVuSans-2e" x="63.623047"/>
       <use xlink:href="#DejaVuSans-34" x="95.410156"/>
      </g>
     </g>
    </g>
    <g id="text_9">
     <!-- Fraction of ET from Summer -->
     <g transform="translate(19.203375 170.656875)rotate(-90)scale(0.1 -0.1)">
      <defs>
       <path id="DejaVuSans-46" d="M 628 4666 
L 3309 4666 
L 3309 4134 
L 1259 4134 
L 1259 2759 
L 3109 2759 
L 3109 2228 
L 1259 2228 
L 1259 0 
L 628 0 
L 628 4666 
z
" transform="scale(0.015625)"/>
       <path id="DejaVuSans-72" d="M 2631 2963 
Q 2534 3019 2420 3045 
Q 2306 3072 2169 3072 
Q 1681 3072 1420 2755 
Q 1159 2438 1159 1844 
L 1159 0 
L 581 0 
L 581 3500 
L 1159 3500 
L 1159 2956 
Q 1341 3275 1631 3429 
Q 1922 3584 2338 3584 
Q 2397 3584 2469 3576 
Q 2541 3569 2628 3553 
L 2631 2963 
z
" transform="scale(0.015625)"/>
       <path id="DejaVuSans-61" d="M 2194 1759 
Q 1497 1759 1228 1600 
Q 959 1441 959 1056 
Q 959 750 1161 570 
Q 1363 391 1709 391 
Q 2188 391 2477 730 
Q 2766 1069 2766 1631 
L 2766 1759 
L 2194 1759 
z
M 3341 1997 
L 3341 0 
L 2766 0 
L 2766 531 
Q 2569 213 2275 61 
Q 1981 -91 1556 -91 
Q 1019 -91 701 211 
Q 384 513 384 1019 
Q 384 1609 779 1909 
Q 1175 2209 1959 2209 
L 2766 2209 
L 2766 2266 
Q 2766 2663 2505 2880 
Q 2244 3097 1772 3097 
Q 1472 3097 1187 3025 
Q 903 2953 641 2809 
L 641 3341 
Q 956 3463 1253 3523 
Q 1550 3584 1831 3584 
Q 2591 3584 2966 3190 
Q 3341 2797 3341 1997 
z
" transform="scale(0.015625)"/>
       <path id="DejaVuSans-63" d="M 3122 3366 
L 3122 2828 
Q 2878 2963 2633 3030 
Q 2388 3097 2138 3097 
Q 1578 3097 1268 2742 
Q 959 2388 959 1747 
Q 959 1106 1268 751 
Q 1578 397 2138 397 
Q 2388 397 2633 464 
Q 2878 531 3122 666 
L 3122 134 
Q 2881 22 2623 -34 
Q 2366 -91 2075 -91 
Q 1284 -91 818 406 
Q 353 903 353 1747 
Q 353 2603 823 3093 
Q 1294 3584 2113 3584 
Q 2378 3584 2631 3529 
Q 2884 3475 3122 3366 
z
" transform="scale(0.015625)"/>
       <path id="DejaVuSans-74" d="M 1172 4494 
L 1172 3500 
L 2356 3500 
L 2356 3053 
L 1172 3053 
L 1172 1153 
Q 1172 725 1289 603 
Q 1406 481 1766 481 
L 2356 481 
L 2356 0 
L 1766 0 
Q 1100 0 847 248 
Q 594 497 594 1153 
L 594 3053 
L 172 3053 
L 172 3500 
L 594 3500 
L 594 4494 
L 1172 4494 
z
" transform="scale(0.015625)"/>
       <path id="DejaVuSans-69" d="M 603 3500 
L 1178 3500 
L 1178 0 
L 603 0 
L 603 3500 
z
M 603 4863 
L 1178 4863 
L 1178 4134 
L 603 4134 
L 603 4863 
z
" transform="scale(0.015625)"/>
       <path id="DejaVuSans-6f" d="M 1959 3097 
Q 1497 3097 1228 2736 
Q 959 2375 959 1747 
Q 959 1119 1226 758 
Q 1494 397 1959 397 
Q 2419 397 2687 759 
Q 2956 1122 2956 1747 
Q 2956 2369 2687 2733 
Q 2419 3097 1959 3097 
z
M 1959 3584 
Q 2709 3584 3137 3096 
Q 3566 2609 3566 1747 
Q 3566 888 3137 398 
Q 2709 -91 1959 -91 
Q 1206 -91 779 398 
Q 353 888 353 1747 
Q 353 2609 779 3096 
Q 1206 3584 1959 3584 
z
" transform="scale(0.015625)"/>
       <path id="DejaVuSans-6e" d="M 3513 2113 
L 3513 0 
L 2938 0 
L 2938 2094 
Q 2938 2591 2744 2837 
Q 2550 3084 2163 3084 
Q 1697 3084 1428 2787 
Q 1159 2491 1159 1978 
L 1159 0 
L 581 0 
L 581 3500 
L 1159 3500 
L 1159 2956 
Q 1366 3272 1645 3428 
Q 1925 3584 2291 3584 
Q 2894 3584 3203 3211 
Q 3513 2838 3513 2113 
z
" transform="scale(0.015625)"/>
       <path id="DejaVuSans-20" transform="scale(0.015625)"/>
       <path id="DejaVuSans-66" d="M 2375 4863 
L 2375 4384 
L 1825 4384 
Q 1516 4384 1395 4259 
Q 1275 4134 1275 3809 
L 1275 3500 
L 2222 3500 
L 2222 3053 
L 1275 3053 
L 1275 0 
L 697 0 
L 697 3053 
L 147 3053 
L 147 3500 
L 697 3500 
L 697 3744 
Q 697 4328 969 4595 
Q 1241 4863 1831 4863 
L 2375 4863 
z
" transform="scale(0.015625)"/>
       <path id="DejaVuSans-45" d="M 628 4666 
L 3578 4666 
L 3578 4134 
L 1259 4134 
L 1259 2753 
L 3481 2753 
L 3481 2222 
L 1259 2222 
L 1259 531 
L 3634 531 
L 3634 0 
L 628 0 
L 628 4666 
z
" transform="scale(0.015625)"/>
       <path id="DejaVuSans-54" d="M -19 4666 
L 3928 4666 
L 3928 4134 
L 2272 4134 
L 2272 0 
L 1638 0 
L 1638 4134 
L -19 4134 
L -19 4666 
z
" transform="scale(0.015625)"/>
       <path id="DejaVuSans-6d" d="M 3328 2828 
Q 3544 3216 3844 3400 
Q 4144 3584 4550 3584 
Q 5097 3584 5394 3201 
Q 5691 2819 5691 2113 
L 5691 0 
L 5113 0 
L 5113 2094 
Q 5113 2597 4934 2840 
Q 4756 3084 4391 3084 
Q 3944 3084 3684 2787 
Q 3425 2491 3425 1978 
L 3425 0 
L 2847 0 
L 2847 2094 
Q 2847 2600 2669 2842 
Q 2491 3084 2119 3084 
Q 1678 3084 1418 2786 
Q 1159 2488 1159 1978 
L 1159 0 
L 581 0 
L 581 3500 
L 1159 3500 
L 1159 2956 
Q 1356 3278 1631 3431 
Q 1906 3584 2284 3584 
Q 2666 3584 2933 3390 
Q 3200 3197 3328 2828 
z
" transform="scale(0.015625)"/>
       <path id="DejaVuSans-53" d="M 3425 4513 
L 3425 3897 
Q 3066 4069 2747 4153 
Q 2428 4238 2131 4238 
Q 1616 4238 1336 4038 
Q 1056 3838 1056 3469 
Q 1056 3159 1242 3001 
Q 1428 2844 1947 2747 
L 2328 2669 
Q 3034 2534 3370 2195 
Q 3706 1856 3706 1288 
Q 3706 609 3251 259 
Q 2797 -91 1919 -91 
Q 1588 -91 1214 -16 
Q 841 59 441 206 
L 441 856 
Q 825 641 1194 531 
Q 1563 422 1919 422 
Q 2459 422 2753 634 
Q 3047 847 3047 1241 
Q 3047 1584 2836 1778 
Q 2625 1972 2144 2069 
L 1759 2144 
Q 1053 2284 737 2584 
Q 422 2884 422 3419 
Q 422 4038 858 4394 
Q 1294 4750 2059 4750 
Q 2388 4750 2728 4690 
Q 3069 4631 3425 4513 
z
" transform="scale(0.015625)"/>
       <path id="DejaVuSans-75" d="M 544 1381 
L 544 3500 
L 1119 3500 
L 1119 1403 
Q 1119 906 1312 657 
Q 1506 409 1894 409 
Q 2359 409 2629 706 
Q 2900 1003 2900 1516 
L 2900 3500 
L 3475 3500 
L 3475 0 
L 2900 0 
L 2900 538 
Q 2691 219 2414 64 
Q 2138 -91 1772 -91 
Q 1169 -91 856 284 
Q 544 659 544 1381 
z
M 1991 3584 
L 1991 3584 
z
" transform="scale(0.015625)"/>
       <path id="DejaVuSans-65" d="M 3597 1894 
L 3597 1613 
L 953 1613 
Q 991 1019 1311 708 
Q 1631 397 2203 397 
Q 2534 397 2845 478 
Q 3156 559 3463 722 
L 3463 178 
Q 3153 47 2828 -22 
Q 2503 -91 2169 -91 
Q 1331 -91 842 396 
Q 353 884 353 1716 
Q 353 2575 817 3079 
Q 1281 3584 2069 3584 
Q 2775 3584 3186 3129 
Q 3597 2675 3597 1894 
z
M 3022 2063 
Q 3016 2534 2758 2815 
Q 2500 3097 2075 3097 
Q 1594 3097 1305 2825 
Q 1016 2553 972 2059 
L 3022 2063 
z
" transform="scale(0.015625)"/>
      </defs>
      <use xlink:href="#DejaVuSans-46"/>
      <use xlink:href="#DejaVuSans-72" x="50.269531"/>
      <use xlink:href="#DejaVuSans-61" x="91.382812"/>
      <use xlink:href="#DejaVuSans-63" x="152.662109"/>
      <use xlink:href="#DejaVuSans-74" x="207.642578"/>
      <use xlink:href="#DejaVuSans-69" x="246.851562"/>
      <use xlink:href="#DejaVuSans-6f" x="274.634766"/>
      <use xlink:href="#DejaVuSans-6e" x="335.816406"/>
      <use xlink:href="#DejaVuSans-20" x="399.195312"/>
      <use xlink:href="#DejaVuSans-6f" x="430.982422"/>
      <use xlink:href="#DejaVuSans-66" x="492.164062"/>
      <use xlink:href="#DejaVuSans-20" x="527.369141"/>
      <use xlink:href="#DejaVuSans-45" x="559.15625"/>
      <use xlink:href="#DejaVuSans-54" x="622.339844"/>
      <use xlink:href="#DejaVuSans-20" x="683.423828"/>
      <use xlink:href="#DejaVuSans-66" x="715.210938"/>
      <use xlink:href="#DejaVuSans-72" x="750.416016"/>
      <use xlink:href="#DejaVuSans-6f" x="789.279297"/>
      <use xlink:href="#DejaVuSans-6d" x="850.460938"/>
      <use xlink:href="#DejaVuSans-20" x="947.873047"/>
      <use xlink:href="#DejaVuSans-53" x="979.660156"/>
      <use xlink:href="#DejaVuSans-75" x="1043.136719"/>
      <use xlink:href="#DejaVuSans-6d" x="1106.515625"/>
      <use xlink:href="#DejaVuSans-6d" x="1203.927734"/>
      <use xlink:href="#DejaVuSans-65" x="1301.339844"/>
      <use xlink:href="#DejaVuSans-72" x="1362.863281"/>
     </g>
     <!-- Precipitation (unitless) -->
     <g transform="translate(30.401188 156.562344)rotate(-90)scale(0.1 -0.1)">
      <defs>
       <path id="DejaVuSans-50" d="M 1259 4147 
L 1259 2394 
L 2053 2394 
Q 2494 2394 2734 2622 
Q 2975 2850 2975 3272 
Q 2975 3691 2734 3919 
Q 2494 4147 2053 4147 
L 1259 4147 
z
M 628 4666 
L 2053 4666 
Q 2838 4666 3239 4311 
Q 3641 3956 3641 3272 
Q 3641 2581 3239 2228 
Q 2838 1875 2053 1875 
L 1259 1875 
L 1259 0 
L 628 0 
L 628 4666 
z
" transform="scale(0.015625)"/>
       <path id="DejaVuSans-70" d="M 1159 525 
L 1159 -1331 
L 581 -1331 
L 581 3500 
L 1159 3500 
L 1159 2969 
Q 1341 3281 1617 3432 
Q 1894 3584 2278 3584 
Q 2916 3584 3314 3078 
Q 3713 2572 3713 1747 
Q 3713 922 3314 415 
Q 2916 -91 2278 -91 
Q 1894 -91 1617 61 
Q 1341 213 1159 525 
z
M 3116 1747 
Q 3116 2381 2855 2742 
Q 2594 3103 2138 3103 
Q 1681 3103 1420 2742 
Q 1159 2381 1159 1747 
Q 1159 1113 1420 752 
Q 1681 391 2138 391 
Q 2594 391 2855 752 
Q 3116 1113 3116 1747 
z
" transform="scale(0.015625)"/>
       <path id="DejaVuSans-28" d="M 1984 4856 
Q 1566 4138 1362 3434 
Q 1159 2731 1159 2009 
Q 1159 1288 1364 580 
Q 1569 -128 1984 -844 
L 1484 -844 
Q 1016 -109 783 600 
Q 550 1309 550 2009 
Q 550 2706 781 3412 
Q 1013 4119 1484 4856 
L 1984 4856 
z
" transform="scale(0.015625)"/>
       <path id="DejaVuSans-6c" d="M 603 4863 
L 1178 4863 
L 1178 0 
L 603 0 
L 603 4863 
z
" transform="scale(0.015625)"/>
       <path id="DejaVuSans-73" d="M 2834 3397 
L 2834 2853 
Q 2591 2978 2328 3040 
Q 2066 3103 1784 3103 
Q 1356 3103 1142 2972 
Q 928 2841 928 2578 
Q 928 2378 1081 2264 
Q 1234 2150 1697 2047 
L 1894 2003 
Q 2506 1872 2764 1633 
Q 3022 1394 3022 966 
Q 3022 478 2636 193 
Q 2250 -91 1575 -91 
Q 1294 -91 989 -36 
Q 684 19 347 128 
L 347 722 
Q 666 556 975 473 
Q 1284 391 1588 391 
Q 1994 391 2212 530 
Q 2431 669 2431 922 
Q 2431 1156 2273 1281 
Q 2116 1406 1581 1522 
L 1381 1569 
Q 847 1681 609 1914 
Q 372 2147 372 2553 
Q 372 3047 722 3315 
Q 1072 3584 1716 3584 
Q 2034 3584 2315 3537 
Q 2597 3491 2834 3397 
z
" transform="scale(0.015625)"/>
       <path id="DejaVuSans-29" d="M 513 4856 
L 1013 4856 
Q 1481 4119 1714 3412 
Q 1947 2706 1947 2009 
Q 1947 1309 1714 600 
Q 1481 -109 1013 -844 
L 513 -844 
Q 928 -128 1133 580 
Q 1338 1288 1338 2009 
Q 1338 2731 1133 3434 
Q 928 4138 513 4856 
z
" transform="scale(0.015625)"/>
      </defs>
      <use xlink:href="#DejaVuSans-50"/>
      <use xlink:href="#DejaVuSans-72" x="58.552734"/>
      <use xlink:href="#DejaVuSans-65" x="97.416016"/>
      <use xlink:href="#DejaVuSans-63" x="158.939453"/>
      <use xlink:href="#DejaVuSans-69" x="213.919922"/>
      <use xlink:href="#DejaVuSans-70" x="241.703125"/>
      <use xlink:href="#DejaVuSans-69" x="305.179688"/>
      <use xlink:href="#DejaVuSans-74" x="332.962891"/>
      <use xlink:href="#DejaVuSans-61" x="372.171875"/>
      <use xlink:href="#DejaVuSans-74" x="433.451172"/>
      <use xlink:href="#DejaVuSans-69" x="472.660156"/>
      <use xlink:href="#DejaVuSans-6f" x="500.443359"/>
      <use xlink:href="#DejaVuSans-6e" x="561.625"/>
      <use xlink:href="#DejaVuSans-20" x="625.003906"/>
      <use xlink:href="#DejaVuSans-28" x="656.791016"/>
      <use xlink:href="#DejaVuSans-75" x="695.804688"/>
      <use xlink:href="#DejaVuSans-6e" x="759.183594"/>
      <use xlink:href="#DejaVuSans-69" x="822.5625"/>
      <use xlink:href="#DejaVuSans-74" x="850.345703"/>
      <use xlink:href="#DejaVuSans-6c" x="889.554688"/>
      <use xlink:href="#DejaVuSans-65" x="917.337891"/>
      <use xlink:href="#DejaVuSans-73" x="978.861328"/>
      <use xlink:href="#DejaVuSans-73" x="1030.960938"/>
      <use xlink:href="#DejaVuSans-29" x="1083.060547"/>
     </g>
    </g>
   </g>
   <g id="line2d_10">
    <path d="M 116.819362 130.991877 
L 133.094987 126.515117 
L 188.893989 111.167088 
L 148.072961 122.395287 
L 129.421975 127.525413 
L 103.754874 134.585385 
L 124.363334 128.916838 
L 132.589123 126.654259 
L 97.530547 136.297443 
L 132.765076 126.605862 
L 115.30177 131.409305 
L 65.551142 145.093673 
L 131.203496 127.035389 
L 92.537889 137.67072 
L 160.807538 118.892524 
L 166.042131 117.452702 
L 118.292966 130.586549 
L 151.877939 121.348693 
L 136.65803 125.535069 
L 72.831186 143.09123 
" clip-path="url(#p1d4f440236)" style="fill: none; stroke: #000000; stroke-width: 1.5; stroke-linecap: square"/>
   </g>
   <g id="patch_3">
    <path d="M 59.384 174.04 
L 59.384 26.88 
" style="fill: none; stroke: #000000; stroke-width: 0.8; stroke-linejoin: miter; stroke-linecap: square"/>
   </g>
   <g id="patch_4">
    <path d="M 195.061131 174.04 
L 195.061131 26.88 
" style="fill: none; stroke: #000000; stroke-width: 0.8; stroke-linejoin: miter; stroke-linecap: square"/>
   </g>
   <g id="patch_5">
    <path d="M 59.384 174.04 
L 195.061131 174.04 
" style="fill: none; stroke: #000000; stroke-width: 0.8; stroke-linejoin: miter; stroke-linecap: square"/>
   </g>
   <g id="patch_6">
    <path d="M 59.384 26.88 
L 195.061131 26.88 
" style="fill: none; stroke: #000000; stroke-width: 0.8; stroke-linejoin: miter; stroke-linecap: square"/>
   </g>
   <g id="text_10">
    <!-- Lag 0 -->
    <g transform="translate(110.669128 20.88)scale(0.12 -0.12)">
     <defs>
      <path id="DejaVuSans-4c" d="M 628 4666 
L 1259 4666 
L 1259 531 
L 3531 531 
L 3531 0 
L 628 0 
L 628 4666 
z
" transform="scale(0.015625)"/>
      <path id="DejaVuSans-67" d="M 2906 1791 
Q 2906 2416 2648 2759 
Q 2391 3103 1925 3103 
Q 1463 3103 1205 2759 
Q 947 2416 947 1791 
Q 947 1169 1205 825 
Q 1463 481 1925 481 
Q 2391 481 2648 825 
Q 2906 1169 2906 1791 
z
M 3481 434 
Q 3481 -459 3084 -895 
Q 2688 -1331 1869 -1331 
Q 1566 -1331 1297 -1286 
Q 1028 -1241 775 -1147 
L 775 -588 
Q 1028 -725 1275 -790 
Q 1522 -856 1778 -856 
Q 2344 -856 2625 -561 
Q 2906 -266 2906 331 
L 2906 616 
Q 2728 306 2450 153 
Q 2172 0 1784 0 
Q 1141 0 747 490 
Q 353 981 353 1791 
Q 353 2603 747 3093 
Q 1141 3584 1784 3584 
Q 2172 3584 2450 3431 
Q 2728 3278 2906 2969 
L 2906 3500 
L 3481 3500 
L 3481 434 
z
" transform="scale(0.015625)"/>
     </defs>
     <use xlink:href="#DejaVuSans-4c"/>
     <use xlink:href="#DejaVuSans-61" x="55.712891"/>
     <use xlink:href="#DejaVuSans-67" x="116.992188"/>
     <use xlink:href="#DejaVuSans-20" x="180.46875"/>
     <use xlink:href="#DejaVuSans-30" x="212.255859"/>
    </g>
   </g>
  </g>
  <g id="axes_2">
   <g id="patch_7">
    <path d="M 244.062667 174.04 
L 379.739798 174.04 
L 379.739798 26.88 
L 244.062667 26.88 
z
" style="fill: #ffffff"/>
   </g>
   <g id="LineCollection_2">
    <path d="M 317.773654 146.481812 
L 317.773654 125.556132 
" clip-path="url(#p46bebdfc52)" style="fill: none; stroke: #4169e1; stroke-width: 1.5"/>
    <path d="M 373.572656 167.350909 
L 373.572656 104.573871 
" clip-path="url(#p46bebdfc52)" style="fill: none; stroke: #4169e1; stroke-width: 1.5"/>
    <path d="M 332.751628 105.690702 
L 332.751628 82.672455 
" clip-path="url(#p46bebdfc52)" style="fill: none; stroke: #4169e1; stroke-width: 1.5"/>
    <path d="M 314.100641 139.225161 
L 314.100641 132.947457 
" clip-path="url(#p46bebdfc52)" style="fill: none; stroke: #4169e1; stroke-width: 1.5"/>
    <path d="M 288.43354 131.666241 
L 288.43354 119.110833 
" clip-path="url(#p46bebdfc52)" style="fill: none; stroke: #4169e1; stroke-width: 1.5"/>
    <path d="M 309.042001 72.233855 
L 309.042001 53.400744 
" clip-path="url(#p46bebdfc52)" style="fill: none; stroke: #4169e1; stroke-width: 1.5"/>
    <path d="M 317.26779 135.929881 
L 317.26779 115.422715 
" clip-path="url(#p46bebdfc52)" style="fill: none; stroke: #4169e1; stroke-width: 1.5"/>
    <path d="M 282.209213 50.309634 
L 282.209213 33.569091 
" clip-path="url(#p46bebdfc52)" style="fill: none; stroke: #4169e1; stroke-width: 1.5"/>
    <path d="M 317.443743 97.412921 
L 317.443743 70.209538 
" clip-path="url(#p46bebdfc52)" style="fill: none; stroke: #4169e1; stroke-width: 1.5"/>
    <path d="M 299.980437 118.399863 
L 299.980437 112.122159 
" clip-path="url(#p46bebdfc52)" style="fill: none; stroke: #4169e1; stroke-width: 1.5"/>
    <path d="M 250.229809 123.616855 
L 250.229809 100.598607 
" clip-path="url(#p46bebdfc52)" style="fill: none; stroke: #4169e1; stroke-width: 1.5"/>
    <path d="M 315.882162 98.49932 
L 315.882162 90.129048 
" clip-path="url(#p46bebdfc52)" style="fill: none; stroke: #4169e1; stroke-width: 1.5"/>
    <path d="M 277.216555 93.212432 
L 277.216555 74.379321 
" clip-path="url(#p46bebdfc52)" style="fill: none; stroke: #4169e1; stroke-width: 1.5"/>
    <path d="M 345.486205 116.276992 
L 345.486205 93.258745 
" clip-path="url(#p46bebdfc52)" style="fill: none; stroke: #4169e1; stroke-width: 1.5"/>
    <path d="M 350.720798 62.827769 
L 350.720798 41.902089 
" clip-path="url(#p46bebdfc52)" style="fill: none; stroke: #4169e1; stroke-width: 1.5"/>
    <path d="M 302.971633 92.206769 
L 302.971633 75.466225 
" clip-path="url(#p46bebdfc52)" style="fill: none; stroke: #4169e1; stroke-width: 1.5"/>
    <path d="M 336.556605 142.971359 
L 336.556605 129.369667 
" clip-path="url(#p46bebdfc52)" style="fill: none; stroke: #4169e1; stroke-width: 1.5"/>
    <path d="M 321.336696 112.113243 
L 321.336696 97.465267 
" clip-path="url(#p46bebdfc52)" style="fill: none; stroke: #4169e1; stroke-width: 1.5"/>
    <path d="M 257.509852 134.987736 
L 257.509852 97.321513 
" clip-path="url(#p46bebdfc52)" style="fill: none; stroke: #4169e1; stroke-width: 1.5"/>
   </g>
   <g id="line2d_11">
    <g clip-path="url(#p46bebdfc52)">
     <use xlink:href="#m83249deb77" x="317.773654" y="136.018972" style="fill: #4169e1; stroke: #4169e1"/>
     <use xlink:href="#m83249deb77" x="373.572656" y="135.96239" style="fill: #4169e1; stroke: #4169e1"/>
     <use xlink:href="#m83249deb77" x="332.751628" y="94.181579" style="fill: #4169e1; stroke: #4169e1"/>
     <use xlink:href="#m83249deb77" x="314.100641" y="136.086309" style="fill: #4169e1; stroke: #4169e1"/>
     <use xlink:href="#m83249deb77" x="288.43354" y="125.388537" style="fill: #4169e1; stroke: #4169e1"/>
     <use xlink:href="#m83249deb77" x="309.042001" y="62.8173" style="fill: #4169e1; stroke: #4169e1"/>
     <use xlink:href="#m83249deb77" x="317.26779" y="125.676298" style="fill: #4169e1; stroke: #4169e1"/>
     <use xlink:href="#m83249deb77" x="282.209213" y="41.939363" style="fill: #4169e1; stroke: #4169e1"/>
     <use xlink:href="#m83249deb77" x="317.443743" y="83.81123" style="fill: #4169e1; stroke: #4169e1"/>
     <use xlink:href="#m83249deb77" x="299.980437" y="115.261011" style="fill: #4169e1; stroke: #4169e1"/>
     <use xlink:href="#m83249deb77" x="250.229809" y="112.107731" style="fill: #4169e1; stroke: #4169e1"/>
     <use xlink:href="#m83249deb77" x="315.882162" y="94.314184" style="fill: #4169e1; stroke: #4169e1"/>
     <use xlink:href="#m83249deb77" x="277.216555" y="83.795876" style="fill: #4169e1; stroke: #4169e1"/>
     <use xlink:href="#m83249deb77" x="345.486205" y="104.767869" style="fill: #4169e1; stroke: #4169e1"/>
     <use xlink:href="#m83249deb77" x="350.720798" y="52.364929" style="fill: #4169e1; stroke: #4169e1"/>
     <use xlink:href="#m83249deb77" x="302.971633" y="83.836497" style="fill: #4169e1; stroke: #4169e1"/>
     <use xlink:href="#m83249deb77" x="336.556605" y="136.170513" style="fill: #4169e1; stroke: #4169e1"/>
     <use xlink:href="#m83249deb77" x="321.336696" y="104.789255" style="fill: #4169e1; stroke: #4169e1"/>
     <use xlink:href="#m83249deb77" x="257.509852" y="116.154625" style="fill: #4169e1; stroke: #4169e1"/>
    </g>
   </g>
   <g id="matplotlib.axis_3">
    <g id="xtick_4">
     <g id="line2d_12">
      <g>
       <use xlink:href="#m8bf5a31b43" x="279.50394" y="174.04" style="stroke: #000000; stroke-width: 0.8"/>
      </g>
     </g>
     <g id="text_11">
      <!-- 600 -->
      <g transform="translate(269.96019 188.638438)scale(0.1 -0.1)">
       <use xlink:href="#DejaVuSans-36"/>
       <use xlink:href="#DejaVuSans-30" x="63.623047"/>
       <use xlink:href="#DejaVuSans-30" x="127.246094"/>
      </g>
     </g>
    </g>
    <g id="xtick_5">
     <g id="line2d_13">
      <g>
       <use xlink:href="#m8bf5a31b43" x="323.492117" y="174.04" style="stroke: #000000; stroke-width: 0.8"/>
      </g>
     </g>
     <g id="text_12">
      <!-- 800 -->
      <g transform="translate(313.948367 188.638438)scale(0.1 -0.1)">
       <use xlink:href="#DejaVuSans-38"/>
       <use xlink:href="#DejaVuSans-30" x="63.623047"/>
       <use xlink:href="#DejaVuSans-30" x="127.246094"/>
      </g>
     </g>
    </g>
    <g id="xtick_6">
     <g id="line2d_14">
      <g>
       <use xlink:href="#m8bf5a31b43" x="367.480293" y="174.04" style="stroke: #000000; stroke-width: 0.8"/>
      </g>
     </g>
     <g id="text_13">
      <!-- 1000 -->
      <g transform="translate(354.755293 188.638438)scale(0.1 -0.1)">
       <use xlink:href="#DejaVuSans-31"/>
       <use xlink:href="#DejaVuSans-30" x="63.623047"/>
       <use xlink:href="#DejaVuSans-30" x="127.246094"/>
       <use xlink:href="#DejaVuSans-30" x="190.869141"/>
      </g>
     </g>
    </g>
    <g id="text_14">
     <!-- Summer Precipitation (mm) -->
     <g transform="translate(242.615295 202.316563)scale(0.1 -0.1)">
      <use xlink:href="#DejaVuSans-53"/>
      <use xlink:href="#DejaVuSans-75" x="63.476562"/>
      <use xlink:href="#DejaVuSans-6d" x="126.855469"/>
      <use xlink:href="#DejaVuSans-6d" x="224.267578"/>
      <use xlink:href="#DejaVuSans-65" x="321.679688"/>
      <use xlink:href="#DejaVuSans-72" x="383.203125"/>
      <use xlink:href="#DejaVuSans-20" x="424.316406"/>
      <use xlink:href="#DejaVuSans-50" x="456.103516"/>
      <use xlink:href="#DejaVuSans-72" x="514.65625"/>
      <use xlink:href="#DejaVuSans-65" x="553.519531"/>
      <use xlink:href="#DejaVuSans-63" x="615.042969"/>
      <use xlink:href="#DejaVuSans-69" x="670.023438"/>
      <use xlink:href="#DejaVuSans-70" x="697.806641"/>
      <use xlink:href="#DejaVuSans-69" x="761.283203"/>
      <use xlink:href="#DejaVuSans-74" x="789.066406"/>
      <use xlink:href="#DejaVuSans-61" x="828.275391"/>
      <use xlink:href="#DejaVuSans-74" x="889.554688"/>
      <use xlink:href="#DejaVuSans-69" x="928.763672"/>
      <use xlink:href="#DejaVuSans-6f" x="956.546875"/>
      <use xlink:href="#DejaVuSans-6e" x="1017.728516"/>
      <use xlink:href="#DejaVuSans-20" x="1081.107422"/>
      <use xlink:href="#DejaVuSans-28" x="1112.894531"/>
      <use xlink:href="#DejaVuSans-6d" x="1151.908203"/>
      <use xlink:href="#DejaVuSans-6d" x="1249.320312"/>
      <use xlink:href="#DejaVuSans-29" x="1346.732422"/>
     </g>
    </g>
   </g>
   <g id="matplotlib.axis_4">
    <g id="ytick_6">
     <g id="line2d_15">
      <g>
       <use xlink:href="#mf1f1451e65" x="244.062667" y="162.370213" style="stroke: #000000; stroke-width: 0.8"/>
      </g>
     </g>
     <g id="text_15">
      <!-- −0.25 -->
      <g transform="translate(206.417354 166.169432)scale(0.1 -0.1)">
       <defs>
        <path id="DejaVuSans-2212" d="M 678 2272 
L 4684 2272 
L 4684 1741 
L 678 1741 
L 678 2272 
z
" transform="scale(0.015625)"/>
        <path id="DejaVuSans-35" d="M 691 4666 
L 3169 4666 
L 3169 4134 
L 1269 4134 
L 1269 2991 
Q 1406 3038 1543 3061 
Q 1681 3084 1819 3084 
Q 2600 3084 3056 2656 
Q 3513 2228 3513 1497 
Q 3513 744 3044 326 
Q 2575 -91 1722 -91 
Q 1428 -91 1123 -41 
Q 819 9 494 109 
L 494 744 
Q 775 591 1075 516 
Q 1375 441 1709 441 
Q 2250 441 2565 725 
Q 2881 1009 2881 1497 
Q 2881 1984 2565 2268 
Q 2250 2553 1709 2553 
Q 1456 2553 1204 2497 
Q 953 2441 691 2322 
L 691 4666 
z
" transform="scale(0.015625)"/>
       </defs>
       <use xlink:href="#DejaVuSans-2212"/>
       <use xlink:href="#DejaVuSans-30" x="83.789062"/>
       <use xlink:href="#DejaVuSans-2e" x="147.412109"/>
       <use xlink:href="#DejaVuSans-32" x="179.199219"/>
       <use xlink:href="#DejaVuSans-35" x="242.822266"/>
      </g>
     </g>
    </g>
    <g id="ytick_7">
     <g id="line2d_16">
      <g>
       <use xlink:href="#mf1f1451e65" x="244.062667" y="136.213114" style="stroke: #000000; stroke-width: 0.8"/>
      </g>
     </g>
     <g id="text_16">
      <!-- 0.00 -->
      <g transform="translate(214.797042 140.012332)scale(0.1 -0.1)">
       <use xlink:href="#DejaVuSans-30"/>
       <use xlink:href="#DejaVuSans-2e" x="63.623047"/>
       <use xlink:href="#DejaVuSans-30" x="95.410156"/>
       <use xlink:href="#DejaVuSans-30" x="159.033203"/>
      </g>
     </g>
    </g>
    <g id="ytick_8">
     <g id="line2d_17">
      <g>
       <use xlink:href="#mf1f1451e65" x="244.062667" y="110.056014" style="stroke: #000000; stroke-width: 0.8"/>
      </g>
     </g>
     <g id="text_17">
      <!-- 0.25 -->
      <g transform="translate(214.797042 113.855233)scale(0.1 -0.1)">
       <use xlink:href="#DejaVuSans-30"/>
       <use xlink:href="#DejaVuSans-2e" x="63.623047"/>
       <use xlink:href="#DejaVuSans-32" x="95.410156"/>
       <use xlink:href="#DejaVuSans-35" x="159.033203"/>
      </g>
     </g>
    </g>
    <g id="ytick_9">
     <g id="line2d_18">
      <g>
       <use xlink:href="#mf1f1451e65" x="244.062667" y="83.898915" style="stroke: #000000; stroke-width: 0.8"/>
      </g>
     </g>
     <g id="text_18">
      <!-- 0.50 -->
      <g transform="translate(214.797042 87.698134)scale(0.1 -0.1)">
       <use xlink:href="#DejaVuSans-30"/>
       <use xlink:href="#DejaVuSans-2e" x="63.623047"/>
       <use xlink:href="#DejaVuSans-35" x="95.410156"/>
       <use xlink:href="#DejaVuSans-30" x="159.033203"/>
      </g>
     </g>
    </g>
    <g id="ytick_10">
     <g id="line2d_19">
      <g>
       <use xlink:href="#mf1f1451e65" x="244.062667" y="57.741816" style="stroke: #000000; stroke-width: 0.8"/>
      </g>
     </g>
     <g id="text_19">
      <!-- 0.75 -->
      <g transform="translate(214.797042 61.541035)scale(0.1 -0.1)">
       <defs>
        <path id="DejaVuSans-37" d="M 525 4666 
L 3525 4666 
L 3525 4397 
L 1831 0 
L 1172 0 
L 2766 4134 
L 525 4134 
L 525 4666 
z
" transform="scale(0.015625)"/>
       </defs>
       <use xlink:href="#DejaVuSans-30"/>
       <use xlink:href="#DejaVuSans-2e" x="63.623047"/>
       <use xlink:href="#DejaVuSans-37" x="95.410156"/>
       <use xlink:href="#DejaVuSans-35" x="159.033203"/>
      </g>
     </g>
    </g>
    <g id="ytick_11">
     <g id="line2d_20">
      <g>
       <use xlink:href="#mf1f1451e65" x="244.062667" y="31.584717" style="stroke: #000000; stroke-width: 0.8"/>
      </g>
     </g>
     <g id="text_20">
      <!-- 1.00 -->
      <g transform="translate(214.797042 35.383935)scale(0.1 -0.1)">
       <use xlink:href="#DejaVuSans-31"/>
       <use xlink:href="#DejaVuSans-2e" x="63.623047"/>
       <use xlink:href="#DejaVuSans-30" x="95.410156"/>
       <use xlink:href="#DejaVuSans-30" x="159.033203"/>
      </g>
     </g>
    </g>
   </g>
   <g id="line2d_21">
    <path d="M 317.773654 106.377574 
L 373.572656 112.25592 
L 332.751628 107.955482 
L 314.100641 105.990628 
L 288.43354 103.286635 
L 309.042001 105.457707 
L 317.26779 106.324282 
L 282.209213 102.630911 
L 317.443743 106.342818 
L 299.980437 104.503084 
L 250.229809 99.261926 
L 315.882162 106.178308 
L 277.216555 102.104942 
L 345.486205 109.297052 
L 350.720798 109.848509 
L 302.971633 104.818202 
L 336.556605 108.356331 
L 321.336696 106.752936 
L 257.509852 100.028868 
" clip-path="url(#p46bebdfc52)" style="fill: none; stroke: #000000; stroke-width: 1.5; stroke-linecap: square"/>
   </g>
   <g id="patch_8">
    <path d="M 244.062667 174.04 
L 244.062667 26.88 
" style="fill: none; stroke: #000000; stroke-width: 0.8; stroke-linejoin: miter; stroke-linecap: square"/>
   </g>
   <g id="patch_9">
    <path d="M 379.739798 174.04 
L 379.739798 26.88 
" style="fill: none; stroke: #000000; stroke-width: 0.8; stroke-linejoin: miter; stroke-linecap: square"/>
   </g>
   <g id="patch_10">
    <path d="M 244.062667 174.04 
L 379.739798 174.04 
" style="fill: none; stroke: #000000; stroke-width: 0.8; stroke-linejoin: miter; stroke-linecap: square"/>
   </g>
   <g id="patch_11">
    <path d="M 244.062667 26.88 
L 379.739798 26.88 
" style="fill: none; stroke: #000000; stroke-width: 0.8; stroke-linejoin: miter; stroke-linecap: square"/>
   </g>
   <g id="text_21">
    <!-- Lag 1 -->
    <g transform="translate(295.347795 20.88)scale(0.12 -0.12)">
     <use xlink:href="#DejaVuSans-4c"/>
     <use xlink:href="#DejaVuSans-61" x="55.712891"/>
     <use xlink:href="#DejaVuSans-67" x="116.992188"/>
     <use xlink:href="#DejaVuSans-20" x="180.46875"/>
     <use xlink:href="#DejaVuSans-31" x="212.255859"/>
    </g>
   </g>
  </g>
  <g id="axes_3">
   <g id="patch_12">
    <path d="M 428.741333 174.04 
L 564.418465 174.04 
L 564.418465 26.88 
L 428.741333 26.88 
z
" style="fill: #ffffff"/>
   </g>
   <g id="LineCollection_3">
    <path d="M 486.176695 109.616273 
L 486.176695 95.837124 
" clip-path="url(#p6c09007ef8)" style="fill: none; stroke: #4169e1; stroke-width: 1.5"/>
    <path d="M 502.452321 134.832117 
L 502.452321 107.273818 
" clip-path="url(#p6c09007ef8)" style="fill: none; stroke: #4169e1; stroke-width: 1.5"/>
    <path d="M 558.251322 116.243987 
L 558.251322 33.569091 
" clip-path="url(#p6c09007ef8)" style="fill: none; stroke: #4169e1; stroke-width: 1.5"/>
    <path d="M 517.430295 118.848303 
L 517.430295 88.534175 
" clip-path="url(#p6c09007ef8)" style="fill: none; stroke: #4169e1; stroke-width: 1.5"/>
    <path d="M 498.779308 107.41161 
L 498.779308 99.14412 
" clip-path="url(#p6c09007ef8)" style="fill: none; stroke: #4169e1; stroke-width: 1.5"/>
    <path d="M 473.112207 116.781431 
L 473.112207 100.246452 
" clip-path="url(#p6c09007ef8)" style="fill: none; stroke: #4169e1; stroke-width: 1.5"/>
    <path d="M 493.720668 135.934449 
L 493.720668 111.13198 
" clip-path="url(#p6c09007ef8)" style="fill: none; stroke: #4169e1; stroke-width: 1.5"/>
    <path d="M 501.946457 137.312364 
L 501.946457 110.305231 
" clip-path="url(#p6c09007ef8)" style="fill: none; stroke: #4169e1; stroke-width: 1.5"/>
    <path d="M 466.88788 123.946589 
L 466.88788 101.89995 
" clip-path="url(#p6c09007ef8)" style="fill: none; stroke: #4169e1; stroke-width: 1.5"/>
    <path d="M 502.122409 94.872584 
L 502.122409 59.046795 
" clip-path="url(#p6c09007ef8)" style="fill: none; stroke: #4169e1; stroke-width: 1.5"/>
    <path d="M 484.659103 104.242405 
L 484.659103 95.974916 
" clip-path="url(#p6c09007ef8)" style="fill: none; stroke: #4169e1; stroke-width: 1.5"/>
    <path d="M 434.908476 167.350909 
L 434.908476 137.036781 
" clip-path="url(#p6c09007ef8)" style="fill: none; stroke: #4169e1; stroke-width: 1.5"/>
    <path d="M 500.560829 124.359963 
L 500.560829 113.336644 
" clip-path="url(#p6c09007ef8)" style="fill: none; stroke: #4169e1; stroke-width: 1.5"/>
    <path d="M 461.895222 130.698372 
L 461.895222 105.895903 
" clip-path="url(#p6c09007ef8)" style="fill: none; stroke: #4169e1; stroke-width: 1.5"/>
    <path d="M 530.164872 141.721691 
L 530.164872 111.407563 
" clip-path="url(#p6c09007ef8)" style="fill: none; stroke: #4169e1; stroke-width: 1.5"/>
    <path d="M 535.399465 92.392337 
L 535.399465 64.834038 
" clip-path="url(#p6c09007ef8)" style="fill: none; stroke: #4169e1; stroke-width: 1.5"/>
    <path d="M 487.650299 112.785478 
L 487.650299 90.738839 
" clip-path="url(#p6c09007ef8)" style="fill: none; stroke: #4169e1; stroke-width: 1.5"/>
    <path d="M 521.235272 106.033695 
L 521.235272 88.1208 
" clip-path="url(#p6c09007ef8)" style="fill: none; stroke: #4169e1; stroke-width: 1.5"/>
    <path d="M 506.015363 86.19172 
L 506.015363 66.900911 
" clip-path="url(#p6c09007ef8)" style="fill: none; stroke: #4169e1; stroke-width: 1.5"/>
    <path d="M 442.188519 121.741925 
L 442.188519 72.136987 
" clip-path="url(#p6c09007ef8)" style="fill: none; stroke: #4169e1; stroke-width: 1.5"/>
   </g>
   <g id="line2d_22">
    <g clip-path="url(#p6c09007ef8)">
     <use xlink:href="#m83249deb77" x="486.176695" y="102.726699" style="fill: #4169e1; stroke: #4169e1"/>
     <use xlink:href="#m83249deb77" x="502.452321" y="121.052967" style="fill: #4169e1; stroke: #4169e1"/>
     <use xlink:href="#m83249deb77" x="558.251322" y="74.906539" style="fill: #4169e1; stroke: #4169e1"/>
     <use xlink:href="#m83249deb77" x="517.430295" y="103.691239" style="fill: #4169e1; stroke: #4169e1"/>
     <use xlink:href="#m83249deb77" x="498.779308" y="103.277865" style="fill: #4169e1; stroke: #4169e1"/>
     <use xlink:href="#m83249deb77" x="473.112207" y="108.513941" style="fill: #4169e1; stroke: #4169e1"/>
     <use xlink:href="#m83249deb77" x="493.720668" y="123.533214" style="fill: #4169e1; stroke: #4169e1"/>
     <use xlink:href="#m83249deb77" x="501.946457" y="123.808797" style="fill: #4169e1; stroke: #4169e1"/>
     <use xlink:href="#m83249deb77" x="466.88788" y="112.923269" style="fill: #4169e1; stroke: #4169e1"/>
     <use xlink:href="#m83249deb77" x="502.122409" y="76.95969" style="fill: #4169e1; stroke: #4169e1"/>
     <use xlink:href="#m83249deb77" x="484.659103" y="100.10866" style="fill: #4169e1; stroke: #4169e1"/>
     <use xlink:href="#m83249deb77" x="434.908476" y="152.193845" style="fill: #4169e1; stroke: #4169e1"/>
     <use xlink:href="#m83249deb77" x="500.560829" y="118.848303" style="fill: #4169e1; stroke: #4169e1"/>
     <use xlink:href="#m83249deb77" x="461.895222" y="118.297138" style="fill: #4169e1; stroke: #4169e1"/>
     <use xlink:href="#m83249deb77" x="530.164872" y="126.564627" style="fill: #4169e1; stroke: #4169e1"/>
     <use xlink:href="#m83249deb77" x="535.399465" y="78.613187" style="fill: #4169e1; stroke: #4169e1"/>
     <use xlink:href="#m83249deb77" x="487.650299" y="101.762158" style="fill: #4169e1; stroke: #4169e1"/>
     <use xlink:href="#m83249deb77" x="521.235272" y="97.077248" style="fill: #4169e1; stroke: #4169e1"/>
     <use xlink:href="#m83249deb77" x="506.015363" y="76.546315" style="fill: #4169e1; stroke: #4169e1"/>
     <use xlink:href="#m83249deb77" x="442.188519" y="96.939456" style="fill: #4169e1; stroke: #4169e1"/>
    </g>
   </g>
   <g id="matplotlib.axis_5">
    <g id="xtick_7">
     <g id="line2d_23">
      <g>
       <use xlink:href="#m8bf5a31b43" x="464.182607" y="174.04" style="stroke: #000000; stroke-width: 0.8"/>
      </g>
     </g>
     <g id="text_22">
      <!-- 600 -->
      <g transform="translate(454.638857 188.638438)scale(0.1 -0.1)">
       <use xlink:href="#DejaVuSans-36"/>
       <use xlink:href="#DejaVuSans-30" x="63.623047"/>
       <use xlink:href="#DejaVuSans-30" x="127.246094"/>
      </g>
     </g>
    </g>
    <g id="xtick_8">
     <g id="line2d_24">
      <g>
       <use xlink:href="#m8bf5a31b43" x="508.170784" y="174.04" style="stroke: #000000; stroke-width: 0.8"/>
      </g>
     </g>
     <g id="text_23">
      <!-- 800 -->
      <g transform="translate(498.627034 188.638438)scale(0.1 -0.1)">
       <use xlink:href="#DejaVuSans-38"/>
       <use xlink:href="#DejaVuSans-30" x="63.623047"/>
       <use xlink:href="#DejaVuSans-30" x="127.246094"/>
      </g>
     </g>
    </g>
    <g id="xtick_9">
     <g id="line2d_25">
      <g>
       <use xlink:href="#m8bf5a31b43" x="552.15896" y="174.04" style="stroke: #000000; stroke-width: 0.8"/>
      </g>
     </g>
     <g id="text_24">
      <!-- 1000 -->
      <g transform="translate(539.43396 188.638438)scale(0.1 -0.1)">
       <use xlink:href="#DejaVuSans-31"/>
       <use xlink:href="#DejaVuSans-30" x="63.623047"/>
       <use xlink:href="#DejaVuSans-30" x="127.246094"/>
       <use xlink:href="#DejaVuSans-30" x="190.869141"/>
      </g>
     </g>
    </g>
   </g>
   <g id="matplotlib.axis_6">
    <g id="ytick_12">
     <g id="line2d_26">
      <g>
       <use xlink:href="#mf1f1451e65" x="428.741333" y="151.367096" style="stroke: #000000; stroke-width: 0.8"/>
      </g>
     </g>
     <g id="text_25">
      <!-- 0.2 -->
      <g transform="translate(405.838208 155.166315)scale(0.1 -0.1)">
       <use xlink:href="#DejaVuSans-30"/>
       <use xlink:href="#DejaVuSans-2e" x="63.623047"/>
       <use xlink:href="#DejaVuSans-32" x="95.410156"/>
      </g>
     </g>
    </g>
    <g id="ytick_13">
     <g id="line2d_27">
      <g>
       <use xlink:href="#mf1f1451e65" x="428.741333" y="123.808797" style="stroke: #000000; stroke-width: 0.8"/>
      </g>
     </g>
     <g id="text_26">
      <!-- 0.4 -->
      <g transform="translate(405.838208 127.608016)scale(0.1 -0.1)">
       <use xlink:href="#DejaVuSans-30"/>
       <use xlink:href="#DejaVuSans-2e" x="63.623047"/>
       <use xlink:href="#DejaVuSans-34" x="95.410156"/>
      </g>
     </g>
    </g>
    <g id="ytick_14">
     <g id="line2d_28">
      <g>
       <use xlink:href="#mf1f1451e65" x="428.741333" y="96.250499" style="stroke: #000000; stroke-width: 0.8"/>
      </g>
     </g>
     <g id="text_27">
      <!-- 0.6 -->
      <g transform="translate(405.838208 100.049717)scale(0.1 -0.1)">
       <use xlink:href="#DejaVuSans-30"/>
       <use xlink:href="#DejaVuSans-2e" x="63.623047"/>
       <use xlink:href="#DejaVuSans-36" x="95.410156"/>
      </g>
     </g>
    </g>
    <g id="ytick_15">
     <g id="line2d_29">
      <g>
       <use xlink:href="#mf1f1451e65" x="428.741333" y="68.6922" style="stroke: #000000; stroke-width: 0.8"/>
      </g>
     </g>
     <g id="text_28">
      <!-- 0.8 -->
      <g transform="translate(405.838208 72.491419)scale(0.1 -0.1)">
       <use xlink:href="#DejaVuSans-30"/>
       <use xlink:href="#DejaVuSans-2e" x="63.623047"/>
       <use xlink:href="#DejaVuSans-38" x="95.410156"/>
      </g>
     </g>
    </g>
    <g id="ytick_16">
     <g id="line2d_30">
      <g>
       <use xlink:href="#mf1f1451e65" x="428.741333" y="41.133901" style="stroke: #000000; stroke-width: 0.8"/>
      </g>
     </g>
     <g id="text_29">
      <!-- 1.0 -->
      <g transform="translate(405.838208 44.93312)scale(0.1 -0.1)">
       <use xlink:href="#DejaVuSans-31"/>
       <use xlink:href="#DejaVuSans-2e" x="63.623047"/>
       <use xlink:href="#DejaVuSans-30" x="95.410156"/>
      </g>
     </g>
    </g>
   </g>
   <g id="line2d_31">
    <path d="M 486.176695 108.630465 
L 502.452321 103.537302 
L 558.251322 86.076012 
L 517.430295 98.850216 
L 498.779308 104.686705 
L 473.112207 112.718761 
L 493.720668 106.269715 
L 501.946457 103.695603 
L 466.88788 114.666552 
L 502.122409 103.640542 
L 484.659103 109.105368 
L 434.908476 124.673929 
L 500.560829 104.12921 
L 461.895222 116.228914 
L 530.164872 94.86516 
L 535.399465 93.227088 
L 487.650299 108.169328 
L 521.235272 97.659517 
L 506.015363 102.422313 
L 442.188519 122.395771 
" clip-path="url(#p6c09007ef8)" style="fill: none; stroke: #000000; stroke-width: 1.5; stroke-linecap: square"/>
   </g>
   <g id="patch_13">
    <path d="M 428.741333 174.04 
L 428.741333 26.88 
" style="fill: none; stroke: #000000; stroke-width: 0.8; stroke-linejoin: miter; stroke-linecap: square"/>
   </g>
   <g id="patch_14">
    <path d="M 564.418465 174.04 
L 564.418465 26.88 
" style="fill: none; stroke: #000000; stroke-width: 0.8; stroke-linejoin: miter; stroke-linecap: square"/>
   </g>
   <g id="patch_15">
    <path d="M 428.741333 174.04 
L 564.418465 174.04 
" style="fill: none; stroke: #000000; stroke-width: 0.8; stroke-linejoin: miter; stroke-linecap: square"/>
   </g>
   <g id="patch_16">
    <path d="M 428.741333 26.88 
L 564.418465 26.88 
" style="fill: none; stroke: #000000; stroke-width: 0.8; stroke-linejoin: miter; stroke-linecap: square"/>
   </g>
   <g id="text_30">
    <!-- Mean -->
    <g transform="translate(480.231774 20.88)scale(0.12 -0.12)">
     <defs>
      <path id="DejaVuSans-4d" d="M 628 4666 
L 1569 4666 
L 2759 1491 
L 3956 4666 
L 4897 4666 
L 4897 0 
L 4281 0 
L 4281 4097 
L 3078 897 
L 2444 897 
L 1241 4097 
L 1241 0 
L 628 0 
L 628 4666 
z
" transform="scale(0.015625)"/>
     </defs>
     <use xlink:href="#DejaVuSans-4d"/>
     <use xlink:href="#DejaVuSans-65" x="86.279297"/>
     <use xlink:href="#DejaVuSans-61" x="147.802734"/>
     <use xlink:href="#DejaVuSans-6e" x="209.082031"/>
    </g>
   </g>
  </g>
 </g>
 <defs>
  <clipPath id="p1d4f440236">
   <rect x="59.384" y="26.88" width="135.677131" height="147.16"/>
  </clipPath>
  <clipPath id="p46bebdfc52">
   <rect x="244.062667" y="26.88" width="135.677131" height="147.16"/>
  </clipPath>
  <clipPath id="p6c09007ef8">
   <rect x="428.741333" y="26.88" width="135.677131" height="147.16"/>
  </clipPath>
 </defs>
</svg>
